%FSLAX34Y34*%
G04 Gerber Fmt 3.4, Leading zero omitted, Abs format*
G04 (created by PCBNEW (2014-jan-25)-product) date Fri 29 May 2015 12:06:52 PM EDT*
%MOIN*%
G01*
G70*
G90*
G04 APERTURE LIST*
%ADD10C,0.005906*%
%ADD11R,0.070900X0.145700*%
%ADD12R,0.100000X0.100000*%
%ADD13C,0.100000*%
%ADD14R,0.078740X0.118110*%
%ADD15C,0.078740*%
%ADD16C,0.059055*%
%ADD17R,0.055000X0.055000*%
%ADD18C,0.055000*%
%ADD19R,0.068000X0.068000*%
%ADD20O,0.068000X0.068000*%
%ADD21R,0.078700X0.126000*%
%ADD22R,0.126000X0.078700*%
%ADD23R,0.144000X0.080000*%
%ADD24R,0.040000X0.080000*%
%ADD25C,0.070000*%
%ADD26R,0.070000X0.070000*%
%ADD27C,0.039400*%
%ADD28R,0.080000X0.080000*%
%ADD29O,0.080000X0.080000*%
%ADD30C,0.160000*%
G04 APERTURE END LIST*
G54D10*
G54D11*
X49257Y-64900D03*
X47643Y-64900D03*
X48857Y-70000D03*
X47243Y-70000D03*
G54D12*
X50700Y-60750D03*
G54D13*
X50700Y-62750D03*
X50700Y-64750D03*
G54D14*
X34550Y-58000D03*
G54D15*
X36550Y-57000D03*
X36550Y-56000D03*
X36550Y-59000D03*
X36550Y-60000D03*
G54D16*
X33550Y-56000D03*
X33550Y-60000D03*
X34550Y-60000D03*
X34550Y-56000D03*
X36550Y-58000D03*
G54D17*
X34200Y-64350D03*
G54D18*
X34200Y-63350D03*
X34200Y-62350D03*
X34200Y-61350D03*
G54D19*
X37650Y-71300D03*
G54D20*
X37650Y-70300D03*
X37650Y-69300D03*
X36650Y-69300D03*
X36650Y-70300D03*
X36650Y-71300D03*
G54D21*
X51378Y-56900D03*
X48622Y-56900D03*
G54D22*
X46450Y-58528D03*
X46450Y-55772D03*
G54D23*
X41250Y-69300D03*
G54D24*
X41250Y-66700D03*
X42150Y-66700D03*
X40350Y-66700D03*
G54D25*
X49050Y-67650D03*
X50050Y-67650D03*
G54D26*
X51050Y-67650D03*
G54D16*
X46000Y-53600D03*
X46000Y-54600D03*
X42000Y-54600D03*
X42000Y-53600D03*
G54D27*
X38950Y-65005D03*
X38950Y-65595D03*
G54D28*
X41250Y-71250D03*
G54D29*
X40250Y-71250D03*
G54D30*
X34500Y-54250D03*
X50500Y-70500D03*
X34500Y-70500D03*
X50600Y-54350D03*
M02*
