%FSLAX34Y34*%
G04 Gerber Fmt 3.4, Leading zero omitted, Abs format*
G04 (created by PCBNEW (2014-jan-25)-product) date Sun 31 May 2015 12:35:32 PM EDT*
%MOIN*%
G01*
G70*
G90*
G04 APERTURE LIST*
%ADD10C,0.005906*%
%ADD11R,0.068000X0.068000*%
%ADD12O,0.068000X0.068000*%
%ADD13R,0.051200X0.059000*%
%ADD14R,0.059000X0.051200*%
%ADD15R,0.070900X0.145700*%
%ADD16R,0.100000X0.100000*%
%ADD17C,0.100000*%
%ADD18R,0.078740X0.118110*%
%ADD19C,0.078740*%
%ADD20R,0.055000X0.055000*%
%ADD21C,0.055000*%
%ADD22R,0.047200X0.031500*%
%ADD23R,0.031500X0.047200*%
%ADD24R,0.126000X0.078700*%
%ADD25R,0.044882X0.035827*%
%ADD26C,0.070000*%
%ADD27R,0.070000X0.070000*%
%ADD28C,0.059055*%
%ADD29C,0.039400*%
%ADD30R,0.080000X0.080000*%
%ADD31O,0.080000X0.080000*%
%ADD32C,0.160000*%
%ADD33C,0.035000*%
%ADD34C,0.022000*%
%ADD35C,0.020000*%
%ADD36C,0.015748*%
%ADD37C,0.007992*%
%ADD38C,0.010000*%
%ADD39C,0.098425*%
G04 APERTURE END LIST*
G54D10*
G54D11*
X40850Y-65500D03*
G54D12*
X40850Y-66500D03*
X40850Y-67500D03*
X41850Y-67500D03*
X41850Y-66500D03*
X41850Y-65500D03*
G54D13*
X39025Y-65400D03*
X39775Y-65400D03*
G54D14*
X37800Y-68325D03*
X37800Y-69075D03*
X39200Y-68325D03*
X39200Y-69075D03*
X40050Y-68325D03*
X40050Y-69075D03*
G54D15*
X48007Y-59250D03*
X46393Y-59250D03*
G54D16*
X50650Y-61700D03*
G54D17*
X50650Y-63700D03*
X50650Y-65700D03*
G54D18*
X34300Y-62900D03*
G54D19*
X36300Y-61900D03*
X36300Y-60900D03*
X36300Y-63900D03*
X36300Y-64900D03*
G54D20*
X33450Y-66400D03*
G54D21*
X34450Y-66400D03*
X35450Y-66400D03*
X36450Y-66400D03*
G54D22*
X37600Y-60806D03*
X37600Y-61594D03*
X37600Y-63106D03*
X37600Y-63894D03*
G54D23*
X41494Y-63800D03*
X40706Y-63800D03*
G54D24*
X47100Y-68672D03*
X47100Y-71428D03*
X45100Y-66172D03*
X45100Y-68928D03*
G54D25*
X42200Y-62350D03*
X42200Y-61350D03*
X44700Y-62350D03*
X44700Y-61350D03*
G54D26*
X47400Y-62800D03*
X47400Y-63800D03*
G54D27*
X47400Y-64800D03*
G54D28*
X41400Y-71100D03*
X41400Y-70100D03*
X45400Y-70100D03*
X45400Y-71100D03*
G54D29*
X38955Y-70000D03*
X39545Y-70000D03*
G54D30*
X37750Y-59100D03*
G54D31*
X36750Y-59100D03*
G54D32*
X34500Y-58650D03*
X50500Y-70500D03*
X34500Y-70500D03*
X50300Y-58650D03*
G54D33*
X36350Y-70300D03*
G54D34*
X38400Y-68750D03*
X38450Y-69550D03*
X39200Y-63750D03*
X33400Y-69450D03*
G54D35*
X39050Y-67100D03*
X39050Y-67550D03*
X38500Y-67100D03*
X38500Y-67550D03*
G54D34*
X38500Y-65400D03*
X36700Y-69150D03*
X38500Y-69950D03*
X38500Y-69100D03*
X38500Y-62150D03*
X35800Y-62450D03*
X39175Y-64675D03*
G54D35*
X39700Y-65950D03*
G54D33*
X45900Y-58100D03*
X49250Y-71500D03*
X46450Y-67500D03*
G54D34*
X36950Y-68500D03*
X36800Y-67300D03*
G54D33*
X44800Y-63250D03*
G54D34*
X41250Y-68400D03*
X40150Y-67650D03*
G54D36*
X36350Y-70300D02*
X36350Y-70150D01*
G54D37*
X38450Y-69550D02*
X38500Y-69550D01*
X38500Y-69550D02*
X38750Y-69300D01*
X38750Y-69300D02*
X38750Y-68325D01*
G54D38*
X40050Y-68325D02*
X40375Y-68325D01*
X40375Y-68325D02*
X41000Y-68950D01*
X41000Y-68950D02*
X41000Y-69700D01*
X41000Y-69700D02*
X41400Y-70100D01*
X40050Y-68325D02*
X39200Y-68325D01*
X39200Y-68325D02*
X38750Y-68325D01*
X38750Y-68325D02*
X37800Y-68325D01*
G54D37*
X38450Y-69550D02*
X38450Y-69600D01*
G54D38*
X39200Y-63750D02*
X41600Y-61350D01*
X41600Y-61350D02*
X42200Y-61350D01*
X33400Y-69450D02*
X33550Y-69300D01*
X33550Y-69300D02*
X34850Y-69300D01*
G54D37*
X39050Y-67100D02*
X39050Y-67550D01*
X38500Y-67100D02*
X38500Y-67550D01*
X38500Y-65400D02*
X39025Y-65400D01*
G54D38*
X39200Y-67700D02*
X39200Y-68325D01*
X39125Y-67625D02*
X39050Y-67550D01*
X39200Y-67700D02*
X39125Y-67625D01*
X38575Y-67625D02*
X39125Y-67625D01*
X38575Y-67625D02*
X38500Y-67550D01*
X36775Y-69075D02*
X36700Y-69150D01*
G54D37*
X37700Y-69550D02*
X37700Y-69175D01*
X37700Y-69175D02*
X37800Y-69075D01*
X38500Y-69950D02*
X38400Y-69850D01*
X38400Y-69850D02*
X38000Y-69850D01*
X38000Y-69850D02*
X37700Y-69550D01*
X38500Y-69100D02*
X38475Y-69075D01*
G54D38*
X38475Y-69075D02*
X37800Y-69075D01*
X37800Y-69075D02*
X37575Y-69075D01*
X37575Y-69075D02*
X37300Y-68800D01*
X37300Y-68800D02*
X37300Y-65850D01*
X37300Y-65850D02*
X38475Y-64675D01*
X38475Y-64675D02*
X39175Y-64675D01*
X37800Y-69075D02*
X36775Y-69075D01*
X38500Y-62150D02*
X38475Y-62125D01*
X38475Y-62125D02*
X37525Y-62125D01*
X37600Y-62050D02*
X37600Y-61594D01*
X37200Y-62450D02*
X37525Y-62125D01*
X37525Y-62125D02*
X37600Y-62050D01*
X35800Y-62450D02*
X37200Y-62450D01*
X37600Y-63894D02*
X38394Y-63894D01*
X38394Y-63894D02*
X39175Y-64675D01*
X39175Y-64675D02*
X39775Y-65275D01*
X39775Y-65275D02*
X39775Y-65400D01*
G54D37*
X39775Y-65875D02*
X39700Y-65950D01*
X39775Y-65400D02*
X39775Y-65875D01*
G54D38*
X38955Y-70000D02*
X38955Y-69320D01*
G54D37*
X38955Y-69320D02*
X39200Y-69075D01*
X39545Y-70000D02*
X39545Y-69580D01*
G54D38*
X39545Y-69580D02*
X40050Y-69075D01*
G54D39*
X48450Y-64800D02*
X47400Y-64800D01*
X50500Y-63700D02*
X48450Y-64800D01*
X50650Y-63700D02*
X50500Y-63700D01*
G54D36*
X50650Y-63700D02*
X50700Y-63700D01*
G54D38*
X50950Y-63700D02*
X50650Y-63700D01*
G54D36*
X49250Y-59250D02*
X49800Y-59800D01*
X48007Y-59250D02*
X49250Y-59250D01*
X51950Y-62700D02*
X50950Y-63700D01*
X51950Y-60800D02*
X51950Y-62700D01*
X50950Y-59800D02*
X51950Y-60800D01*
X49800Y-59800D02*
X50950Y-59800D01*
X45993Y-58193D02*
X45900Y-58100D01*
X46393Y-59250D02*
X45993Y-58193D01*
X46422Y-66172D02*
X46650Y-66400D01*
X46650Y-66400D02*
X46750Y-66400D01*
X46750Y-66400D02*
X49250Y-68900D01*
X49250Y-68900D02*
X49250Y-71500D01*
X45100Y-66172D02*
X46422Y-66172D01*
X47100Y-68150D02*
X46450Y-67500D01*
X47100Y-68672D02*
X47100Y-68150D01*
G54D39*
X49400Y-60800D02*
X47400Y-62800D01*
X49400Y-60800D02*
X47400Y-62800D01*
X50650Y-61700D02*
X49400Y-60800D01*
G54D38*
X36950Y-68500D02*
X36800Y-68350D01*
X36800Y-68350D02*
X36800Y-67300D01*
X37600Y-63106D02*
X37544Y-63106D01*
X37544Y-63106D02*
X36950Y-63700D01*
X36950Y-63700D02*
X36950Y-64250D01*
X36950Y-64250D02*
X36300Y-64900D01*
X37600Y-60806D02*
X36394Y-60806D01*
X36394Y-60806D02*
X36300Y-60900D01*
G54D37*
X40850Y-63944D02*
X40706Y-63800D01*
G54D38*
X40850Y-65500D02*
X40850Y-63944D01*
X41494Y-63056D02*
X42200Y-62350D01*
X41494Y-63800D02*
X41494Y-63056D01*
G54D36*
X45728Y-71428D02*
X45400Y-71100D01*
X47100Y-71428D02*
X45728Y-71428D01*
X45100Y-69800D02*
X45400Y-70100D01*
X45100Y-68928D02*
X45100Y-69800D01*
X44700Y-62350D02*
X44700Y-63150D01*
G54D37*
X44700Y-63150D02*
X44800Y-63250D01*
G54D36*
X46550Y-63800D02*
X46250Y-63500D01*
X46250Y-63500D02*
X46250Y-62100D01*
X46250Y-62100D02*
X45500Y-61350D01*
X45500Y-61350D02*
X44700Y-61350D01*
X47400Y-63800D02*
X46550Y-63800D01*
G54D37*
X41250Y-68400D02*
X41150Y-68300D01*
G54D38*
X41150Y-68300D02*
X40800Y-68300D01*
G54D37*
X40800Y-68300D02*
X40150Y-67650D01*
G54D10*
G36*
X38655Y-69624D02*
X38571Y-69590D01*
X38522Y-69590D01*
X38510Y-69582D01*
X38400Y-69560D01*
X38195Y-69560D01*
X38236Y-69542D01*
X38306Y-69472D01*
X38329Y-69418D01*
X38428Y-69459D01*
X38571Y-69460D01*
X38655Y-69425D01*
X38655Y-69624D01*
X38655Y-69624D01*
G37*
G54D38*
X38655Y-69624D02*
X38571Y-69590D01*
X38522Y-69590D01*
X38510Y-69582D01*
X38400Y-69560D01*
X38195Y-69560D01*
X38236Y-69542D01*
X38306Y-69472D01*
X38329Y-69418D01*
X38428Y-69459D01*
X38571Y-69460D01*
X38655Y-69425D01*
X38655Y-69624D01*
G54D10*
G36*
X40539Y-67000D02*
X40432Y-67071D01*
X40304Y-67262D01*
X40293Y-67319D01*
X40221Y-67290D01*
X40078Y-67289D01*
X39946Y-67344D01*
X39844Y-67445D01*
X39790Y-67578D01*
X39789Y-67721D01*
X39830Y-67819D01*
X39804Y-67819D01*
X39705Y-67819D01*
X39625Y-67852D01*
X39544Y-67819D01*
X39445Y-67819D01*
X39312Y-67819D01*
X39250Y-67881D01*
X39250Y-68275D01*
X39567Y-68275D01*
X39682Y-68275D01*
X40000Y-68275D01*
X40000Y-68267D01*
X40100Y-68267D01*
X40100Y-68275D01*
X40107Y-68275D01*
X40107Y-68375D01*
X40100Y-68375D01*
X40100Y-68382D01*
X40000Y-68382D01*
X40000Y-68375D01*
X39682Y-68375D01*
X39567Y-68375D01*
X39250Y-68375D01*
X39250Y-68382D01*
X39150Y-68382D01*
X39150Y-68375D01*
X39150Y-68275D01*
X39150Y-67881D01*
X39087Y-67819D01*
X38975Y-67819D01*
X38975Y-65882D01*
X38975Y-65450D01*
X38581Y-65450D01*
X38519Y-65512D01*
X38519Y-65645D01*
X38519Y-65744D01*
X38557Y-65836D01*
X38627Y-65906D01*
X38719Y-65945D01*
X38912Y-65945D01*
X38975Y-65882D01*
X38975Y-67819D01*
X38954Y-67819D01*
X38855Y-67819D01*
X38763Y-67857D01*
X38693Y-67927D01*
X38655Y-68019D01*
X38655Y-68212D01*
X38717Y-68275D01*
X39150Y-68275D01*
X39150Y-68375D01*
X38717Y-68375D01*
X38655Y-68437D01*
X38655Y-68630D01*
X38683Y-68699D01*
X38655Y-68769D01*
X38655Y-68774D01*
X38571Y-68740D01*
X38428Y-68739D01*
X38345Y-68774D01*
X38345Y-68769D01*
X38316Y-68700D01*
X38345Y-68630D01*
X38345Y-68437D01*
X38345Y-68212D01*
X38345Y-68019D01*
X38306Y-67927D01*
X38236Y-67857D01*
X38144Y-67819D01*
X38045Y-67819D01*
X37912Y-67819D01*
X37850Y-67881D01*
X37850Y-68275D01*
X38282Y-68275D01*
X38345Y-68212D01*
X38345Y-68437D01*
X38282Y-68375D01*
X37850Y-68375D01*
X37850Y-68382D01*
X37750Y-68382D01*
X37750Y-68375D01*
X37742Y-68375D01*
X37742Y-68275D01*
X37750Y-68275D01*
X37750Y-67881D01*
X37687Y-67819D01*
X37600Y-67819D01*
X37600Y-65974D01*
X38519Y-65055D01*
X38519Y-65055D01*
X38519Y-65154D01*
X38519Y-65287D01*
X38581Y-65350D01*
X38975Y-65350D01*
X38975Y-65342D01*
X39075Y-65342D01*
X39075Y-65350D01*
X39082Y-65350D01*
X39082Y-65450D01*
X39075Y-65450D01*
X39075Y-65882D01*
X39137Y-65945D01*
X39330Y-65945D01*
X39350Y-65937D01*
X39349Y-66019D01*
X39403Y-66148D01*
X39501Y-66246D01*
X39630Y-66299D01*
X39769Y-66300D01*
X39898Y-66246D01*
X39996Y-66148D01*
X40049Y-66019D01*
X40050Y-65950D01*
X40051Y-65945D01*
X40080Y-65945D01*
X40172Y-65906D01*
X40242Y-65836D01*
X40260Y-65795D01*
X40260Y-65889D01*
X40298Y-65981D01*
X40368Y-66051D01*
X40428Y-66077D01*
X40304Y-66262D01*
X40260Y-66488D01*
X40260Y-66511D01*
X40304Y-66737D01*
X40432Y-66928D01*
X40539Y-67000D01*
X40539Y-67000D01*
G37*
G54D38*
X40539Y-67000D02*
X40432Y-67071D01*
X40304Y-67262D01*
X40293Y-67319D01*
X40221Y-67290D01*
X40078Y-67289D01*
X39946Y-67344D01*
X39844Y-67445D01*
X39790Y-67578D01*
X39789Y-67721D01*
X39830Y-67819D01*
X39804Y-67819D01*
X39705Y-67819D01*
X39625Y-67852D01*
X39544Y-67819D01*
X39445Y-67819D01*
X39312Y-67819D01*
X39250Y-67881D01*
X39250Y-68275D01*
X39567Y-68275D01*
X39682Y-68275D01*
X40000Y-68275D01*
X40000Y-68267D01*
X40100Y-68267D01*
X40100Y-68275D01*
X40107Y-68275D01*
X40107Y-68375D01*
X40100Y-68375D01*
X40100Y-68382D01*
X40000Y-68382D01*
X40000Y-68375D01*
X39682Y-68375D01*
X39567Y-68375D01*
X39250Y-68375D01*
X39250Y-68382D01*
X39150Y-68382D01*
X39150Y-68375D01*
X39150Y-68275D01*
X39150Y-67881D01*
X39087Y-67819D01*
X38975Y-67819D01*
X38975Y-65882D01*
X38975Y-65450D01*
X38581Y-65450D01*
X38519Y-65512D01*
X38519Y-65645D01*
X38519Y-65744D01*
X38557Y-65836D01*
X38627Y-65906D01*
X38719Y-65945D01*
X38912Y-65945D01*
X38975Y-65882D01*
X38975Y-67819D01*
X38954Y-67819D01*
X38855Y-67819D01*
X38763Y-67857D01*
X38693Y-67927D01*
X38655Y-68019D01*
X38655Y-68212D01*
X38717Y-68275D01*
X39150Y-68275D01*
X39150Y-68375D01*
X38717Y-68375D01*
X38655Y-68437D01*
X38655Y-68630D01*
X38683Y-68699D01*
X38655Y-68769D01*
X38655Y-68774D01*
X38571Y-68740D01*
X38428Y-68739D01*
X38345Y-68774D01*
X38345Y-68769D01*
X38316Y-68700D01*
X38345Y-68630D01*
X38345Y-68437D01*
X38345Y-68212D01*
X38345Y-68019D01*
X38306Y-67927D01*
X38236Y-67857D01*
X38144Y-67819D01*
X38045Y-67819D01*
X37912Y-67819D01*
X37850Y-67881D01*
X37850Y-68275D01*
X38282Y-68275D01*
X38345Y-68212D01*
X38345Y-68437D01*
X38282Y-68375D01*
X37850Y-68375D01*
X37850Y-68382D01*
X37750Y-68382D01*
X37750Y-68375D01*
X37742Y-68375D01*
X37742Y-68275D01*
X37750Y-68275D01*
X37750Y-67881D01*
X37687Y-67819D01*
X37600Y-67819D01*
X37600Y-65974D01*
X38519Y-65055D01*
X38519Y-65055D01*
X38519Y-65154D01*
X38519Y-65287D01*
X38581Y-65350D01*
X38975Y-65350D01*
X38975Y-65342D01*
X39075Y-65342D01*
X39075Y-65350D01*
X39082Y-65350D01*
X39082Y-65450D01*
X39075Y-65450D01*
X39075Y-65882D01*
X39137Y-65945D01*
X39330Y-65945D01*
X39350Y-65937D01*
X39349Y-66019D01*
X39403Y-66148D01*
X39501Y-66246D01*
X39630Y-66299D01*
X39769Y-66300D01*
X39898Y-66246D01*
X39996Y-66148D01*
X40049Y-66019D01*
X40050Y-65950D01*
X40051Y-65945D01*
X40080Y-65945D01*
X40172Y-65906D01*
X40242Y-65836D01*
X40260Y-65795D01*
X40260Y-65889D01*
X40298Y-65981D01*
X40368Y-66051D01*
X40428Y-66077D01*
X40304Y-66262D01*
X40260Y-66488D01*
X40260Y-66511D01*
X40304Y-66737D01*
X40432Y-66928D01*
X40539Y-67000D01*
G54D10*
G36*
X42250Y-69450D02*
X41750Y-69450D01*
X41750Y-69679D01*
X41711Y-69717D01*
X41685Y-69622D01*
X41480Y-69549D01*
X41263Y-69560D01*
X41114Y-69622D01*
X41088Y-69717D01*
X41400Y-70029D01*
X41405Y-70023D01*
X41476Y-70094D01*
X41470Y-70100D01*
X41476Y-70105D01*
X41405Y-70176D01*
X41400Y-70170D01*
X41329Y-70241D01*
X41329Y-70100D01*
X41017Y-69788D01*
X40922Y-69814D01*
X40849Y-70019D01*
X40860Y-70236D01*
X40922Y-70385D01*
X41017Y-70411D01*
X41329Y-70100D01*
X41329Y-70241D01*
X41088Y-70482D01*
X41114Y-70577D01*
X41180Y-70600D01*
X41091Y-70637D01*
X40938Y-70790D01*
X40854Y-70991D01*
X40854Y-71207D01*
X40937Y-71408D01*
X41090Y-71561D01*
X41291Y-71645D01*
X41507Y-71645D01*
X41708Y-71562D01*
X41750Y-71521D01*
X41750Y-71850D01*
X35747Y-71850D01*
X35747Y-66767D01*
X35450Y-66470D01*
X35152Y-66767D01*
X35177Y-66860D01*
X35374Y-66929D01*
X35582Y-66918D01*
X35722Y-66860D01*
X35747Y-66767D01*
X35747Y-71850D01*
X35550Y-71850D01*
X35550Y-70292D01*
X35390Y-69905D01*
X35095Y-69610D01*
X34709Y-69450D01*
X34292Y-69449D01*
X33905Y-69609D01*
X33610Y-69904D01*
X33450Y-70290D01*
X33449Y-70707D01*
X33609Y-71094D01*
X33904Y-71389D01*
X34290Y-71549D01*
X34707Y-71550D01*
X35094Y-71390D01*
X35389Y-71095D01*
X35549Y-70709D01*
X35550Y-70292D01*
X35550Y-71850D01*
X33400Y-71850D01*
X33400Y-66925D01*
X33774Y-66925D01*
X33866Y-66886D01*
X33936Y-66816D01*
X33975Y-66724D01*
X33975Y-66625D01*
X33975Y-66625D01*
X34004Y-66697D01*
X34152Y-66844D01*
X34345Y-66924D01*
X34553Y-66925D01*
X34747Y-66845D01*
X34894Y-66697D01*
X34947Y-66571D01*
X34989Y-66672D01*
X35082Y-66697D01*
X35379Y-66400D01*
X35082Y-66102D01*
X34989Y-66127D01*
X34950Y-66237D01*
X34943Y-66220D01*
X34943Y-63540D01*
X34943Y-63440D01*
X34943Y-63012D01*
X34943Y-62787D01*
X34943Y-62359D01*
X34943Y-62259D01*
X34905Y-62167D01*
X34835Y-62097D01*
X34743Y-62059D01*
X34412Y-62059D01*
X34350Y-62121D01*
X34350Y-62850D01*
X34881Y-62850D01*
X34943Y-62787D01*
X34943Y-63012D01*
X34881Y-62950D01*
X34350Y-62950D01*
X34350Y-63678D01*
X34412Y-63740D01*
X34743Y-63740D01*
X34835Y-63702D01*
X34905Y-63632D01*
X34943Y-63540D01*
X34943Y-66220D01*
X34895Y-66103D01*
X34747Y-65955D01*
X34554Y-65875D01*
X34346Y-65874D01*
X34153Y-65954D01*
X34005Y-66102D01*
X33975Y-66174D01*
X33975Y-66075D01*
X33936Y-65983D01*
X33866Y-65913D01*
X33774Y-65875D01*
X33675Y-65875D01*
X33400Y-65875D01*
X33400Y-65445D01*
X33407Y-65445D01*
X33608Y-65362D01*
X33761Y-65209D01*
X33799Y-65117D01*
X33837Y-65208D01*
X33990Y-65361D01*
X34191Y-65445D01*
X34407Y-65445D01*
X34608Y-65362D01*
X34761Y-65209D01*
X34845Y-65008D01*
X34845Y-64792D01*
X34762Y-64591D01*
X34609Y-64438D01*
X34408Y-64354D01*
X34250Y-64354D01*
X34250Y-63678D01*
X34250Y-62950D01*
X34250Y-62850D01*
X34250Y-62121D01*
X34187Y-62059D01*
X33856Y-62059D01*
X33764Y-62097D01*
X33694Y-62167D01*
X33656Y-62259D01*
X33656Y-62359D01*
X33656Y-62787D01*
X33718Y-62850D01*
X34250Y-62850D01*
X34250Y-62950D01*
X33718Y-62950D01*
X33656Y-63012D01*
X33656Y-63440D01*
X33656Y-63540D01*
X33694Y-63632D01*
X33764Y-63702D01*
X33856Y-63740D01*
X34187Y-63740D01*
X34250Y-63678D01*
X34250Y-64354D01*
X34192Y-64354D01*
X33991Y-64437D01*
X33838Y-64590D01*
X33800Y-64682D01*
X33762Y-64591D01*
X33609Y-64438D01*
X33408Y-64354D01*
X33400Y-64354D01*
X33400Y-61445D01*
X33407Y-61445D01*
X33608Y-61362D01*
X33761Y-61209D01*
X33799Y-61117D01*
X33837Y-61208D01*
X33990Y-61361D01*
X34191Y-61445D01*
X34407Y-61445D01*
X34608Y-61362D01*
X34761Y-61209D01*
X34845Y-61008D01*
X34845Y-60792D01*
X34762Y-60591D01*
X34609Y-60438D01*
X34408Y-60354D01*
X34192Y-60354D01*
X33991Y-60437D01*
X33838Y-60590D01*
X33800Y-60682D01*
X33762Y-60591D01*
X33609Y-60438D01*
X33408Y-60354D01*
X33400Y-60354D01*
X33400Y-57600D01*
X34291Y-57600D01*
X33905Y-57759D01*
X33610Y-58054D01*
X33450Y-58440D01*
X33449Y-58857D01*
X33609Y-59244D01*
X33904Y-59539D01*
X34290Y-59699D01*
X34707Y-59700D01*
X35094Y-59540D01*
X35389Y-59245D01*
X35549Y-58859D01*
X35550Y-58442D01*
X35390Y-58055D01*
X35095Y-57760D01*
X34709Y-57600D01*
X34500Y-57600D01*
X42250Y-57600D01*
X42250Y-60983D01*
X42250Y-61300D01*
X42250Y-61400D01*
X42250Y-61716D01*
X42250Y-61920D01*
X42150Y-61920D01*
X42150Y-61716D01*
X42150Y-61400D01*
X42150Y-61300D01*
X42150Y-60983D01*
X42087Y-60920D01*
X41925Y-60920D01*
X41833Y-60958D01*
X41763Y-61029D01*
X41725Y-61121D01*
X41725Y-61220D01*
X41725Y-61237D01*
X41788Y-61300D01*
X42150Y-61300D01*
X42150Y-61400D01*
X41788Y-61400D01*
X41725Y-61462D01*
X41725Y-61479D01*
X41725Y-61578D01*
X41763Y-61670D01*
X41833Y-61741D01*
X41925Y-61779D01*
X42087Y-61779D01*
X42150Y-61716D01*
X42150Y-61920D01*
X41925Y-61920D01*
X41833Y-61958D01*
X41763Y-62029D01*
X41725Y-62121D01*
X41725Y-62220D01*
X41725Y-62400D01*
X41281Y-62843D01*
X41216Y-62941D01*
X41194Y-63056D01*
X41194Y-63352D01*
X41124Y-63422D01*
X41099Y-63481D01*
X41075Y-63422D01*
X41005Y-63352D01*
X40913Y-63314D01*
X40813Y-63314D01*
X40498Y-63314D01*
X40406Y-63352D01*
X40336Y-63422D01*
X40298Y-63514D01*
X40298Y-63613D01*
X40298Y-64085D01*
X40336Y-64177D01*
X40406Y-64247D01*
X40498Y-64286D01*
X40550Y-64286D01*
X40550Y-64910D01*
X40460Y-64910D01*
X40368Y-64948D01*
X40298Y-65018D01*
X40281Y-65059D01*
X40281Y-65055D01*
X40242Y-64963D01*
X40172Y-64893D01*
X40080Y-64855D01*
X39981Y-64855D01*
X39779Y-64855D01*
X39535Y-64610D01*
X39535Y-64603D01*
X39480Y-64471D01*
X39379Y-64369D01*
X39246Y-64315D01*
X39239Y-64315D01*
X38606Y-63681D01*
X38508Y-63616D01*
X38394Y-63594D01*
X38047Y-63594D01*
X37977Y-63524D01*
X37918Y-63499D01*
X37977Y-63475D01*
X38047Y-63405D01*
X38086Y-63313D01*
X38086Y-63213D01*
X38086Y-62898D01*
X38047Y-62806D01*
X37977Y-62736D01*
X37885Y-62698D01*
X37786Y-62698D01*
X37357Y-62698D01*
X37412Y-62662D01*
X37649Y-62425D01*
X38265Y-62425D01*
X38295Y-62455D01*
X38428Y-62509D01*
X38571Y-62510D01*
X38703Y-62455D01*
X38805Y-62354D01*
X38859Y-62221D01*
X38860Y-62078D01*
X38805Y-61946D01*
X38704Y-61844D01*
X38571Y-61790D01*
X38428Y-61789D01*
X38400Y-61801D01*
X38400Y-59549D01*
X38400Y-59450D01*
X38400Y-58650D01*
X38361Y-58558D01*
X38291Y-58488D01*
X38199Y-58450D01*
X38100Y-58450D01*
X37300Y-58450D01*
X37208Y-58488D01*
X37138Y-58558D01*
X37131Y-58573D01*
X37131Y-58573D01*
X36900Y-58467D01*
X36800Y-58514D01*
X36800Y-59050D01*
X36807Y-59050D01*
X36807Y-59150D01*
X36800Y-59150D01*
X36800Y-59685D01*
X36900Y-59732D01*
X37131Y-59626D01*
X37131Y-59626D01*
X37138Y-59641D01*
X37208Y-59711D01*
X37300Y-59750D01*
X37399Y-59750D01*
X38199Y-59750D01*
X38291Y-59711D01*
X38361Y-59641D01*
X38400Y-59549D01*
X38400Y-61801D01*
X38343Y-61825D01*
X38076Y-61825D01*
X38086Y-61801D01*
X38086Y-61701D01*
X38086Y-61386D01*
X38047Y-61294D01*
X37977Y-61224D01*
X37918Y-61199D01*
X37977Y-61175D01*
X38047Y-61105D01*
X38086Y-61013D01*
X38086Y-60913D01*
X38086Y-60598D01*
X38047Y-60506D01*
X37977Y-60436D01*
X37885Y-60398D01*
X37786Y-60398D01*
X37314Y-60398D01*
X37222Y-60436D01*
X37152Y-60506D01*
X36816Y-60506D01*
X36700Y-60389D01*
X36700Y-59685D01*
X36700Y-59150D01*
X36700Y-59050D01*
X36700Y-58514D01*
X36599Y-58467D01*
X36368Y-58573D01*
X36196Y-58759D01*
X36117Y-58949D01*
X36164Y-59050D01*
X36700Y-59050D01*
X36700Y-59150D01*
X36164Y-59150D01*
X36117Y-59250D01*
X36196Y-59440D01*
X36368Y-59626D01*
X36599Y-59732D01*
X36700Y-59685D01*
X36700Y-60389D01*
X36665Y-60354D01*
X36428Y-60256D01*
X36172Y-60256D01*
X35935Y-60353D01*
X35754Y-60534D01*
X35656Y-60771D01*
X35656Y-61027D01*
X35753Y-61264D01*
X35889Y-61400D01*
X35754Y-61534D01*
X35656Y-61771D01*
X35656Y-62027D01*
X35688Y-62106D01*
X35596Y-62144D01*
X35494Y-62245D01*
X35440Y-62378D01*
X35439Y-62521D01*
X35494Y-62653D01*
X35595Y-62755D01*
X35728Y-62809D01*
X35754Y-62809D01*
X35754Y-63007D01*
X35837Y-63208D01*
X35969Y-63340D01*
X35935Y-63353D01*
X35754Y-63534D01*
X35656Y-63771D01*
X35656Y-64027D01*
X35753Y-64264D01*
X35889Y-64400D01*
X35754Y-64534D01*
X35656Y-64771D01*
X35656Y-65027D01*
X35753Y-65264D01*
X35934Y-65445D01*
X36171Y-65543D01*
X36427Y-65543D01*
X36664Y-65446D01*
X36845Y-65265D01*
X36943Y-65028D01*
X36943Y-64772D01*
X36916Y-64707D01*
X37162Y-64462D01*
X37162Y-64462D01*
X37227Y-64364D01*
X37227Y-64364D01*
X37245Y-64272D01*
X37314Y-64301D01*
X37413Y-64301D01*
X37885Y-64301D01*
X37977Y-64263D01*
X38047Y-64194D01*
X38269Y-64194D01*
X38454Y-64379D01*
X38360Y-64397D01*
X38262Y-64462D01*
X37087Y-65637D01*
X37022Y-65735D01*
X37000Y-65850D01*
X37000Y-66993D01*
X36975Y-66982D01*
X36975Y-66296D01*
X36895Y-66103D01*
X36747Y-65955D01*
X36554Y-65875D01*
X36346Y-65874D01*
X36153Y-65954D01*
X36005Y-66102D01*
X35952Y-66228D01*
X35910Y-66127D01*
X35817Y-66102D01*
X35747Y-66173D01*
X35747Y-66032D01*
X35722Y-65939D01*
X35525Y-65870D01*
X35317Y-65881D01*
X35177Y-65939D01*
X35152Y-66032D01*
X35450Y-66329D01*
X35747Y-66032D01*
X35747Y-66173D01*
X35520Y-66400D01*
X35817Y-66697D01*
X35910Y-66672D01*
X35949Y-66562D01*
X36004Y-66697D01*
X36152Y-66844D01*
X36345Y-66924D01*
X36553Y-66925D01*
X36747Y-66845D01*
X36894Y-66697D01*
X36974Y-66504D01*
X36975Y-66296D01*
X36975Y-66982D01*
X36871Y-66940D01*
X36728Y-66939D01*
X36596Y-66994D01*
X36494Y-67095D01*
X36440Y-67228D01*
X36439Y-67371D01*
X36494Y-67503D01*
X36500Y-67509D01*
X36500Y-68350D01*
X36522Y-68464D01*
X36587Y-68562D01*
X36589Y-68564D01*
X36589Y-68571D01*
X36644Y-68703D01*
X36725Y-68784D01*
X36699Y-68789D01*
X36699Y-68789D01*
X36628Y-68789D01*
X36496Y-68844D01*
X36394Y-68945D01*
X36340Y-69078D01*
X36339Y-69221D01*
X36394Y-69353D01*
X36495Y-69455D01*
X36628Y-69509D01*
X36771Y-69510D01*
X36903Y-69455D01*
X36984Y-69375D01*
X37255Y-69375D01*
X37255Y-69380D01*
X37293Y-69472D01*
X37363Y-69542D01*
X37412Y-69563D01*
X37432Y-69660D01*
X37494Y-69755D01*
X37794Y-70055D01*
X37889Y-70117D01*
X38000Y-70139D01*
X38188Y-70139D01*
X38194Y-70153D01*
X38295Y-70255D01*
X38428Y-70309D01*
X38571Y-70310D01*
X38614Y-70292D01*
X38701Y-70378D01*
X38865Y-70446D01*
X39043Y-70447D01*
X39207Y-70379D01*
X39249Y-70337D01*
X39291Y-70378D01*
X39455Y-70446D01*
X39633Y-70447D01*
X39797Y-70379D01*
X39923Y-70253D01*
X39991Y-70089D01*
X39992Y-69911D01*
X39924Y-69747D01*
X39863Y-69686D01*
X39968Y-69581D01*
X40394Y-69581D01*
X40486Y-69542D01*
X40556Y-69472D01*
X40595Y-69380D01*
X40595Y-69281D01*
X40595Y-68769D01*
X40566Y-68700D01*
X40595Y-68630D01*
X40595Y-68516D01*
X40685Y-68577D01*
X40800Y-68600D01*
X40943Y-68600D01*
X40944Y-68603D01*
X41045Y-68705D01*
X41178Y-68759D01*
X41321Y-68760D01*
X41453Y-68705D01*
X41555Y-68604D01*
X41609Y-68471D01*
X41610Y-68328D01*
X41555Y-68196D01*
X41454Y-68094D01*
X41321Y-68040D01*
X41290Y-68040D01*
X41264Y-68022D01*
X41158Y-68001D01*
X41267Y-67928D01*
X41352Y-67801D01*
X41374Y-67849D01*
X41544Y-68004D01*
X41708Y-68072D01*
X41800Y-68025D01*
X41800Y-67550D01*
X41792Y-67550D01*
X41792Y-67450D01*
X41800Y-67450D01*
X41800Y-67442D01*
X41900Y-67442D01*
X41900Y-67450D01*
X41907Y-67450D01*
X41907Y-67550D01*
X41900Y-67550D01*
X41900Y-68025D01*
X41991Y-68072D01*
X42155Y-68004D01*
X42250Y-67918D01*
X42250Y-69450D01*
X42250Y-69450D01*
G37*
G54D38*
X42250Y-69450D02*
X41750Y-69450D01*
X41750Y-69679D01*
X41711Y-69717D01*
X41685Y-69622D01*
X41480Y-69549D01*
X41263Y-69560D01*
X41114Y-69622D01*
X41088Y-69717D01*
X41400Y-70029D01*
X41405Y-70023D01*
X41476Y-70094D01*
X41470Y-70100D01*
X41476Y-70105D01*
X41405Y-70176D01*
X41400Y-70170D01*
X41329Y-70241D01*
X41329Y-70100D01*
X41017Y-69788D01*
X40922Y-69814D01*
X40849Y-70019D01*
X40860Y-70236D01*
X40922Y-70385D01*
X41017Y-70411D01*
X41329Y-70100D01*
X41329Y-70241D01*
X41088Y-70482D01*
X41114Y-70577D01*
X41180Y-70600D01*
X41091Y-70637D01*
X40938Y-70790D01*
X40854Y-70991D01*
X40854Y-71207D01*
X40937Y-71408D01*
X41090Y-71561D01*
X41291Y-71645D01*
X41507Y-71645D01*
X41708Y-71562D01*
X41750Y-71521D01*
X41750Y-71850D01*
X35747Y-71850D01*
X35747Y-66767D01*
X35450Y-66470D01*
X35152Y-66767D01*
X35177Y-66860D01*
X35374Y-66929D01*
X35582Y-66918D01*
X35722Y-66860D01*
X35747Y-66767D01*
X35747Y-71850D01*
X35550Y-71850D01*
X35550Y-70292D01*
X35390Y-69905D01*
X35095Y-69610D01*
X34709Y-69450D01*
X34292Y-69449D01*
X33905Y-69609D01*
X33610Y-69904D01*
X33450Y-70290D01*
X33449Y-70707D01*
X33609Y-71094D01*
X33904Y-71389D01*
X34290Y-71549D01*
X34707Y-71550D01*
X35094Y-71390D01*
X35389Y-71095D01*
X35549Y-70709D01*
X35550Y-70292D01*
X35550Y-71850D01*
X33400Y-71850D01*
X33400Y-66925D01*
X33774Y-66925D01*
X33866Y-66886D01*
X33936Y-66816D01*
X33975Y-66724D01*
X33975Y-66625D01*
X33975Y-66625D01*
X34004Y-66697D01*
X34152Y-66844D01*
X34345Y-66924D01*
X34553Y-66925D01*
X34747Y-66845D01*
X34894Y-66697D01*
X34947Y-66571D01*
X34989Y-66672D01*
X35082Y-66697D01*
X35379Y-66400D01*
X35082Y-66102D01*
X34989Y-66127D01*
X34950Y-66237D01*
X34943Y-66220D01*
X34943Y-63540D01*
X34943Y-63440D01*
X34943Y-63012D01*
X34943Y-62787D01*
X34943Y-62359D01*
X34943Y-62259D01*
X34905Y-62167D01*
X34835Y-62097D01*
X34743Y-62059D01*
X34412Y-62059D01*
X34350Y-62121D01*
X34350Y-62850D01*
X34881Y-62850D01*
X34943Y-62787D01*
X34943Y-63012D01*
X34881Y-62950D01*
X34350Y-62950D01*
X34350Y-63678D01*
X34412Y-63740D01*
X34743Y-63740D01*
X34835Y-63702D01*
X34905Y-63632D01*
X34943Y-63540D01*
X34943Y-66220D01*
X34895Y-66103D01*
X34747Y-65955D01*
X34554Y-65875D01*
X34346Y-65874D01*
X34153Y-65954D01*
X34005Y-66102D01*
X33975Y-66174D01*
X33975Y-66075D01*
X33936Y-65983D01*
X33866Y-65913D01*
X33774Y-65875D01*
X33675Y-65875D01*
X33400Y-65875D01*
X33400Y-65445D01*
X33407Y-65445D01*
X33608Y-65362D01*
X33761Y-65209D01*
X33799Y-65117D01*
X33837Y-65208D01*
X33990Y-65361D01*
X34191Y-65445D01*
X34407Y-65445D01*
X34608Y-65362D01*
X34761Y-65209D01*
X34845Y-65008D01*
X34845Y-64792D01*
X34762Y-64591D01*
X34609Y-64438D01*
X34408Y-64354D01*
X34250Y-64354D01*
X34250Y-63678D01*
X34250Y-62950D01*
X34250Y-62850D01*
X34250Y-62121D01*
X34187Y-62059D01*
X33856Y-62059D01*
X33764Y-62097D01*
X33694Y-62167D01*
X33656Y-62259D01*
X33656Y-62359D01*
X33656Y-62787D01*
X33718Y-62850D01*
X34250Y-62850D01*
X34250Y-62950D01*
X33718Y-62950D01*
X33656Y-63012D01*
X33656Y-63440D01*
X33656Y-63540D01*
X33694Y-63632D01*
X33764Y-63702D01*
X33856Y-63740D01*
X34187Y-63740D01*
X34250Y-63678D01*
X34250Y-64354D01*
X34192Y-64354D01*
X33991Y-64437D01*
X33838Y-64590D01*
X33800Y-64682D01*
X33762Y-64591D01*
X33609Y-64438D01*
X33408Y-64354D01*
X33400Y-64354D01*
X33400Y-61445D01*
X33407Y-61445D01*
X33608Y-61362D01*
X33761Y-61209D01*
X33799Y-61117D01*
X33837Y-61208D01*
X33990Y-61361D01*
X34191Y-61445D01*
X34407Y-61445D01*
X34608Y-61362D01*
X34761Y-61209D01*
X34845Y-61008D01*
X34845Y-60792D01*
X34762Y-60591D01*
X34609Y-60438D01*
X34408Y-60354D01*
X34192Y-60354D01*
X33991Y-60437D01*
X33838Y-60590D01*
X33800Y-60682D01*
X33762Y-60591D01*
X33609Y-60438D01*
X33408Y-60354D01*
X33400Y-60354D01*
X33400Y-57600D01*
X34291Y-57600D01*
X33905Y-57759D01*
X33610Y-58054D01*
X33450Y-58440D01*
X33449Y-58857D01*
X33609Y-59244D01*
X33904Y-59539D01*
X34290Y-59699D01*
X34707Y-59700D01*
X35094Y-59540D01*
X35389Y-59245D01*
X35549Y-58859D01*
X35550Y-58442D01*
X35390Y-58055D01*
X35095Y-57760D01*
X34709Y-57600D01*
X34500Y-57600D01*
X42250Y-57600D01*
X42250Y-60983D01*
X42250Y-61300D01*
X42250Y-61400D01*
X42250Y-61716D01*
X42250Y-61920D01*
X42150Y-61920D01*
X42150Y-61716D01*
X42150Y-61400D01*
X42150Y-61300D01*
X42150Y-60983D01*
X42087Y-60920D01*
X41925Y-60920D01*
X41833Y-60958D01*
X41763Y-61029D01*
X41725Y-61121D01*
X41725Y-61220D01*
X41725Y-61237D01*
X41788Y-61300D01*
X42150Y-61300D01*
X42150Y-61400D01*
X41788Y-61400D01*
X41725Y-61462D01*
X41725Y-61479D01*
X41725Y-61578D01*
X41763Y-61670D01*
X41833Y-61741D01*
X41925Y-61779D01*
X42087Y-61779D01*
X42150Y-61716D01*
X42150Y-61920D01*
X41925Y-61920D01*
X41833Y-61958D01*
X41763Y-62029D01*
X41725Y-62121D01*
X41725Y-62220D01*
X41725Y-62400D01*
X41281Y-62843D01*
X41216Y-62941D01*
X41194Y-63056D01*
X41194Y-63352D01*
X41124Y-63422D01*
X41099Y-63481D01*
X41075Y-63422D01*
X41005Y-63352D01*
X40913Y-63314D01*
X40813Y-63314D01*
X40498Y-63314D01*
X40406Y-63352D01*
X40336Y-63422D01*
X40298Y-63514D01*
X40298Y-63613D01*
X40298Y-64085D01*
X40336Y-64177D01*
X40406Y-64247D01*
X40498Y-64286D01*
X40550Y-64286D01*
X40550Y-64910D01*
X40460Y-64910D01*
X40368Y-64948D01*
X40298Y-65018D01*
X40281Y-65059D01*
X40281Y-65055D01*
X40242Y-64963D01*
X40172Y-64893D01*
X40080Y-64855D01*
X39981Y-64855D01*
X39779Y-64855D01*
X39535Y-64610D01*
X39535Y-64603D01*
X39480Y-64471D01*
X39379Y-64369D01*
X39246Y-64315D01*
X39239Y-64315D01*
X38606Y-63681D01*
X38508Y-63616D01*
X38394Y-63594D01*
X38047Y-63594D01*
X37977Y-63524D01*
X37918Y-63499D01*
X37977Y-63475D01*
X38047Y-63405D01*
X38086Y-63313D01*
X38086Y-63213D01*
X38086Y-62898D01*
X38047Y-62806D01*
X37977Y-62736D01*
X37885Y-62698D01*
X37786Y-62698D01*
X37357Y-62698D01*
X37412Y-62662D01*
X37649Y-62425D01*
X38265Y-62425D01*
X38295Y-62455D01*
X38428Y-62509D01*
X38571Y-62510D01*
X38703Y-62455D01*
X38805Y-62354D01*
X38859Y-62221D01*
X38860Y-62078D01*
X38805Y-61946D01*
X38704Y-61844D01*
X38571Y-61790D01*
X38428Y-61789D01*
X38400Y-61801D01*
X38400Y-59549D01*
X38400Y-59450D01*
X38400Y-58650D01*
X38361Y-58558D01*
X38291Y-58488D01*
X38199Y-58450D01*
X38100Y-58450D01*
X37300Y-58450D01*
X37208Y-58488D01*
X37138Y-58558D01*
X37131Y-58573D01*
X37131Y-58573D01*
X36900Y-58467D01*
X36800Y-58514D01*
X36800Y-59050D01*
X36807Y-59050D01*
X36807Y-59150D01*
X36800Y-59150D01*
X36800Y-59685D01*
X36900Y-59732D01*
X37131Y-59626D01*
X37131Y-59626D01*
X37138Y-59641D01*
X37208Y-59711D01*
X37300Y-59750D01*
X37399Y-59750D01*
X38199Y-59750D01*
X38291Y-59711D01*
X38361Y-59641D01*
X38400Y-59549D01*
X38400Y-61801D01*
X38343Y-61825D01*
X38076Y-61825D01*
X38086Y-61801D01*
X38086Y-61701D01*
X38086Y-61386D01*
X38047Y-61294D01*
X37977Y-61224D01*
X37918Y-61199D01*
X37977Y-61175D01*
X38047Y-61105D01*
X38086Y-61013D01*
X38086Y-60913D01*
X38086Y-60598D01*
X38047Y-60506D01*
X37977Y-60436D01*
X37885Y-60398D01*
X37786Y-60398D01*
X37314Y-60398D01*
X37222Y-60436D01*
X37152Y-60506D01*
X36816Y-60506D01*
X36700Y-60389D01*
X36700Y-59685D01*
X36700Y-59150D01*
X36700Y-59050D01*
X36700Y-58514D01*
X36599Y-58467D01*
X36368Y-58573D01*
X36196Y-58759D01*
X36117Y-58949D01*
X36164Y-59050D01*
X36700Y-59050D01*
X36700Y-59150D01*
X36164Y-59150D01*
X36117Y-59250D01*
X36196Y-59440D01*
X36368Y-59626D01*
X36599Y-59732D01*
X36700Y-59685D01*
X36700Y-60389D01*
X36665Y-60354D01*
X36428Y-60256D01*
X36172Y-60256D01*
X35935Y-60353D01*
X35754Y-60534D01*
X35656Y-60771D01*
X35656Y-61027D01*
X35753Y-61264D01*
X35889Y-61400D01*
X35754Y-61534D01*
X35656Y-61771D01*
X35656Y-62027D01*
X35688Y-62106D01*
X35596Y-62144D01*
X35494Y-62245D01*
X35440Y-62378D01*
X35439Y-62521D01*
X35494Y-62653D01*
X35595Y-62755D01*
X35728Y-62809D01*
X35754Y-62809D01*
X35754Y-63007D01*
X35837Y-63208D01*
X35969Y-63340D01*
X35935Y-63353D01*
X35754Y-63534D01*
X35656Y-63771D01*
X35656Y-64027D01*
X35753Y-64264D01*
X35889Y-64400D01*
X35754Y-64534D01*
X35656Y-64771D01*
X35656Y-65027D01*
X35753Y-65264D01*
X35934Y-65445D01*
X36171Y-65543D01*
X36427Y-65543D01*
X36664Y-65446D01*
X36845Y-65265D01*
X36943Y-65028D01*
X36943Y-64772D01*
X36916Y-64707D01*
X37162Y-64462D01*
X37162Y-64462D01*
X37227Y-64364D01*
X37227Y-64364D01*
X37245Y-64272D01*
X37314Y-64301D01*
X37413Y-64301D01*
X37885Y-64301D01*
X37977Y-64263D01*
X38047Y-64194D01*
X38269Y-64194D01*
X38454Y-64379D01*
X38360Y-64397D01*
X38262Y-64462D01*
X37087Y-65637D01*
X37022Y-65735D01*
X37000Y-65850D01*
X37000Y-66993D01*
X36975Y-66982D01*
X36975Y-66296D01*
X36895Y-66103D01*
X36747Y-65955D01*
X36554Y-65875D01*
X36346Y-65874D01*
X36153Y-65954D01*
X36005Y-66102D01*
X35952Y-66228D01*
X35910Y-66127D01*
X35817Y-66102D01*
X35747Y-66173D01*
X35747Y-66032D01*
X35722Y-65939D01*
X35525Y-65870D01*
X35317Y-65881D01*
X35177Y-65939D01*
X35152Y-66032D01*
X35450Y-66329D01*
X35747Y-66032D01*
X35747Y-66173D01*
X35520Y-66400D01*
X35817Y-66697D01*
X35910Y-66672D01*
X35949Y-66562D01*
X36004Y-66697D01*
X36152Y-66844D01*
X36345Y-66924D01*
X36553Y-66925D01*
X36747Y-66845D01*
X36894Y-66697D01*
X36974Y-66504D01*
X36975Y-66296D01*
X36975Y-66982D01*
X36871Y-66940D01*
X36728Y-66939D01*
X36596Y-66994D01*
X36494Y-67095D01*
X36440Y-67228D01*
X36439Y-67371D01*
X36494Y-67503D01*
X36500Y-67509D01*
X36500Y-68350D01*
X36522Y-68464D01*
X36587Y-68562D01*
X36589Y-68564D01*
X36589Y-68571D01*
X36644Y-68703D01*
X36725Y-68784D01*
X36699Y-68789D01*
X36699Y-68789D01*
X36628Y-68789D01*
X36496Y-68844D01*
X36394Y-68945D01*
X36340Y-69078D01*
X36339Y-69221D01*
X36394Y-69353D01*
X36495Y-69455D01*
X36628Y-69509D01*
X36771Y-69510D01*
X36903Y-69455D01*
X36984Y-69375D01*
X37255Y-69375D01*
X37255Y-69380D01*
X37293Y-69472D01*
X37363Y-69542D01*
X37412Y-69563D01*
X37432Y-69660D01*
X37494Y-69755D01*
X37794Y-70055D01*
X37889Y-70117D01*
X38000Y-70139D01*
X38188Y-70139D01*
X38194Y-70153D01*
X38295Y-70255D01*
X38428Y-70309D01*
X38571Y-70310D01*
X38614Y-70292D01*
X38701Y-70378D01*
X38865Y-70446D01*
X39043Y-70447D01*
X39207Y-70379D01*
X39249Y-70337D01*
X39291Y-70378D01*
X39455Y-70446D01*
X39633Y-70447D01*
X39797Y-70379D01*
X39923Y-70253D01*
X39991Y-70089D01*
X39992Y-69911D01*
X39924Y-69747D01*
X39863Y-69686D01*
X39968Y-69581D01*
X40394Y-69581D01*
X40486Y-69542D01*
X40556Y-69472D01*
X40595Y-69380D01*
X40595Y-69281D01*
X40595Y-68769D01*
X40566Y-68700D01*
X40595Y-68630D01*
X40595Y-68516D01*
X40685Y-68577D01*
X40800Y-68600D01*
X40943Y-68600D01*
X40944Y-68603D01*
X41045Y-68705D01*
X41178Y-68759D01*
X41321Y-68760D01*
X41453Y-68705D01*
X41555Y-68604D01*
X41609Y-68471D01*
X41610Y-68328D01*
X41555Y-68196D01*
X41454Y-68094D01*
X41321Y-68040D01*
X41290Y-68040D01*
X41264Y-68022D01*
X41158Y-68001D01*
X41267Y-67928D01*
X41352Y-67801D01*
X41374Y-67849D01*
X41544Y-68004D01*
X41708Y-68072D01*
X41800Y-68025D01*
X41800Y-67550D01*
X41792Y-67550D01*
X41792Y-67450D01*
X41800Y-67450D01*
X41800Y-67442D01*
X41900Y-67442D01*
X41900Y-67450D01*
X41907Y-67450D01*
X41907Y-67550D01*
X41900Y-67550D01*
X41900Y-68025D01*
X41991Y-68072D01*
X42155Y-68004D01*
X42250Y-67918D01*
X42250Y-69450D01*
G54D10*
G36*
X51200Y-64129D02*
X50829Y-64500D01*
X49929Y-64500D01*
X49614Y-64814D01*
X48979Y-65450D01*
X46783Y-65450D01*
X48600Y-64378D01*
X48600Y-63820D01*
X49420Y-63000D01*
X49929Y-63000D01*
X50179Y-63250D01*
X50750Y-63250D01*
X51200Y-63250D01*
X51200Y-64129D01*
X51200Y-64129D01*
G37*
G54D38*
X51200Y-64129D02*
X50829Y-64500D01*
X49929Y-64500D01*
X49614Y-64814D01*
X48979Y-65450D01*
X46783Y-65450D01*
X48600Y-64378D01*
X48600Y-63820D01*
X49420Y-63000D01*
X49929Y-63000D01*
X50179Y-63250D01*
X50750Y-63250D01*
X51200Y-63250D01*
X51200Y-64129D01*
M02*
