G04 #@! TF.FileFunction,Legend,Top*
%FSLAX46Y46*%
G04 Gerber Fmt 4.6, Leading zero omitted, Abs format (unit mm)*
G04 Created by KiCad (PCBNEW (after 2015-mar-04 BZR unknown)-product) date Wed 10 Jun 2015 04:01:36 PM EDT*
%MOMM*%
G01*
G04 APERTURE LIST*
%ADD10C,0.150000*%
%ADD11C,0.200000*%
%ADD12C,0.254000*%
%ADD13C,0.127000*%
%ADD14C,0.066040*%
%ADD15C,0.101600*%
%ADD16C,0.304800*%
%ADD17C,0.381000*%
%ADD18C,0.203200*%
%ADD19C,0.060960*%
%ADD20C,0.040640*%
G04 APERTURE END LIST*
D10*
D11*
X83185000Y-144526000D02*
X132842000Y-144526000D01*
X119253000Y-174498000D02*
X119253000Y-167894000D01*
D12*
X105029000Y-165100000D02*
X105029000Y-167640000D01*
X105029000Y-167640000D02*
X102489000Y-167640000D01*
X102489000Y-165100000D02*
X102489000Y-172720000D01*
X102489000Y-172720000D02*
X107569000Y-172720000D01*
X107569000Y-172720000D02*
X107569000Y-167640000D01*
X102489000Y-165100000D02*
X105029000Y-165100000D01*
X107569000Y-165100000D02*
X105029000Y-165100000D01*
X107569000Y-167640000D02*
X107569000Y-165100000D01*
D13*
X99441000Y-166751000D02*
X99441000Y-165481000D01*
X100711000Y-166751000D02*
X100711000Y-165506400D01*
X101092000Y-166751000D02*
X99060000Y-166751000D01*
X99060000Y-166751000D02*
X99060000Y-165481000D01*
X99060000Y-165481000D02*
X101092000Y-165481000D01*
X101092000Y-165481000D02*
X101092000Y-166751000D01*
D14*
X85021420Y-171645580D02*
X85021420Y-170746420D01*
X85021420Y-170746420D02*
X84622640Y-170746420D01*
X84622640Y-171645580D02*
X84622640Y-170746420D01*
X85021420Y-171645580D02*
X84622640Y-171645580D01*
X86319360Y-171645580D02*
X86319360Y-170746420D01*
X86319360Y-170746420D02*
X85920580Y-170746420D01*
X85920580Y-171645580D02*
X85920580Y-170746420D01*
X86319360Y-171645580D02*
X85920580Y-171645580D01*
X85471000Y-171645580D02*
X85471000Y-171495720D01*
X85471000Y-171495720D02*
X85171280Y-171495720D01*
X85171280Y-171645580D02*
X85171280Y-171495720D01*
X85471000Y-171645580D02*
X85171280Y-171645580D01*
X85471000Y-170896280D02*
X85471000Y-170746420D01*
X85471000Y-170746420D02*
X85171280Y-170746420D01*
X85171280Y-170896280D02*
X85171280Y-170746420D01*
X85471000Y-170896280D02*
X85171280Y-170896280D01*
X85471000Y-171345860D02*
X85471000Y-171046140D01*
X85471000Y-171046140D02*
X85171280Y-171046140D01*
X85171280Y-171345860D02*
X85171280Y-171046140D01*
X85471000Y-171345860D02*
X85171280Y-171345860D01*
D15*
X85021420Y-171594780D02*
X85920580Y-171594780D01*
X85021420Y-170797220D02*
X85920580Y-170797220D01*
D14*
X85021420Y-173677580D02*
X85021420Y-172778420D01*
X85021420Y-172778420D02*
X84622640Y-172778420D01*
X84622640Y-173677580D02*
X84622640Y-172778420D01*
X85021420Y-173677580D02*
X84622640Y-173677580D01*
X86319360Y-173677580D02*
X86319360Y-172778420D01*
X86319360Y-172778420D02*
X85920580Y-172778420D01*
X85920580Y-173677580D02*
X85920580Y-172778420D01*
X86319360Y-173677580D02*
X85920580Y-173677580D01*
X85471000Y-173677580D02*
X85471000Y-173527720D01*
X85471000Y-173527720D02*
X85171280Y-173527720D01*
X85171280Y-173677580D02*
X85171280Y-173527720D01*
X85471000Y-173677580D02*
X85171280Y-173677580D01*
X85471000Y-172928280D02*
X85471000Y-172778420D01*
X85471000Y-172778420D02*
X85171280Y-172778420D01*
X85171280Y-172928280D02*
X85171280Y-172778420D01*
X85471000Y-172928280D02*
X85171280Y-172928280D01*
X85471000Y-173377860D02*
X85471000Y-173078140D01*
X85471000Y-173078140D02*
X85171280Y-173078140D01*
X85171280Y-173377860D02*
X85171280Y-173078140D01*
X85471000Y-173377860D02*
X85171280Y-173377860D01*
D15*
X85021420Y-173626780D02*
X85920580Y-173626780D01*
X85021420Y-172829220D02*
X85920580Y-172829220D01*
D10*
X118350000Y-174685000D02*
X118350000Y-169485000D01*
X118350000Y-169485000D02*
X122950000Y-169485000D01*
X122950000Y-169485000D02*
X122950000Y-174685000D01*
X122950000Y-174685000D02*
X118350000Y-174685000D01*
D14*
X85021420Y-175582580D02*
X85021420Y-174683420D01*
X85021420Y-174683420D02*
X84622640Y-174683420D01*
X84622640Y-175582580D02*
X84622640Y-174683420D01*
X85021420Y-175582580D02*
X84622640Y-175582580D01*
X86319360Y-175582580D02*
X86319360Y-174683420D01*
X86319360Y-174683420D02*
X85920580Y-174683420D01*
X85920580Y-175582580D02*
X85920580Y-174683420D01*
X86319360Y-175582580D02*
X85920580Y-175582580D01*
X85471000Y-175582580D02*
X85471000Y-175432720D01*
X85471000Y-175432720D02*
X85171280Y-175432720D01*
X85171280Y-175582580D02*
X85171280Y-175432720D01*
X85471000Y-175582580D02*
X85171280Y-175582580D01*
X85471000Y-174833280D02*
X85471000Y-174683420D01*
X85471000Y-174683420D02*
X85171280Y-174683420D01*
X85171280Y-174833280D02*
X85171280Y-174683420D01*
X85471000Y-174833280D02*
X85171280Y-174833280D01*
X85471000Y-175282860D02*
X85471000Y-174983140D01*
X85471000Y-174983140D02*
X85171280Y-174983140D01*
X85171280Y-175282860D02*
X85171280Y-174983140D01*
X85471000Y-175282860D02*
X85171280Y-175282860D01*
D15*
X85021420Y-175531780D02*
X85920580Y-175531780D01*
X85021420Y-174734220D02*
X85920580Y-174734220D01*
D16*
X124841000Y-154178000D02*
X132461000Y-154178000D01*
X124841000Y-169418000D02*
X132461000Y-169418000D01*
X126111000Y-154178000D02*
X126111000Y-169418000D01*
X132461000Y-154178000D02*
X132461000Y-169418000D01*
X124841000Y-154178000D02*
X124841000Y-169418000D01*
D10*
X83566000Y-154178000D02*
X95758000Y-154178000D01*
X95758000Y-154178000D02*
X95758000Y-165354000D01*
X95758000Y-165354000D02*
X83566000Y-165354000D01*
D16*
X83693000Y-167386000D02*
X83693000Y-167386000D01*
X83693000Y-169926000D02*
X83693000Y-167386000D01*
X83693000Y-167386000D02*
X83693000Y-167386000D01*
X83693000Y-167386000D02*
X93853000Y-167386000D01*
X93853000Y-167386000D02*
X93853000Y-169926000D01*
X93853000Y-169926000D02*
X83693000Y-169926000D01*
X86233000Y-169926000D02*
X86233000Y-167386000D01*
D17*
X103499920Y-180474620D02*
X103499920Y-179875180D01*
X103499920Y-179875180D02*
X99700080Y-179875180D01*
X99700080Y-179875180D02*
X99700080Y-180474620D01*
X99700080Y-181475380D02*
X99700080Y-182074820D01*
X99700080Y-182074820D02*
X103499920Y-182074820D01*
X103499920Y-182074820D02*
X103499920Y-181475380D01*
D18*
X97155000Y-158115000D02*
X97155000Y-161163000D01*
X97155000Y-161163000D02*
X104267000Y-161163000D01*
X104267000Y-161163000D02*
X104267000Y-158115000D01*
X97155000Y-155067000D02*
X97155000Y-154305000D01*
X97155000Y-154305000D02*
X98679000Y-152019000D01*
X98679000Y-152019000D02*
X102743000Y-152019000D01*
X102743000Y-152019000D02*
X104267000Y-154305000D01*
X104267000Y-154305000D02*
X104267000Y-155067000D01*
D17*
X122555000Y-154305000D02*
X123190000Y-154305000D01*
X123190000Y-154305000D02*
X123190000Y-164465000D01*
X123190000Y-164465000D02*
X122555000Y-164465000D01*
X118745000Y-154305000D02*
X122555000Y-154305000D01*
X122555000Y-154305000D02*
X122555000Y-164465000D01*
X122555000Y-164465000D02*
X118745000Y-164465000D01*
X118745000Y-164465000D02*
X118745000Y-154305000D01*
D10*
X114046000Y-181610000D02*
X106426000Y-181610000D01*
X106426000Y-181610000D02*
X106426000Y-177038000D01*
X106426000Y-177038000D02*
X114046000Y-177038000D01*
X114046000Y-177038000D02*
X114046000Y-181610000D01*
D17*
X100995480Y-178699160D02*
X100744020Y-178950620D01*
X100744020Y-178950620D02*
X100396040Y-179199540D01*
X100396040Y-179199540D02*
X99844860Y-179349400D01*
X99844860Y-179349400D02*
X99446080Y-179349400D01*
X99446080Y-179349400D02*
X98945700Y-179148740D01*
X98945700Y-179148740D02*
X98544380Y-178800760D01*
X100995480Y-176949100D02*
X100845620Y-176750980D01*
X100845620Y-176750980D02*
X100545900Y-176499520D01*
X100545900Y-176499520D02*
X100093780Y-176298860D01*
X100093780Y-176298860D02*
X99644200Y-176250600D01*
X99644200Y-176250600D02*
X99143820Y-176349660D01*
X99143820Y-176349660D02*
X98795840Y-176550320D01*
X98795840Y-176550320D02*
X98445320Y-176900840D01*
D12*
X94615000Y-151384000D02*
X94615000Y-148844000D01*
X97155000Y-151384000D02*
X97155000Y-148844000D01*
X97155000Y-148844000D02*
X94615000Y-148844000D01*
X94615000Y-148844000D02*
X92075000Y-148844000D01*
X92075000Y-148844000D02*
X92075000Y-151384000D01*
X92075000Y-151384000D02*
X97155000Y-151384000D01*
D10*
X95800000Y-168444000D02*
X96325000Y-168444000D01*
X101050000Y-173694000D02*
X100525000Y-173694000D01*
X101050000Y-168444000D02*
X100525000Y-168444000D01*
X95800000Y-173694000D02*
X95800000Y-173169000D01*
X101050000Y-173694000D02*
X101050000Y-173169000D01*
X101050000Y-168444000D02*
X101050000Y-168969000D01*
X95800000Y-168444000D02*
X95800000Y-168969000D01*
D17*
X89916000Y-148971000D02*
G75*
G03X89916000Y-148971000I-2286000J0D01*
G01*
X130556000Y-179070000D02*
G75*
G03X130556000Y-179070000I-2286000J0D01*
G01*
X89916000Y-179070000D02*
G75*
G03X89916000Y-179070000I-2286000J0D01*
G01*
X130048000Y-148971000D02*
G75*
G03X130048000Y-148971000I-2286000J0D01*
G01*
D13*
X89527380Y-171274740D02*
X89527380Y-174673260D01*
X88526620Y-174673260D02*
X88526620Y-171274740D01*
X88127840Y-171274740D02*
X88127840Y-174673260D01*
X89926160Y-174673260D02*
X89926160Y-171274740D01*
X88127840Y-171274740D02*
X89926160Y-171274740D01*
X88127840Y-174673260D02*
X89926160Y-174673260D01*
X88526620Y-172173900D02*
X89527380Y-172173900D01*
X88526620Y-172974000D02*
X89527380Y-172974000D01*
X88526620Y-173774100D02*
X89527380Y-173774100D01*
X88127840Y-171574460D02*
X88526620Y-171574460D01*
X89527380Y-171574460D02*
X89926160Y-171574460D01*
X88127840Y-171973240D02*
X88526620Y-171973240D01*
X89527380Y-171973240D02*
X89926160Y-171973240D01*
X89926160Y-172374560D02*
X89527380Y-172374560D01*
X88526620Y-172374560D02*
X88127840Y-172374560D01*
X88127840Y-172773340D02*
X88526620Y-172773340D01*
X89527380Y-172773340D02*
X89926160Y-172773340D01*
X89926160Y-173174660D02*
X89527380Y-173174660D01*
X88526620Y-173174660D02*
X88127840Y-173174660D01*
X88127840Y-173573440D02*
X88526620Y-173573440D01*
X89527380Y-173573440D02*
X89926160Y-173573440D01*
X89527380Y-174373540D02*
X89926160Y-174373540D01*
X89527380Y-173974760D02*
X89926160Y-173974760D01*
X88127840Y-173974760D02*
X88526620Y-173974760D01*
X88127840Y-174373540D02*
X88526620Y-174373540D01*
D17*
X99169220Y-183055260D02*
X99169220Y-179656740D01*
X91869260Y-179656740D02*
X97868740Y-179656740D01*
X91869260Y-183055260D02*
X97868740Y-183055260D01*
X99870260Y-184409080D02*
X99870260Y-183309260D01*
X100469700Y-183908700D02*
X99270820Y-183908700D01*
D10*
X114900000Y-160260000D02*
X113700000Y-160260000D01*
X113700000Y-158510000D02*
X114900000Y-158510000D01*
D18*
X109413524Y-169847381D02*
X108143524Y-169847381D01*
X108143524Y-169363572D01*
X108204000Y-169242619D01*
X108264476Y-169182143D01*
X108385429Y-169121667D01*
X108566857Y-169121667D01*
X108687810Y-169182143D01*
X108748286Y-169242619D01*
X108808762Y-169363572D01*
X108808762Y-169847381D01*
X108566857Y-168033095D02*
X109413524Y-168033095D01*
X108083048Y-168335476D02*
X108990190Y-168637857D01*
X108990190Y-167851667D01*
D19*
X100026046Y-167213643D02*
X100011774Y-167227915D01*
X99968957Y-167242188D01*
X99940412Y-167242188D01*
X99897595Y-167227915D01*
X99869050Y-167199370D01*
X99854778Y-167170826D01*
X99840506Y-167113736D01*
X99840506Y-167070919D01*
X99854778Y-167013830D01*
X99869050Y-166985285D01*
X99897595Y-166956740D01*
X99940412Y-166942468D01*
X99968957Y-166942468D01*
X100011774Y-166956740D01*
X100026046Y-166971012D01*
X100282949Y-167042374D02*
X100282949Y-167242188D01*
X100211587Y-166928195D02*
X100140226Y-167142281D01*
X100325766Y-167142281D01*
D13*
X85096047Y-172441810D02*
X85096047Y-171933810D01*
X85217000Y-171933810D01*
X85289571Y-171958000D01*
X85337952Y-172006381D01*
X85362143Y-172054762D01*
X85386333Y-172151524D01*
X85386333Y-172224095D01*
X85362143Y-172320857D01*
X85337952Y-172369238D01*
X85289571Y-172417619D01*
X85217000Y-172441810D01*
X85096047Y-172441810D01*
X85870143Y-172441810D02*
X85579857Y-172441810D01*
X85725000Y-172441810D02*
X85725000Y-171933810D01*
X85676619Y-172006381D01*
X85628238Y-172054762D01*
X85579857Y-172078952D01*
X83535762Y-170155810D02*
X83293857Y-170155810D01*
X83293857Y-169647810D01*
X83705095Y-169889714D02*
X83874429Y-169889714D01*
X83947000Y-170155810D02*
X83705095Y-170155810D01*
X83705095Y-169647810D01*
X83947000Y-169647810D01*
X84164714Y-170155810D02*
X84164714Y-169647810D01*
X84285667Y-169647810D01*
X84358238Y-169672000D01*
X84406619Y-169720381D01*
X84430810Y-169768762D01*
X84455000Y-169865524D01*
X84455000Y-169938095D01*
X84430810Y-170034857D01*
X84406619Y-170083238D01*
X84358238Y-170131619D01*
X84285667Y-170155810D01*
X84164714Y-170155810D01*
X84672714Y-169962286D02*
X85059762Y-169962286D01*
X85374238Y-170155810D02*
X85325857Y-170131619D01*
X85301666Y-170107429D01*
X85277476Y-170059048D01*
X85277476Y-169913905D01*
X85301666Y-169865524D01*
X85325857Y-169841333D01*
X85374238Y-169817143D01*
X85446809Y-169817143D01*
X85495190Y-169841333D01*
X85519381Y-169865524D01*
X85543571Y-169913905D01*
X85543571Y-170059048D01*
X85519381Y-170107429D01*
X85495190Y-170131619D01*
X85446809Y-170155810D01*
X85374238Y-170155810D01*
X85761285Y-170155810D02*
X85761285Y-169817143D01*
X85761285Y-169913905D02*
X85785476Y-169865524D01*
X85809666Y-169841333D01*
X85858047Y-169817143D01*
X85906428Y-169817143D01*
X86293476Y-170155810D02*
X86293476Y-169889714D01*
X86269285Y-169841333D01*
X86220904Y-169817143D01*
X86124142Y-169817143D01*
X86075761Y-169841333D01*
X86293476Y-170131619D02*
X86245095Y-170155810D01*
X86124142Y-170155810D01*
X86075761Y-170131619D01*
X86051571Y-170083238D01*
X86051571Y-170034857D01*
X86075761Y-169986476D01*
X86124142Y-169962286D01*
X86245095Y-169962286D01*
X86293476Y-169938095D01*
X86535380Y-169817143D02*
X86535380Y-170155810D01*
X86535380Y-169865524D02*
X86559571Y-169841333D01*
X86607952Y-169817143D01*
X86680523Y-169817143D01*
X86728904Y-169841333D01*
X86753095Y-169889714D01*
X86753095Y-170155810D01*
X87212714Y-169817143D02*
X87212714Y-170228381D01*
X87188523Y-170276762D01*
X87164333Y-170300952D01*
X87115952Y-170325143D01*
X87043380Y-170325143D01*
X86994999Y-170300952D01*
X87212714Y-170131619D02*
X87164333Y-170155810D01*
X87067571Y-170155810D01*
X87019190Y-170131619D01*
X86994999Y-170107429D01*
X86970809Y-170059048D01*
X86970809Y-169913905D01*
X86994999Y-169865524D01*
X87019190Y-169841333D01*
X87067571Y-169817143D01*
X87164333Y-169817143D01*
X87212714Y-169841333D01*
X87648142Y-170131619D02*
X87599761Y-170155810D01*
X87502999Y-170155810D01*
X87454618Y-170131619D01*
X87430428Y-170083238D01*
X87430428Y-169889714D01*
X87454618Y-169841333D01*
X87502999Y-169817143D01*
X87599761Y-169817143D01*
X87648142Y-169841333D01*
X87672333Y-169889714D01*
X87672333Y-169938095D01*
X87430428Y-169986476D01*
X85096047Y-174473810D02*
X85096047Y-173965810D01*
X85217000Y-173965810D01*
X85289571Y-173990000D01*
X85337952Y-174038381D01*
X85362143Y-174086762D01*
X85386333Y-174183524D01*
X85386333Y-174256095D01*
X85362143Y-174352857D01*
X85337952Y-174401238D01*
X85289571Y-174449619D01*
X85217000Y-174473810D01*
X85096047Y-174473810D01*
X85579857Y-174014190D02*
X85604047Y-173990000D01*
X85652428Y-173965810D01*
X85773381Y-173965810D01*
X85821762Y-173990000D01*
X85845952Y-174014190D01*
X85870143Y-174062571D01*
X85870143Y-174110952D01*
X85845952Y-174183524D01*
X85555666Y-174473810D01*
X85870143Y-174473810D01*
X83795810Y-174921333D02*
X83795810Y-175163238D01*
X83287810Y-175163238D01*
X83529714Y-174752000D02*
X83529714Y-174582666D01*
X83795810Y-174510095D02*
X83795810Y-174752000D01*
X83287810Y-174752000D01*
X83287810Y-174510095D01*
X83795810Y-174292381D02*
X83287810Y-174292381D01*
X83287810Y-174171428D01*
X83312000Y-174098857D01*
X83360381Y-174050476D01*
X83408762Y-174026285D01*
X83505524Y-174002095D01*
X83578095Y-174002095D01*
X83674857Y-174026285D01*
X83723238Y-174050476D01*
X83771619Y-174098857D01*
X83795810Y-174171428D01*
X83795810Y-174292381D01*
X83602286Y-173784381D02*
X83602286Y-173397333D01*
X83457143Y-172937714D02*
X83868381Y-172937714D01*
X83916762Y-172961905D01*
X83940952Y-172986095D01*
X83965143Y-173034476D01*
X83965143Y-173107048D01*
X83940952Y-173155429D01*
X83771619Y-172937714D02*
X83795810Y-172986095D01*
X83795810Y-173082857D01*
X83771619Y-173131238D01*
X83747429Y-173155429D01*
X83699048Y-173179619D01*
X83553905Y-173179619D01*
X83505524Y-173155429D01*
X83481333Y-173131238D01*
X83457143Y-173082857D01*
X83457143Y-172986095D01*
X83481333Y-172937714D01*
X83795810Y-172695810D02*
X83457143Y-172695810D01*
X83553905Y-172695810D02*
X83505524Y-172671619D01*
X83481333Y-172647429D01*
X83457143Y-172599048D01*
X83457143Y-172550667D01*
X83771619Y-172187810D02*
X83795810Y-172236191D01*
X83795810Y-172332953D01*
X83771619Y-172381334D01*
X83723238Y-172405524D01*
X83529714Y-172405524D01*
X83481333Y-172381334D01*
X83457143Y-172332953D01*
X83457143Y-172236191D01*
X83481333Y-172187810D01*
X83529714Y-172163619D01*
X83578095Y-172163619D01*
X83626476Y-172405524D01*
X83771619Y-171752381D02*
X83795810Y-171800762D01*
X83795810Y-171897524D01*
X83771619Y-171945905D01*
X83723238Y-171970095D01*
X83529714Y-171970095D01*
X83481333Y-171945905D01*
X83457143Y-171897524D01*
X83457143Y-171800762D01*
X83481333Y-171752381D01*
X83529714Y-171728190D01*
X83578095Y-171728190D01*
X83626476Y-171970095D01*
X83457143Y-171510476D02*
X83795810Y-171510476D01*
X83505524Y-171510476D02*
X83481333Y-171486285D01*
X83457143Y-171437904D01*
X83457143Y-171365333D01*
X83481333Y-171316952D01*
X83529714Y-171292761D01*
X83795810Y-171292761D01*
D10*
X116022381Y-172823095D02*
X115022381Y-172823095D01*
X115022381Y-172585000D01*
X115070000Y-172442142D01*
X115165238Y-172346904D01*
X115260476Y-172299285D01*
X115450952Y-172251666D01*
X115593810Y-172251666D01*
X115784286Y-172299285D01*
X115879524Y-172346904D01*
X115974762Y-172442142D01*
X116022381Y-172585000D01*
X116022381Y-172823095D01*
X115022381Y-171918333D02*
X115022381Y-171299285D01*
X115403333Y-171632619D01*
X115403333Y-171489761D01*
X115450952Y-171394523D01*
X115498571Y-171346904D01*
X115593810Y-171299285D01*
X115831905Y-171299285D01*
X115927143Y-171346904D01*
X115974762Y-171394523D01*
X116022381Y-171489761D01*
X116022381Y-171775476D01*
X115974762Y-171870714D01*
X115927143Y-171918333D01*
X118530953Y-167949571D02*
X118673810Y-167997190D01*
X118721429Y-168044810D01*
X118769048Y-168140048D01*
X118769048Y-168282905D01*
X118721429Y-168378143D01*
X118673810Y-168425762D01*
X118578572Y-168473381D01*
X118197619Y-168473381D01*
X118197619Y-167473381D01*
X118530953Y-167473381D01*
X118626191Y-167521000D01*
X118673810Y-167568619D01*
X118721429Y-167663857D01*
X118721429Y-167759095D01*
X118673810Y-167854333D01*
X118626191Y-167901952D01*
X118530953Y-167949571D01*
X118197619Y-167949571D01*
X119769048Y-168473381D02*
X119435714Y-167997190D01*
X119197619Y-168473381D02*
X119197619Y-167473381D01*
X119578572Y-167473381D01*
X119673810Y-167521000D01*
X119721429Y-167568619D01*
X119769048Y-167663857D01*
X119769048Y-167806714D01*
X119721429Y-167901952D01*
X119673810Y-167949571D01*
X119578572Y-167997190D01*
X119197619Y-167997190D01*
X120197619Y-168473381D02*
X120197619Y-167473381D01*
X120673809Y-168473381D02*
X120673809Y-167473381D01*
X120911904Y-167473381D01*
X121054762Y-167521000D01*
X121150000Y-167616238D01*
X121197619Y-167711476D01*
X121245238Y-167901952D01*
X121245238Y-168044810D01*
X121197619Y-168235286D01*
X121150000Y-168330524D01*
X121054762Y-168425762D01*
X120911904Y-168473381D01*
X120673809Y-168473381D01*
X122197619Y-167521000D02*
X122102381Y-167473381D01*
X121959524Y-167473381D01*
X121816666Y-167521000D01*
X121721428Y-167616238D01*
X121673809Y-167711476D01*
X121626190Y-167901952D01*
X121626190Y-168044810D01*
X121673809Y-168235286D01*
X121721428Y-168330524D01*
X121816666Y-168425762D01*
X121959524Y-168473381D01*
X122054762Y-168473381D01*
X122197619Y-168425762D01*
X122245238Y-168378143D01*
X122245238Y-168044810D01*
X122054762Y-168044810D01*
X122673809Y-167949571D02*
X123007143Y-167949571D01*
X123150000Y-168473381D02*
X122673809Y-168473381D01*
X122673809Y-167473381D01*
X123150000Y-167473381D01*
X117821429Y-175565952D02*
X117821429Y-174804047D01*
X117821429Y-169365952D02*
X117821429Y-168604047D01*
X118202381Y-168984999D02*
X117440476Y-168984999D01*
D13*
X85096047Y-176378810D02*
X85096047Y-175870810D01*
X85217000Y-175870810D01*
X85289571Y-175895000D01*
X85337952Y-175943381D01*
X85362143Y-175991762D01*
X85386333Y-176088524D01*
X85386333Y-176161095D01*
X85362143Y-176257857D01*
X85337952Y-176306238D01*
X85289571Y-176354619D01*
X85217000Y-176378810D01*
X85096047Y-176378810D01*
X85821762Y-176040143D02*
X85821762Y-176378810D01*
X85700809Y-175846619D02*
X85579857Y-176209476D01*
X85894333Y-176209476D01*
X83795810Y-176584428D02*
X83795810Y-176826333D01*
X83287810Y-176826333D01*
X83529714Y-176415095D02*
X83529714Y-176245761D01*
X83795810Y-176173190D02*
X83795810Y-176415095D01*
X83287810Y-176415095D01*
X83287810Y-176173190D01*
X83795810Y-175955476D02*
X83287810Y-175955476D01*
X83287810Y-175834523D01*
X83312000Y-175761952D01*
X83360381Y-175713571D01*
X83408762Y-175689380D01*
X83505524Y-175665190D01*
X83578095Y-175665190D01*
X83674857Y-175689380D01*
X83723238Y-175713571D01*
X83771619Y-175761952D01*
X83795810Y-175834523D01*
X83795810Y-175955476D01*
X83602286Y-175447476D02*
X83602286Y-175060428D01*
X83795810Y-174818524D02*
X83287810Y-174818524D01*
X83481333Y-174818524D02*
X83457143Y-174770143D01*
X83457143Y-174673381D01*
X83481333Y-174625000D01*
X83505524Y-174600809D01*
X83553905Y-174576619D01*
X83699048Y-174576619D01*
X83747429Y-174600809D01*
X83771619Y-174625000D01*
X83795810Y-174673381D01*
X83795810Y-174770143D01*
X83771619Y-174818524D01*
X83795810Y-174286333D02*
X83771619Y-174334714D01*
X83723238Y-174358905D01*
X83287810Y-174358905D01*
X83457143Y-173875095D02*
X83795810Y-173875095D01*
X83457143Y-174092810D02*
X83723238Y-174092810D01*
X83771619Y-174068619D01*
X83795810Y-174020238D01*
X83795810Y-173947667D01*
X83771619Y-173899286D01*
X83747429Y-173875095D01*
X83771619Y-173439667D02*
X83795810Y-173488048D01*
X83795810Y-173584810D01*
X83771619Y-173633191D01*
X83723238Y-173657381D01*
X83529714Y-173657381D01*
X83481333Y-173633191D01*
X83457143Y-173584810D01*
X83457143Y-173488048D01*
X83481333Y-173439667D01*
X83529714Y-173415476D01*
X83578095Y-173415476D01*
X83626476Y-173657381D01*
D10*
X131643381Y-164441095D02*
X130643381Y-164441095D01*
X131643381Y-163869666D02*
X131071952Y-164298238D01*
X130643381Y-163869666D02*
X131214810Y-164441095D01*
X131643381Y-162917285D02*
X131643381Y-163488714D01*
X131643381Y-163203000D02*
X130643381Y-163203000D01*
X130786238Y-163298238D01*
X130881476Y-163393476D01*
X130929095Y-163488714D01*
X123928143Y-163917047D02*
X123975762Y-163964666D01*
X124023381Y-164107523D01*
X124023381Y-164202761D01*
X123975762Y-164345619D01*
X123880524Y-164440857D01*
X123785286Y-164488476D01*
X123594810Y-164536095D01*
X123451952Y-164536095D01*
X123261476Y-164488476D01*
X123166238Y-164440857D01*
X123071000Y-164345619D01*
X123023381Y-164202761D01*
X123023381Y-164107523D01*
X123071000Y-163964666D01*
X123118619Y-163917047D01*
X123023381Y-163298000D02*
X123023381Y-163107523D01*
X123071000Y-163012285D01*
X123166238Y-162917047D01*
X123356714Y-162869428D01*
X123690048Y-162869428D01*
X123880524Y-162917047D01*
X123975762Y-163012285D01*
X124023381Y-163107523D01*
X124023381Y-163298000D01*
X123975762Y-163393238D01*
X123880524Y-163488476D01*
X123690048Y-163536095D01*
X123356714Y-163536095D01*
X123166238Y-163488476D01*
X123071000Y-163393238D01*
X123023381Y-163298000D01*
X124023381Y-162440857D02*
X123023381Y-162440857D01*
X124023381Y-161869428D01*
X123023381Y-161869428D01*
X124023381Y-161393238D02*
X123023381Y-161393238D01*
X124023381Y-160821809D01*
X123023381Y-160821809D01*
X124118619Y-160583714D02*
X124118619Y-159821809D01*
X123023381Y-159678952D02*
X123023381Y-159059904D01*
X123404333Y-159393238D01*
X123404333Y-159250380D01*
X123451952Y-159155142D01*
X123499571Y-159107523D01*
X123594810Y-159059904D01*
X123832905Y-159059904D01*
X123928143Y-159107523D01*
X123975762Y-159155142D01*
X124023381Y-159250380D01*
X124023381Y-159536095D01*
X123975762Y-159631333D01*
X123928143Y-159678952D01*
X88923905Y-156408381D02*
X88923905Y-155408381D01*
X89304858Y-155408381D01*
X89400096Y-155456000D01*
X89447715Y-155503619D01*
X89495334Y-155598857D01*
X89495334Y-155741714D01*
X89447715Y-155836952D01*
X89400096Y-155884571D01*
X89304858Y-155932190D01*
X88923905Y-155932190D01*
X89876286Y-155503619D02*
X89923905Y-155456000D01*
X90019143Y-155408381D01*
X90257239Y-155408381D01*
X90352477Y-155456000D01*
X90400096Y-155503619D01*
X90447715Y-155598857D01*
X90447715Y-155694095D01*
X90400096Y-155836952D01*
X89828667Y-156408381D01*
X90447715Y-156408381D01*
X85002953Y-167108143D02*
X84955334Y-167155762D01*
X84812477Y-167203381D01*
X84717239Y-167203381D01*
X84574381Y-167155762D01*
X84479143Y-167060524D01*
X84431524Y-166965286D01*
X84383905Y-166774810D01*
X84383905Y-166631952D01*
X84431524Y-166441476D01*
X84479143Y-166346238D01*
X84574381Y-166251000D01*
X84717239Y-166203381D01*
X84812477Y-166203381D01*
X84955334Y-166251000D01*
X85002953Y-166298619D01*
X85622000Y-166203381D02*
X85812477Y-166203381D01*
X85907715Y-166251000D01*
X86002953Y-166346238D01*
X86050572Y-166536714D01*
X86050572Y-166870048D01*
X86002953Y-167060524D01*
X85907715Y-167155762D01*
X85812477Y-167203381D01*
X85622000Y-167203381D01*
X85526762Y-167155762D01*
X85431524Y-167060524D01*
X85383905Y-166870048D01*
X85383905Y-166536714D01*
X85431524Y-166346238D01*
X85526762Y-166251000D01*
X85622000Y-166203381D01*
X86479143Y-167203381D02*
X86479143Y-166203381D01*
X87050572Y-167203381D01*
X87050572Y-166203381D01*
X87526762Y-167203381D02*
X87526762Y-166203381D01*
X88098191Y-167203381D01*
X88098191Y-166203381D01*
X88336286Y-167298619D02*
X89098191Y-167298619D01*
X89812477Y-166203381D02*
X89336286Y-166203381D01*
X89288667Y-166679571D01*
X89336286Y-166631952D01*
X89431524Y-166584333D01*
X89669620Y-166584333D01*
X89764858Y-166631952D01*
X89812477Y-166679571D01*
X89860096Y-166774810D01*
X89860096Y-167012905D01*
X89812477Y-167108143D01*
X89764858Y-167155762D01*
X89669620Y-167203381D01*
X89431524Y-167203381D01*
X89336286Y-167155762D01*
X89288667Y-167108143D01*
X86764905Y-171648381D02*
X86764905Y-170648381D01*
X87145858Y-170648381D01*
X87241096Y-170696000D01*
X87288715Y-170743619D01*
X87336334Y-170838857D01*
X87336334Y-170981714D01*
X87288715Y-171076952D01*
X87241096Y-171124571D01*
X87145858Y-171172190D01*
X86764905Y-171172190D01*
X87669667Y-170648381D02*
X88288715Y-170648381D01*
X87955381Y-171029333D01*
X88098239Y-171029333D01*
X88193477Y-171076952D01*
X88241096Y-171124571D01*
X88288715Y-171219810D01*
X88288715Y-171457905D01*
X88241096Y-171553143D01*
X88193477Y-171600762D01*
X88098239Y-171648381D01*
X87812524Y-171648381D01*
X87717286Y-171600762D01*
X87669667Y-171553143D01*
X101306334Y-183205381D02*
X100973000Y-182729190D01*
X100734905Y-183205381D02*
X100734905Y-182205381D01*
X101115858Y-182205381D01*
X101211096Y-182253000D01*
X101258715Y-182300619D01*
X101306334Y-182395857D01*
X101306334Y-182538714D01*
X101258715Y-182633952D01*
X101211096Y-182681571D01*
X101115858Y-182729190D01*
X100734905Y-182729190D01*
X102258715Y-183205381D02*
X101687286Y-183205381D01*
X101973000Y-183205381D02*
X101973000Y-182205381D01*
X101877762Y-182348238D01*
X101782524Y-182443476D01*
X101687286Y-182491095D01*
D18*
X99936905Y-155272619D02*
X99936905Y-156095095D01*
X99985286Y-156191857D01*
X100033667Y-156240238D01*
X100130429Y-156288619D01*
X100323952Y-156288619D01*
X100420714Y-156240238D01*
X100469095Y-156191857D01*
X100517476Y-156095095D01*
X100517476Y-155272619D01*
X101533476Y-156288619D02*
X100952905Y-156288619D01*
X101243191Y-156288619D02*
X101243191Y-155272619D01*
X101146429Y-155417762D01*
X101049667Y-155514524D01*
X100952905Y-155562905D01*
X94252144Y-157812619D02*
X94252144Y-156796619D01*
X94832715Y-157812619D01*
X94832715Y-156796619D01*
X95897096Y-157715857D02*
X95848715Y-157764238D01*
X95703572Y-157812619D01*
X95606810Y-157812619D01*
X95461668Y-157764238D01*
X95364906Y-157667476D01*
X95316525Y-157570714D01*
X95268144Y-157377190D01*
X95268144Y-157232048D01*
X95316525Y-157038524D01*
X95364906Y-156941762D01*
X95461668Y-156845000D01*
X95606810Y-156796619D01*
X95703572Y-156796619D01*
X95848715Y-156845000D01*
X95897096Y-156893381D01*
X96332525Y-157812619D02*
X96332525Y-156796619D01*
X96719572Y-156796619D01*
X96816334Y-156845000D01*
X96864715Y-156893381D01*
X96913096Y-156990143D01*
X96913096Y-157135286D01*
X96864715Y-157232048D01*
X96816334Y-157280429D01*
X96719572Y-157328810D01*
X96332525Y-157328810D01*
X97880715Y-157812619D02*
X97300144Y-157812619D01*
X97590430Y-157812619D02*
X97590430Y-156796619D01*
X97493668Y-156941762D01*
X97396906Y-157038524D01*
X97300144Y-157086905D01*
X98848334Y-157812619D02*
X98267763Y-157812619D01*
X98558049Y-157812619D02*
X98558049Y-156796619D01*
X98461287Y-156941762D01*
X98364525Y-157038524D01*
X98267763Y-157086905D01*
X99815953Y-157812619D02*
X99235382Y-157812619D01*
X99525668Y-157812619D02*
X99525668Y-156796619D01*
X99428906Y-156941762D01*
X99332144Y-157038524D01*
X99235382Y-157086905D01*
X100154620Y-156796619D02*
X100831953Y-156796619D01*
X100396525Y-157812619D01*
X101170620Y-157764238D02*
X101315763Y-157812619D01*
X101557667Y-157812619D01*
X101654429Y-157764238D01*
X101702810Y-157715857D01*
X101751191Y-157619095D01*
X101751191Y-157522333D01*
X101702810Y-157425571D01*
X101654429Y-157377190D01*
X101557667Y-157328810D01*
X101364144Y-157280429D01*
X101267382Y-157232048D01*
X101219001Y-157183667D01*
X101170620Y-157086905D01*
X101170620Y-156990143D01*
X101219001Y-156893381D01*
X101267382Y-156845000D01*
X101364144Y-156796619D01*
X101606048Y-156796619D01*
X101751191Y-156845000D01*
X102041477Y-156796619D02*
X102622048Y-156796619D01*
X102331763Y-157812619D02*
X102331763Y-156796619D01*
X102863953Y-156796619D02*
X103492905Y-156796619D01*
X103154239Y-157183667D01*
X103299381Y-157183667D01*
X103396143Y-157232048D01*
X103444524Y-157280429D01*
X103492905Y-157377190D01*
X103492905Y-157619095D01*
X103444524Y-157715857D01*
X103396143Y-157764238D01*
X103299381Y-157812619D01*
X103009096Y-157812619D01*
X102912334Y-157764238D01*
X102863953Y-157715857D01*
X103831572Y-156796619D02*
X104460524Y-156796619D01*
X104121858Y-157183667D01*
X104267000Y-157183667D01*
X104363762Y-157232048D01*
X104412143Y-157280429D01*
X104460524Y-157377190D01*
X104460524Y-157619095D01*
X104412143Y-157715857D01*
X104363762Y-157764238D01*
X104267000Y-157812619D01*
X103976715Y-157812619D01*
X103879953Y-157764238D01*
X103831572Y-157715857D01*
X104750810Y-156796619D02*
X105331381Y-156796619D01*
X105041096Y-157812619D02*
X105041096Y-156796619D01*
X105573286Y-156796619D02*
X106202238Y-156796619D01*
X105863572Y-157183667D01*
X106008714Y-157183667D01*
X106105476Y-157232048D01*
X106153857Y-157280429D01*
X106202238Y-157377190D01*
X106202238Y-157619095D01*
X106153857Y-157715857D01*
X106105476Y-157764238D01*
X106008714Y-157812619D01*
X105718429Y-157812619D01*
X105621667Y-157764238D01*
X105573286Y-157715857D01*
X107169857Y-156845000D02*
X107073095Y-156796619D01*
X106927952Y-156796619D01*
X106782810Y-156845000D01*
X106686048Y-156941762D01*
X106637667Y-157038524D01*
X106589286Y-157232048D01*
X106589286Y-157377190D01*
X106637667Y-157570714D01*
X106686048Y-157667476D01*
X106782810Y-157764238D01*
X106927952Y-157812619D01*
X107024714Y-157812619D01*
X107169857Y-157764238D01*
X107218238Y-157715857D01*
X107218238Y-157377190D01*
X107024714Y-157377190D01*
D10*
X116927381Y-160146905D02*
X117736905Y-160146905D01*
X117832143Y-160099286D01*
X117879762Y-160051667D01*
X117927381Y-159956429D01*
X117927381Y-159765952D01*
X117879762Y-159670714D01*
X117832143Y-159623095D01*
X117736905Y-159575476D01*
X116927381Y-159575476D01*
X116927381Y-159194524D02*
X116927381Y-158575476D01*
X117308333Y-158908810D01*
X117308333Y-158765952D01*
X117355952Y-158670714D01*
X117403571Y-158623095D01*
X117498810Y-158575476D01*
X117736905Y-158575476D01*
X117832143Y-158623095D01*
X117879762Y-158670714D01*
X117927381Y-158765952D01*
X117927381Y-159051667D01*
X117879762Y-159146905D01*
X117832143Y-159194524D01*
X124388571Y-163892857D02*
X124436190Y-163750000D01*
X124483810Y-163702381D01*
X124579048Y-163654762D01*
X124721905Y-163654762D01*
X124817143Y-163702381D01*
X124864762Y-163750000D01*
X124912381Y-163845238D01*
X124912381Y-164226191D01*
X123912381Y-164226191D01*
X123912381Y-163892857D01*
X123960000Y-163797619D01*
X124007619Y-163750000D01*
X124102857Y-163702381D01*
X124198095Y-163702381D01*
X124293333Y-163750000D01*
X124340952Y-163797619D01*
X124388571Y-163892857D01*
X124388571Y-164226191D01*
X123912381Y-163369048D02*
X123912381Y-162797619D01*
X124912381Y-163083334D02*
X123912381Y-163083334D01*
X124626667Y-162511905D02*
X124626667Y-162035714D01*
X124912381Y-162607143D02*
X123912381Y-162273810D01*
X124912381Y-161940476D01*
X123912381Y-161702381D02*
X123912381Y-161083333D01*
X124293333Y-161416667D01*
X124293333Y-161273809D01*
X124340952Y-161178571D01*
X124388571Y-161130952D01*
X124483810Y-161083333D01*
X124721905Y-161083333D01*
X124817143Y-161130952D01*
X124864762Y-161178571D01*
X124912381Y-161273809D01*
X124912381Y-161559524D01*
X124864762Y-161654762D01*
X124817143Y-161702381D01*
X124912381Y-160130952D02*
X124912381Y-160702381D01*
X124912381Y-160416667D02*
X123912381Y-160416667D01*
X124055238Y-160511905D01*
X124150476Y-160607143D01*
X124198095Y-160702381D01*
X124007619Y-159750000D02*
X123960000Y-159702381D01*
X123912381Y-159607143D01*
X123912381Y-159369047D01*
X123960000Y-159273809D01*
X124007619Y-159226190D01*
X124102857Y-159178571D01*
X124198095Y-159178571D01*
X124340952Y-159226190D01*
X124912381Y-159797619D01*
X124912381Y-159178571D01*
X124436190Y-158559524D02*
X124912381Y-158559524D01*
X123912381Y-158892857D02*
X124436190Y-158559524D01*
X123912381Y-158226190D01*
X124531429Y-157892857D02*
X124531429Y-157130952D01*
X123912381Y-156226190D02*
X123912381Y-156416667D01*
X123960000Y-156511905D01*
X124007619Y-156559524D01*
X124150476Y-156654762D01*
X124340952Y-156702381D01*
X124721905Y-156702381D01*
X124817143Y-156654762D01*
X124864762Y-156607143D01*
X124912381Y-156511905D01*
X124912381Y-156321428D01*
X124864762Y-156226190D01*
X124817143Y-156178571D01*
X124721905Y-156130952D01*
X124483810Y-156130952D01*
X124388571Y-156178571D01*
X124340952Y-156226190D01*
X124293333Y-156321428D01*
X124293333Y-156511905D01*
X124340952Y-156607143D01*
X124388571Y-156654762D01*
X124483810Y-156702381D01*
X123912381Y-155511905D02*
X123912381Y-155416666D01*
X123960000Y-155321428D01*
X124007619Y-155273809D01*
X124102857Y-155226190D01*
X124293333Y-155178571D01*
X124531429Y-155178571D01*
X124721905Y-155226190D01*
X124817143Y-155273809D01*
X124864762Y-155321428D01*
X124912381Y-155416666D01*
X124912381Y-155511905D01*
X124864762Y-155607143D01*
X124817143Y-155654762D01*
X124721905Y-155702381D01*
X124531429Y-155750000D01*
X124293333Y-155750000D01*
X124102857Y-155702381D01*
X124007619Y-155654762D01*
X123960000Y-155607143D01*
X123912381Y-155511905D01*
X123912381Y-154559524D02*
X123912381Y-154464285D01*
X123960000Y-154369047D01*
X124007619Y-154321428D01*
X124102857Y-154273809D01*
X124293333Y-154226190D01*
X124531429Y-154226190D01*
X124721905Y-154273809D01*
X124817143Y-154321428D01*
X124864762Y-154369047D01*
X124912381Y-154464285D01*
X124912381Y-154559524D01*
X124864762Y-154654762D01*
X124817143Y-154702381D01*
X124721905Y-154750000D01*
X124531429Y-154797619D01*
X124293333Y-154797619D01*
X124102857Y-154750000D01*
X124007619Y-154702381D01*
X123960000Y-154654762D01*
X123912381Y-154559524D01*
X124817143Y-153226190D02*
X124864762Y-153273809D01*
X124912381Y-153416666D01*
X124912381Y-153511904D01*
X124864762Y-153654762D01*
X124769524Y-153750000D01*
X124674286Y-153797619D01*
X124483810Y-153845238D01*
X124340952Y-153845238D01*
X124150476Y-153797619D01*
X124055238Y-153750000D01*
X123960000Y-153654762D01*
X123912381Y-153511904D01*
X123912381Y-153416666D01*
X123960000Y-153273809D01*
X124007619Y-153226190D01*
X109728095Y-178776381D02*
X109728095Y-179585905D01*
X109775714Y-179681143D01*
X109823333Y-179728762D01*
X109918571Y-179776381D01*
X110109048Y-179776381D01*
X110204286Y-179728762D01*
X110251905Y-179681143D01*
X110299524Y-179585905D01*
X110299524Y-178776381D01*
X111204286Y-179109714D02*
X111204286Y-179776381D01*
X110966190Y-178728762D02*
X110728095Y-179443048D01*
X111347143Y-179443048D01*
X107791524Y-182951381D02*
X107791524Y-181951381D01*
X108172477Y-181951381D01*
X108267715Y-181999000D01*
X108315334Y-182046619D01*
X108362953Y-182141857D01*
X108362953Y-182284714D01*
X108315334Y-182379952D01*
X108267715Y-182427571D01*
X108172477Y-182475190D01*
X107791524Y-182475190D01*
X109362953Y-182856143D02*
X109315334Y-182903762D01*
X109172477Y-182951381D01*
X109077239Y-182951381D01*
X108934381Y-182903762D01*
X108839143Y-182808524D01*
X108791524Y-182713286D01*
X108743905Y-182522810D01*
X108743905Y-182379952D01*
X108791524Y-182189476D01*
X108839143Y-182094238D01*
X108934381Y-181999000D01*
X109077239Y-181951381D01*
X109172477Y-181951381D01*
X109315334Y-181999000D01*
X109362953Y-182046619D01*
X110315334Y-182951381D02*
X109743905Y-182951381D01*
X110029619Y-182951381D02*
X110029619Y-181951381D01*
X109934381Y-182094238D01*
X109839143Y-182189476D01*
X109743905Y-182237095D01*
X110696286Y-182046619D02*
X110743905Y-181999000D01*
X110839143Y-181951381D01*
X111077239Y-181951381D01*
X111172477Y-181999000D01*
X111220096Y-182046619D01*
X111267715Y-182141857D01*
X111267715Y-182237095D01*
X111220096Y-182379952D01*
X110648667Y-182951381D01*
X111267715Y-182951381D01*
X111601048Y-181951381D02*
X112220096Y-181951381D01*
X111886762Y-182332333D01*
X112029620Y-182332333D01*
X112124858Y-182379952D01*
X112172477Y-182427571D01*
X112220096Y-182522810D01*
X112220096Y-182760905D01*
X112172477Y-182856143D01*
X112124858Y-182903762D01*
X112029620Y-182951381D01*
X111743905Y-182951381D01*
X111648667Y-182903762D01*
X111601048Y-182856143D01*
X101425476Y-177252381D02*
X102092143Y-178252381D01*
X102092143Y-177252381D02*
X101425476Y-178252381D01*
X102996905Y-178252381D02*
X102425476Y-178252381D01*
X102711190Y-178252381D02*
X102711190Y-177252381D01*
X102615952Y-177395238D01*
X102520714Y-177490476D01*
X102425476Y-177538095D01*
D18*
X90121619Y-151450524D02*
X90121619Y-150180524D01*
X90605428Y-150180524D01*
X90726381Y-150241000D01*
X90786857Y-150301476D01*
X90847333Y-150422429D01*
X90847333Y-150603857D01*
X90786857Y-150724810D01*
X90726381Y-150785286D01*
X90605428Y-150845762D01*
X90121619Y-150845762D01*
X92056857Y-151450524D02*
X91331143Y-151450524D01*
X91694000Y-151450524D02*
X91694000Y-150180524D01*
X91573048Y-150361952D01*
X91452095Y-150482905D01*
X91331143Y-150543381D01*
D10*
X95127381Y-172045190D02*
X94127381Y-172045190D01*
X95032143Y-170997571D02*
X95079762Y-171045190D01*
X95127381Y-171188047D01*
X95127381Y-171283285D01*
X95079762Y-171426143D01*
X94984524Y-171521381D01*
X94889286Y-171569000D01*
X94698810Y-171616619D01*
X94555952Y-171616619D01*
X94365476Y-171569000D01*
X94270238Y-171521381D01*
X94175000Y-171426143D01*
X94127381Y-171283285D01*
X94127381Y-171188047D01*
X94175000Y-171045190D01*
X94222619Y-170997571D01*
X95127381Y-170045190D02*
X95127381Y-170616619D01*
X95127381Y-170330905D02*
X94127381Y-170330905D01*
X94270238Y-170426143D01*
X94365476Y-170521381D01*
X94413095Y-170616619D01*
D20*
X88893227Y-170964195D02*
X88826340Y-170868642D01*
X88778564Y-170964195D02*
X88778564Y-170763535D01*
X88855006Y-170763535D01*
X88874117Y-170773090D01*
X88883672Y-170782645D01*
X88893227Y-170801756D01*
X88893227Y-170830421D01*
X88883672Y-170849532D01*
X88874117Y-170859087D01*
X88855006Y-170868642D01*
X88778564Y-170868642D01*
X88979224Y-170964195D02*
X88979224Y-170763535D01*
X89055666Y-170763535D01*
X89074777Y-170773090D01*
X89084332Y-170782645D01*
X89093887Y-170801756D01*
X89093887Y-170830421D01*
X89084332Y-170849532D01*
X89074777Y-170859087D01*
X89055666Y-170868642D01*
X88979224Y-170868642D01*
X89284992Y-170964195D02*
X89170329Y-170964195D01*
X89227660Y-170964195D02*
X89227660Y-170763535D01*
X89208550Y-170792200D01*
X89189439Y-170811311D01*
X89170329Y-170820866D01*
D10*
X94321334Y-179173143D02*
X94273715Y-179220762D01*
X94130858Y-179268381D01*
X94035620Y-179268381D01*
X93892762Y-179220762D01*
X93797524Y-179125524D01*
X93749905Y-179030286D01*
X93702286Y-178839810D01*
X93702286Y-178696952D01*
X93749905Y-178506476D01*
X93797524Y-178411238D01*
X93892762Y-178316000D01*
X94035620Y-178268381D01*
X94130858Y-178268381D01*
X94273715Y-178316000D01*
X94321334Y-178363619D01*
X94702286Y-178363619D02*
X94749905Y-178316000D01*
X94845143Y-178268381D01*
X95083239Y-178268381D01*
X95178477Y-178316000D01*
X95226096Y-178363619D01*
X95273715Y-178458857D01*
X95273715Y-178554095D01*
X95226096Y-178696952D01*
X94654667Y-179268381D01*
X95273715Y-179268381D01*
D16*
X99287149Y-184015017D02*
X100448292Y-184015017D01*
X99867721Y-184595589D02*
X99867721Y-183434446D01*
D10*
X113657143Y-157737381D02*
X113323809Y-157261190D01*
X113085714Y-157737381D02*
X113085714Y-156737381D01*
X113466667Y-156737381D01*
X113561905Y-156785000D01*
X113609524Y-156832619D01*
X113657143Y-156927857D01*
X113657143Y-157070714D01*
X113609524Y-157165952D01*
X113561905Y-157213571D01*
X113466667Y-157261190D01*
X113085714Y-157261190D01*
X114609524Y-157737381D02*
X114038095Y-157737381D01*
X114323809Y-157737381D02*
X114323809Y-156737381D01*
X114228571Y-156880238D01*
X114133333Y-156975476D01*
X114038095Y-157023095D01*
X115228571Y-156737381D02*
X115323810Y-156737381D01*
X115419048Y-156785000D01*
X115466667Y-156832619D01*
X115514286Y-156927857D01*
X115561905Y-157118333D01*
X115561905Y-157356429D01*
X115514286Y-157546905D01*
X115466667Y-157642143D01*
X115419048Y-157689762D01*
X115323810Y-157737381D01*
X115228571Y-157737381D01*
X115133333Y-157689762D01*
X115085714Y-157642143D01*
X115038095Y-157546905D01*
X114990476Y-157356429D01*
X114990476Y-157118333D01*
X115038095Y-156927857D01*
X115085714Y-156832619D01*
X115133333Y-156785000D01*
X115228571Y-156737381D01*
M02*
