%FSLAX34Y34*%
G04 Gerber Fmt 3.4, Leading zero omitted, Abs format*
G04 (created by PCBNEW (2014-jan-25)-product) date Sun 31 May 2015 12:35:32 PM EDT*
%MOIN*%
G01*
G70*
G90*
G04 APERTURE LIST*
%ADD10C,0.005906*%
%ADD11R,0.068000X0.068000*%
%ADD12O,0.068000X0.068000*%
%ADD13R,0.051200X0.059000*%
%ADD14R,0.145700X0.070900*%
%ADD15R,0.031400X0.031400*%
%ADD16R,0.027559X0.039370*%
%ADD17R,0.100000X0.100000*%
%ADD18C,0.100000*%
%ADD19R,0.078740X0.118110*%
%ADD20C,0.078740*%
%ADD21C,0.059055*%
%ADD22R,0.055000X0.055000*%
%ADD23C,0.055000*%
%ADD24R,0.031500X0.047200*%
%ADD25R,0.059100X0.047200*%
%ADD26R,0.144000X0.080000*%
%ADD27R,0.040000X0.080000*%
%ADD28C,0.070000*%
%ADD29R,0.070000X0.070000*%
%ADD30C,0.039400*%
%ADD31R,0.080000X0.080000*%
%ADD32O,0.080000X0.080000*%
%ADD33R,0.009843X0.027559*%
%ADD34R,0.027559X0.009843*%
%ADD35R,0.067913X0.067913*%
%ADD36C,0.160000*%
%ADD37R,0.030000X0.017000*%
%ADD38R,0.100400X0.098400*%
G04 APERTURE END LIST*
G54D10*
G54D11*
X40850Y-65500D03*
G54D12*
X40850Y-66500D03*
X40850Y-67500D03*
X41850Y-67500D03*
X41850Y-66500D03*
X41850Y-65500D03*
G54D13*
X39025Y-65400D03*
X39775Y-65400D03*
G54D14*
X45250Y-66207D03*
X45250Y-64593D03*
G54D15*
X33945Y-67400D03*
X33355Y-67400D03*
X33945Y-68200D03*
X33355Y-68200D03*
G54D16*
X46558Y-70087D03*
X46558Y-68512D03*
X48841Y-70087D03*
X48841Y-68512D03*
G54D15*
X33945Y-68950D03*
X33355Y-68950D03*
G54D17*
X50650Y-61700D03*
G54D18*
X50650Y-63700D03*
X50650Y-65700D03*
G54D19*
X34300Y-62900D03*
G54D20*
X36300Y-61900D03*
X36300Y-60900D03*
X36300Y-63900D03*
X36300Y-64900D03*
G54D21*
X33300Y-60900D03*
X33300Y-64900D03*
X34300Y-64900D03*
X34300Y-60900D03*
X36300Y-62900D03*
G54D22*
X33450Y-66400D03*
G54D23*
X34450Y-66400D03*
X35450Y-66400D03*
X36450Y-66400D03*
G54D24*
X40394Y-71250D03*
X39606Y-71250D03*
G54D25*
X46812Y-61100D03*
X45788Y-61100D03*
X44788Y-62450D03*
X45812Y-62450D03*
G54D24*
X46244Y-59250D03*
X45456Y-59250D03*
G54D26*
X39650Y-60350D03*
G54D27*
X39650Y-62950D03*
X40550Y-62950D03*
X38750Y-62950D03*
G54D28*
X47400Y-62800D03*
X47400Y-63800D03*
G54D29*
X47400Y-64800D03*
G54D21*
X41400Y-71100D03*
X41400Y-70100D03*
X45400Y-70100D03*
X45400Y-71100D03*
G54D30*
X38955Y-70000D03*
X39545Y-70000D03*
G54D31*
X37750Y-59100D03*
G54D32*
X36750Y-59100D03*
G54D33*
X38061Y-68294D03*
X38257Y-68294D03*
X38454Y-68294D03*
X38651Y-68294D03*
X38848Y-68294D03*
X39045Y-68294D03*
X39242Y-68294D03*
X39438Y-68294D03*
G54D34*
X39694Y-68038D03*
X39694Y-67842D03*
X39694Y-67645D03*
X39694Y-67448D03*
X39694Y-67251D03*
X39694Y-67054D03*
X39694Y-66857D03*
X39694Y-66661D03*
G54D33*
X39438Y-66405D03*
X39242Y-66405D03*
X39045Y-66405D03*
X38848Y-66405D03*
X38651Y-66405D03*
X38454Y-66405D03*
X38257Y-66405D03*
X38061Y-66405D03*
G54D34*
X37805Y-66661D03*
X37805Y-66857D03*
X37805Y-67054D03*
X37805Y-67251D03*
X37805Y-67448D03*
X37805Y-67645D03*
X37805Y-67842D03*
X37805Y-68038D03*
G54D35*
X39089Y-67010D03*
X38410Y-67010D03*
X39089Y-67689D03*
X38410Y-67689D03*
G54D36*
X34500Y-58650D03*
X50500Y-70500D03*
X34500Y-70500D03*
X50300Y-58650D03*
G54D37*
X35350Y-68257D03*
X34750Y-68257D03*
X35350Y-67943D03*
X34750Y-67943D03*
X35350Y-68572D03*
X35350Y-67628D03*
X34750Y-67628D03*
X34750Y-68572D03*
G54D38*
X36356Y-71400D03*
X38344Y-71400D03*
M02*
