%FSLAX34Y34*%
G04 Gerber Fmt 3.4, Leading zero omitted, Abs format*
G04 (created by PCBNEW (2014-jan-25)-product) date Sun 31 May 2015 12:35:32 PM EDT*
%MOIN*%
G01*
G70*
G90*
G04 APERTURE LIST*
%ADD10C,0.005906*%
%ADD11C,0.004724*%
%ADD12C,0.005000*%
%ADD13C,0.015000*%
%ADD14C,0.002400*%
%ADD15C,0.004700*%
G04 APERTURE END LIST*
G54D10*
G54D11*
X45333Y-57605D02*
X45333Y-57132D01*
X45333Y-57357D02*
X45063Y-57357D01*
X45063Y-57605D02*
X45063Y-57132D01*
X44770Y-57605D02*
X44815Y-57582D01*
X44838Y-57560D01*
X44860Y-57515D01*
X44860Y-57380D01*
X44838Y-57335D01*
X44815Y-57312D01*
X44770Y-57290D01*
X44703Y-57290D01*
X44658Y-57312D01*
X44635Y-57335D01*
X44613Y-57380D01*
X44613Y-57515D01*
X44635Y-57560D01*
X44658Y-57582D01*
X44703Y-57605D01*
X44770Y-57605D01*
X44478Y-57290D02*
X44298Y-57290D01*
X44410Y-57132D02*
X44410Y-57537D01*
X44388Y-57582D01*
X44343Y-57605D01*
X44298Y-57605D01*
X44140Y-57605D02*
X44140Y-57132D01*
X44140Y-57312D02*
X44095Y-57290D01*
X44005Y-57290D01*
X43960Y-57312D01*
X43938Y-57335D01*
X43915Y-57380D01*
X43915Y-57515D01*
X43938Y-57560D01*
X43960Y-57582D01*
X44005Y-57605D01*
X44095Y-57605D01*
X44140Y-57582D01*
X43646Y-57605D02*
X43691Y-57582D01*
X43713Y-57560D01*
X43735Y-57515D01*
X43735Y-57380D01*
X43713Y-57335D01*
X43691Y-57312D01*
X43646Y-57290D01*
X43578Y-57290D01*
X43533Y-57312D01*
X43511Y-57335D01*
X43488Y-57380D01*
X43488Y-57515D01*
X43511Y-57560D01*
X43533Y-57582D01*
X43578Y-57605D01*
X43646Y-57605D01*
X43331Y-57605D02*
X43083Y-57290D01*
X43331Y-57290D02*
X43083Y-57605D01*
X42588Y-57290D02*
X42476Y-57605D01*
X42363Y-57290D01*
X42093Y-57132D02*
X42048Y-57132D01*
X42003Y-57155D01*
X41981Y-57177D01*
X41958Y-57222D01*
X41936Y-57312D01*
X41936Y-57425D01*
X41958Y-57515D01*
X41981Y-57560D01*
X42003Y-57582D01*
X42048Y-57605D01*
X42093Y-57605D01*
X42138Y-57582D01*
X42161Y-57560D01*
X42183Y-57515D01*
X42206Y-57425D01*
X42206Y-57312D01*
X42183Y-57222D01*
X42161Y-57177D01*
X42138Y-57155D01*
X42093Y-57132D01*
X41733Y-57560D02*
X41711Y-57582D01*
X41733Y-57605D01*
X41756Y-57582D01*
X41733Y-57560D01*
X41733Y-57605D01*
X41486Y-57605D02*
X41396Y-57605D01*
X41351Y-57582D01*
X41328Y-57560D01*
X41283Y-57492D01*
X41261Y-57402D01*
X41261Y-57222D01*
X41283Y-57177D01*
X41306Y-57155D01*
X41351Y-57132D01*
X41441Y-57132D01*
X41486Y-57155D01*
X41508Y-57177D01*
X41531Y-57222D01*
X41531Y-57335D01*
X41508Y-57380D01*
X41486Y-57402D01*
X41441Y-57425D01*
X41351Y-57425D01*
X41306Y-57402D01*
X41283Y-57380D01*
X41261Y-57335D01*
X41058Y-57560D02*
X41036Y-57582D01*
X41058Y-57605D01*
X41081Y-57582D01*
X41058Y-57560D01*
X41058Y-57605D01*
X40586Y-57605D02*
X40856Y-57605D01*
X40721Y-57605D02*
X40721Y-57132D01*
X40766Y-57200D01*
X40811Y-57245D01*
X40856Y-57267D01*
X40383Y-57425D02*
X40023Y-57425D01*
X39596Y-57605D02*
X39596Y-57357D01*
X39619Y-57312D01*
X39664Y-57290D01*
X39753Y-57290D01*
X39798Y-57312D01*
X39596Y-57582D02*
X39641Y-57605D01*
X39753Y-57605D01*
X39798Y-57582D01*
X39821Y-57537D01*
X39821Y-57492D01*
X39798Y-57447D01*
X39753Y-57425D01*
X39641Y-57425D01*
X39596Y-57402D01*
X39304Y-57605D02*
X39349Y-57582D01*
X39371Y-57537D01*
X39371Y-57132D01*
X39124Y-57290D02*
X39124Y-57762D01*
X39124Y-57312D02*
X39079Y-57290D01*
X38989Y-57290D01*
X38944Y-57312D01*
X38921Y-57335D01*
X38899Y-57380D01*
X38899Y-57515D01*
X38921Y-57560D01*
X38944Y-57582D01*
X38989Y-57605D01*
X39079Y-57605D01*
X39124Y-57582D01*
X38696Y-57605D02*
X38696Y-57132D01*
X38494Y-57605D02*
X38494Y-57357D01*
X38516Y-57312D01*
X38561Y-57290D01*
X38629Y-57290D01*
X38674Y-57312D01*
X38696Y-57335D01*
X38066Y-57605D02*
X38066Y-57357D01*
X38089Y-57312D01*
X38134Y-57290D01*
X38224Y-57290D01*
X38269Y-57312D01*
X38066Y-57582D02*
X38111Y-57605D01*
X38224Y-57605D01*
X38269Y-57582D01*
X38291Y-57537D01*
X38291Y-57492D01*
X38269Y-57447D01*
X38224Y-57425D01*
X38111Y-57425D01*
X38066Y-57402D01*
X47830Y-58178D02*
X47605Y-58178D01*
X47875Y-58313D02*
X47717Y-57841D01*
X47560Y-58313D01*
X47200Y-57998D02*
X47200Y-58313D01*
X47403Y-57998D02*
X47403Y-58246D01*
X47380Y-58291D01*
X47335Y-58313D01*
X47268Y-58313D01*
X47223Y-58291D01*
X47200Y-58268D01*
X47043Y-57998D02*
X46863Y-57998D01*
X46975Y-57841D02*
X46975Y-58246D01*
X46953Y-58291D01*
X46908Y-58313D01*
X46863Y-58313D01*
X46705Y-58313D02*
X46705Y-57841D01*
X46503Y-58313D02*
X46503Y-58066D01*
X46525Y-58021D01*
X46570Y-57998D01*
X46638Y-57998D01*
X46683Y-58021D01*
X46705Y-58043D01*
X46278Y-58268D02*
X46255Y-58291D01*
X46278Y-58313D01*
X46300Y-58291D01*
X46278Y-58268D01*
X46278Y-58313D01*
X46278Y-58021D02*
X46255Y-58043D01*
X46278Y-58066D01*
X46300Y-58043D01*
X46278Y-58021D01*
X46278Y-58066D01*
X45558Y-57841D02*
X45558Y-58178D01*
X45580Y-58246D01*
X45625Y-58291D01*
X45693Y-58313D01*
X45738Y-58313D01*
X45265Y-58313D02*
X45310Y-58291D01*
X45333Y-58268D01*
X45355Y-58223D01*
X45355Y-58088D01*
X45333Y-58043D01*
X45310Y-58021D01*
X45265Y-57998D01*
X45198Y-57998D01*
X45153Y-58021D01*
X45130Y-58043D01*
X45108Y-58088D01*
X45108Y-58223D01*
X45130Y-58268D01*
X45153Y-58291D01*
X45198Y-58313D01*
X45265Y-58313D01*
X44905Y-57998D02*
X44905Y-58313D01*
X44905Y-58043D02*
X44883Y-58021D01*
X44838Y-57998D01*
X44770Y-57998D01*
X44725Y-58021D01*
X44703Y-58066D01*
X44703Y-58313D01*
X44275Y-58313D02*
X44275Y-58066D01*
X44298Y-58021D01*
X44343Y-57998D01*
X44433Y-57998D01*
X44478Y-58021D01*
X44275Y-58291D02*
X44320Y-58313D01*
X44433Y-58313D01*
X44478Y-58291D01*
X44500Y-58246D01*
X44500Y-58201D01*
X44478Y-58156D01*
X44433Y-58133D01*
X44320Y-58133D01*
X44275Y-58111D01*
X44118Y-57998D02*
X43938Y-57998D01*
X44050Y-57841D02*
X44050Y-58246D01*
X44028Y-58291D01*
X43983Y-58313D01*
X43938Y-58313D01*
X43780Y-58313D02*
X43780Y-57841D01*
X43578Y-58313D02*
X43578Y-58066D01*
X43601Y-58021D01*
X43646Y-57998D01*
X43713Y-57998D01*
X43758Y-58021D01*
X43780Y-58043D01*
X43151Y-58313D02*
X43151Y-58066D01*
X43173Y-58021D01*
X43218Y-57998D01*
X43308Y-57998D01*
X43353Y-58021D01*
X43151Y-58291D02*
X43196Y-58313D01*
X43308Y-58313D01*
X43353Y-58291D01*
X43376Y-58246D01*
X43376Y-58201D01*
X43353Y-58156D01*
X43308Y-58133D01*
X43196Y-58133D01*
X43151Y-58111D01*
X42926Y-57998D02*
X42926Y-58313D01*
X42926Y-58043D02*
X42903Y-58021D01*
X42858Y-57998D01*
X42791Y-57998D01*
X42746Y-58021D01*
X42723Y-58066D01*
X42723Y-58313D01*
X42206Y-57841D02*
X42048Y-58313D01*
X41891Y-57841D01*
X41733Y-58313D02*
X41733Y-57998D01*
X41733Y-57841D02*
X41756Y-57863D01*
X41733Y-57886D01*
X41711Y-57863D01*
X41733Y-57841D01*
X41733Y-57886D01*
X41441Y-58313D02*
X41486Y-58291D01*
X41508Y-58246D01*
X41508Y-57841D01*
X41193Y-58313D02*
X41238Y-58291D01*
X41261Y-58246D01*
X41261Y-57841D01*
X40833Y-58291D02*
X40878Y-58313D01*
X40968Y-58313D01*
X41013Y-58291D01*
X41036Y-58246D01*
X41036Y-58066D01*
X41013Y-58021D01*
X40968Y-57998D01*
X40878Y-57998D01*
X40833Y-58021D01*
X40811Y-58066D01*
X40811Y-58111D01*
X41036Y-58156D01*
X40608Y-58313D02*
X40608Y-57998D01*
X40608Y-58043D02*
X40586Y-58021D01*
X40541Y-57998D01*
X40473Y-57998D01*
X40428Y-58021D01*
X40406Y-58066D01*
X40406Y-58313D01*
X40406Y-58066D02*
X40383Y-58021D01*
X40338Y-57998D01*
X40271Y-57998D01*
X40226Y-58021D01*
X40203Y-58066D01*
X40203Y-58313D01*
X39776Y-58313D02*
X39776Y-58066D01*
X39798Y-58021D01*
X39843Y-57998D01*
X39933Y-57998D01*
X39978Y-58021D01*
X39776Y-58291D02*
X39821Y-58313D01*
X39933Y-58313D01*
X39978Y-58291D01*
X40001Y-58246D01*
X40001Y-58201D01*
X39978Y-58156D01*
X39933Y-58133D01*
X39821Y-58133D01*
X39776Y-58111D01*
X39551Y-58313D02*
X39551Y-57998D01*
X39551Y-57841D02*
X39574Y-57863D01*
X39551Y-57886D01*
X39529Y-57863D01*
X39551Y-57841D01*
X39551Y-57886D01*
X39326Y-58313D02*
X39326Y-57998D01*
X39326Y-58088D02*
X39304Y-58043D01*
X39281Y-58021D01*
X39236Y-57998D01*
X39191Y-57998D01*
X38854Y-58291D02*
X38899Y-58313D01*
X38989Y-58313D01*
X39034Y-58291D01*
X39056Y-58246D01*
X39056Y-58066D01*
X39034Y-58021D01*
X38989Y-57998D01*
X38899Y-57998D01*
X38854Y-58021D01*
X38831Y-58066D01*
X38831Y-58111D01*
X39056Y-58156D01*
X38629Y-58133D02*
X38269Y-58133D01*
X38044Y-58313D02*
X38044Y-57841D01*
X37774Y-58313D02*
X37976Y-58043D01*
X37774Y-57841D02*
X38044Y-58111D01*
X37571Y-58313D02*
X37571Y-57998D01*
X37571Y-58088D02*
X37549Y-58043D01*
X37526Y-58021D01*
X37481Y-57998D01*
X37436Y-57998D01*
X37076Y-58313D02*
X37076Y-58066D01*
X37099Y-58021D01*
X37144Y-57998D01*
X37234Y-57998D01*
X37279Y-58021D01*
X37076Y-58291D02*
X37121Y-58313D01*
X37234Y-58313D01*
X37279Y-58291D01*
X37301Y-58246D01*
X37301Y-58201D01*
X37279Y-58156D01*
X37234Y-58133D01*
X37121Y-58133D01*
X37076Y-58111D01*
X36851Y-57998D02*
X36851Y-58403D01*
X36874Y-58448D01*
X36919Y-58471D01*
X36941Y-58471D01*
X36851Y-57841D02*
X36874Y-57863D01*
X36851Y-57886D01*
X36829Y-57863D01*
X36851Y-57841D01*
X36851Y-57886D01*
X36424Y-58313D02*
X36424Y-57841D01*
X36424Y-58291D02*
X36469Y-58313D01*
X36559Y-58313D01*
X36604Y-58291D01*
X36626Y-58268D01*
X36649Y-58223D01*
X36649Y-58088D01*
X36626Y-58043D01*
X36604Y-58021D01*
X36559Y-57998D01*
X36469Y-57998D01*
X36424Y-58021D01*
X36019Y-58291D02*
X36064Y-58313D01*
X36154Y-58313D01*
X36199Y-58291D01*
X36221Y-58246D01*
X36221Y-58066D01*
X36199Y-58021D01*
X36154Y-57998D01*
X36064Y-57998D01*
X36019Y-58021D01*
X35996Y-58066D01*
X35996Y-58111D01*
X36221Y-58156D01*
X35794Y-57998D02*
X35794Y-58313D01*
X35794Y-58043D02*
X35771Y-58021D01*
X35726Y-57998D01*
X35659Y-57998D01*
X35614Y-58021D01*
X35592Y-58066D01*
X35592Y-58313D01*
X44512Y-59022D02*
X44512Y-58549D01*
X44309Y-59022D02*
X44309Y-58774D01*
X44332Y-58729D01*
X44377Y-58707D01*
X44444Y-58707D01*
X44489Y-58729D01*
X44512Y-58752D01*
X44152Y-58707D02*
X43972Y-58707D01*
X44084Y-58549D02*
X44084Y-58954D01*
X44062Y-58999D01*
X44017Y-59022D01*
X43972Y-59022D01*
X43882Y-58707D02*
X43702Y-58707D01*
X43814Y-58549D02*
X43814Y-58954D01*
X43792Y-58999D01*
X43747Y-59022D01*
X43702Y-59022D01*
X43544Y-58707D02*
X43544Y-59179D01*
X43544Y-58729D02*
X43499Y-58707D01*
X43409Y-58707D01*
X43364Y-58729D01*
X43342Y-58752D01*
X43319Y-58797D01*
X43319Y-58932D01*
X43342Y-58977D01*
X43364Y-58999D01*
X43409Y-59022D01*
X43499Y-59022D01*
X43544Y-58999D01*
X43117Y-58977D02*
X43094Y-58999D01*
X43117Y-59022D01*
X43139Y-58999D01*
X43117Y-58977D01*
X43117Y-59022D01*
X43117Y-58729D02*
X43094Y-58752D01*
X43117Y-58774D01*
X43139Y-58752D01*
X43117Y-58729D01*
X43117Y-58774D01*
X42554Y-58527D02*
X42959Y-59134D01*
X42059Y-58527D02*
X42464Y-59134D01*
X41902Y-58707D02*
X41902Y-59112D01*
X41924Y-59157D01*
X41969Y-59179D01*
X41992Y-59179D01*
X41902Y-58549D02*
X41924Y-58572D01*
X41902Y-58594D01*
X41879Y-58572D01*
X41902Y-58549D01*
X41902Y-58594D01*
X41677Y-58842D02*
X41317Y-58842D01*
X41137Y-58707D02*
X41025Y-59022D01*
X40912Y-58707D01*
X40732Y-59022D02*
X40732Y-58549D01*
X40687Y-58842D02*
X40552Y-59022D01*
X40552Y-58707D02*
X40732Y-58887D01*
X40350Y-58977D02*
X40327Y-58999D01*
X40350Y-59022D01*
X40372Y-58999D01*
X40350Y-58977D01*
X40350Y-59022D01*
X39922Y-58999D02*
X39967Y-59022D01*
X40057Y-59022D01*
X40102Y-58999D01*
X40125Y-58977D01*
X40147Y-58932D01*
X40147Y-58797D01*
X40125Y-58752D01*
X40102Y-58729D01*
X40057Y-58707D01*
X39967Y-58707D01*
X39922Y-58729D01*
X39652Y-59022D02*
X39697Y-58999D01*
X39720Y-58977D01*
X39742Y-58932D01*
X39742Y-58797D01*
X39720Y-58752D01*
X39697Y-58729D01*
X39652Y-58707D01*
X39585Y-58707D01*
X39540Y-58729D01*
X39517Y-58752D01*
X39495Y-58797D01*
X39495Y-58932D01*
X39517Y-58977D01*
X39540Y-58999D01*
X39585Y-59022D01*
X39652Y-59022D01*
X39292Y-59022D02*
X39292Y-58707D01*
X39292Y-58752D02*
X39270Y-58729D01*
X39225Y-58707D01*
X39157Y-58707D01*
X39112Y-58729D01*
X39090Y-58774D01*
X39090Y-59022D01*
X39090Y-58774D02*
X39067Y-58729D01*
X39022Y-58707D01*
X38955Y-58707D01*
X38910Y-58729D01*
X38887Y-58774D01*
X38887Y-59022D01*
G54D12*
X39150Y-65150D02*
X39150Y-65650D01*
X39650Y-65150D02*
X39650Y-65640D01*
X39800Y-65150D02*
X39000Y-65150D01*
X39000Y-65150D02*
X39000Y-65650D01*
X39000Y-65650D02*
X39800Y-65650D01*
X39800Y-65650D02*
X39800Y-65150D01*
X38050Y-68450D02*
X37550Y-68450D01*
X38050Y-68950D02*
X37560Y-68950D01*
X38050Y-69100D02*
X38050Y-68300D01*
X38050Y-68300D02*
X37550Y-68300D01*
X37550Y-68300D02*
X37550Y-69100D01*
X37550Y-69100D02*
X38050Y-69100D01*
X39450Y-68450D02*
X38950Y-68450D01*
X39450Y-68950D02*
X38960Y-68950D01*
X39450Y-69100D02*
X39450Y-68300D01*
X39450Y-68300D02*
X38950Y-68300D01*
X38950Y-68300D02*
X38950Y-69100D01*
X38950Y-69100D02*
X39450Y-69100D01*
X40300Y-68450D02*
X39800Y-68450D01*
X40300Y-68950D02*
X39810Y-68950D01*
X40300Y-69100D02*
X40300Y-68300D01*
X40300Y-68300D02*
X39800Y-68300D01*
X39800Y-68300D02*
X39800Y-69100D01*
X39800Y-69100D02*
X40300Y-69100D01*
X47850Y-59900D02*
X47850Y-58600D01*
X46550Y-59900D02*
X46550Y-58600D01*
X46300Y-59900D02*
X46300Y-58600D01*
X46300Y-58600D02*
X48100Y-58600D01*
X48100Y-58600D02*
X48100Y-59900D01*
X48100Y-59900D02*
X46300Y-59900D01*
G54D13*
X37797Y-60452D02*
X38033Y-60452D01*
X38033Y-60452D02*
X38033Y-61948D01*
X38033Y-61948D02*
X37797Y-61948D01*
X37403Y-61948D02*
X37167Y-61948D01*
X37167Y-61948D02*
X37167Y-60452D01*
X37167Y-60452D02*
X37403Y-60452D01*
X37797Y-62752D02*
X38033Y-62752D01*
X38033Y-62752D02*
X38033Y-64248D01*
X38033Y-64248D02*
X37797Y-64248D01*
X37403Y-64248D02*
X37167Y-64248D01*
X37167Y-64248D02*
X37167Y-62752D01*
X37167Y-62752D02*
X37403Y-62752D01*
X41848Y-63997D02*
X41848Y-64233D01*
X41848Y-64233D02*
X40352Y-64233D01*
X40352Y-64233D02*
X40352Y-63997D01*
X40352Y-63603D02*
X40352Y-63367D01*
X40352Y-63367D02*
X41848Y-63367D01*
X41848Y-63367D02*
X41848Y-63603D01*
X46273Y-72019D02*
X46588Y-72019D01*
X47691Y-68081D02*
X47927Y-68081D01*
X47927Y-68081D02*
X47927Y-72019D01*
X47927Y-72019D02*
X47612Y-72019D01*
X46273Y-71979D02*
X46273Y-69459D01*
X46273Y-69459D02*
X46273Y-68081D01*
X46273Y-68081D02*
X46509Y-68081D01*
X44273Y-69519D02*
X44588Y-69519D01*
X45691Y-65581D02*
X45927Y-65581D01*
X45927Y-65581D02*
X45927Y-69519D01*
X45927Y-69519D02*
X45612Y-69519D01*
X44273Y-69479D02*
X44273Y-66959D01*
X44273Y-66959D02*
X44273Y-65581D01*
X44273Y-65581D02*
X44509Y-65581D01*
G54D10*
X44250Y-60850D02*
X42800Y-60850D01*
X42800Y-60850D02*
X44250Y-60850D01*
X44250Y-62850D02*
X44250Y-60850D01*
X42800Y-62850D02*
X42800Y-60850D01*
X42550Y-62850D02*
X44350Y-62850D01*
X44350Y-62850D02*
X44350Y-60850D01*
X44350Y-60850D02*
X42550Y-60850D01*
X42550Y-60850D02*
X42550Y-62850D01*
G54D14*
X39419Y-65052D02*
X39425Y-65057D01*
X39442Y-65063D01*
X39453Y-65063D01*
X39470Y-65057D01*
X39481Y-65046D01*
X39487Y-65035D01*
X39492Y-65012D01*
X39492Y-64995D01*
X39487Y-64973D01*
X39481Y-64962D01*
X39470Y-64951D01*
X39453Y-64945D01*
X39442Y-64945D01*
X39425Y-64951D01*
X39419Y-64956D01*
X39307Y-65063D02*
X39374Y-65063D01*
X39341Y-65063D02*
X39341Y-64945D01*
X39352Y-64962D01*
X39363Y-64973D01*
X39374Y-64979D01*
X38232Y-68680D02*
X38237Y-68674D01*
X38243Y-68657D01*
X38243Y-68646D01*
X38237Y-68629D01*
X38226Y-68618D01*
X38215Y-68612D01*
X38192Y-68607D01*
X38175Y-68607D01*
X38153Y-68612D01*
X38142Y-68618D01*
X38131Y-68629D01*
X38125Y-68646D01*
X38125Y-68657D01*
X38131Y-68674D01*
X38136Y-68680D01*
X38125Y-68719D02*
X38125Y-68792D01*
X38170Y-68753D01*
X38170Y-68770D01*
X38175Y-68781D01*
X38181Y-68787D01*
X38192Y-68792D01*
X38220Y-68792D01*
X38232Y-68787D01*
X38237Y-68781D01*
X38243Y-68770D01*
X38243Y-68736D01*
X38237Y-68725D01*
X38232Y-68719D01*
X39632Y-68680D02*
X39637Y-68674D01*
X39643Y-68657D01*
X39643Y-68646D01*
X39637Y-68629D01*
X39626Y-68618D01*
X39615Y-68612D01*
X39592Y-68607D01*
X39575Y-68607D01*
X39553Y-68612D01*
X39542Y-68618D01*
X39531Y-68629D01*
X39525Y-68646D01*
X39525Y-68657D01*
X39531Y-68674D01*
X39536Y-68680D01*
X39525Y-68787D02*
X39525Y-68730D01*
X39581Y-68725D01*
X39575Y-68730D01*
X39570Y-68742D01*
X39570Y-68770D01*
X39575Y-68781D01*
X39581Y-68787D01*
X39592Y-68792D01*
X39620Y-68792D01*
X39632Y-68787D01*
X39637Y-68781D01*
X39643Y-68770D01*
X39643Y-68742D01*
X39637Y-68730D01*
X39632Y-68725D01*
X40482Y-68680D02*
X40487Y-68674D01*
X40493Y-68657D01*
X40493Y-68646D01*
X40487Y-68629D01*
X40476Y-68618D01*
X40465Y-68612D01*
X40442Y-68607D01*
X40425Y-68607D01*
X40403Y-68612D01*
X40392Y-68618D01*
X40381Y-68629D01*
X40375Y-68646D01*
X40375Y-68657D01*
X40381Y-68674D01*
X40386Y-68680D01*
X40375Y-68781D02*
X40375Y-68759D01*
X40381Y-68747D01*
X40386Y-68742D01*
X40403Y-68730D01*
X40425Y-68725D01*
X40470Y-68725D01*
X40482Y-68730D01*
X40487Y-68736D01*
X40493Y-68747D01*
X40493Y-68770D01*
X40487Y-68781D01*
X40482Y-68787D01*
X40470Y-68792D01*
X40442Y-68792D01*
X40431Y-68787D01*
X40425Y-68781D01*
X40420Y-68770D01*
X40420Y-68747D01*
X40425Y-68736D01*
X40431Y-68730D01*
X40442Y-68725D01*
G54D15*
X47232Y-60220D02*
X47242Y-60229D01*
X47270Y-60239D01*
X47289Y-60239D01*
X47317Y-60229D01*
X47336Y-60210D01*
X47345Y-60192D01*
X47354Y-60154D01*
X47354Y-60126D01*
X47345Y-60089D01*
X47336Y-60070D01*
X47317Y-60051D01*
X47289Y-60042D01*
X47270Y-60042D01*
X47242Y-60051D01*
X47232Y-60060D01*
X47120Y-60126D02*
X47139Y-60117D01*
X47148Y-60107D01*
X47157Y-60089D01*
X47157Y-60079D01*
X47148Y-60060D01*
X47139Y-60051D01*
X47120Y-60042D01*
X47082Y-60042D01*
X47063Y-60051D01*
X47054Y-60060D01*
X47045Y-60079D01*
X47045Y-60089D01*
X47054Y-60107D01*
X47063Y-60117D01*
X47082Y-60126D01*
X47120Y-60126D01*
X47139Y-60135D01*
X47148Y-60145D01*
X47157Y-60164D01*
X47157Y-60201D01*
X47148Y-60220D01*
X47139Y-60229D01*
X47120Y-60239D01*
X47082Y-60239D01*
X47063Y-60229D01*
X47054Y-60220D01*
X47045Y-60201D01*
X47045Y-60164D01*
X47054Y-60145D01*
X47063Y-60135D01*
X47082Y-60126D01*
G54D10*
X36878Y-61134D02*
X36690Y-61003D01*
X36878Y-60909D02*
X36484Y-60909D01*
X36484Y-61059D01*
X36503Y-61096D01*
X36521Y-61115D01*
X36559Y-61134D01*
X36615Y-61134D01*
X36653Y-61115D01*
X36671Y-61096D01*
X36690Y-61059D01*
X36690Y-60909D01*
X36521Y-61284D02*
X36503Y-61303D01*
X36484Y-61340D01*
X36484Y-61434D01*
X36503Y-61471D01*
X36521Y-61490D01*
X36559Y-61509D01*
X36596Y-61509D01*
X36653Y-61490D01*
X36878Y-61265D01*
X36878Y-61509D01*
X38678Y-63534D02*
X38490Y-63403D01*
X38678Y-63309D02*
X38284Y-63309D01*
X38284Y-63459D01*
X38303Y-63496D01*
X38321Y-63515D01*
X38359Y-63534D01*
X38415Y-63534D01*
X38453Y-63515D01*
X38471Y-63496D01*
X38490Y-63459D01*
X38490Y-63309D01*
X38284Y-63665D02*
X38284Y-63909D01*
X38434Y-63778D01*
X38434Y-63834D01*
X38453Y-63871D01*
X38471Y-63890D01*
X38509Y-63909D01*
X38603Y-63909D01*
X38640Y-63890D01*
X38659Y-63871D01*
X38678Y-63834D01*
X38678Y-63721D01*
X38659Y-63684D01*
X38640Y-63665D01*
X41415Y-64728D02*
X41546Y-64540D01*
X41640Y-64728D02*
X41640Y-64334D01*
X41490Y-64334D01*
X41453Y-64353D01*
X41434Y-64371D01*
X41415Y-64409D01*
X41415Y-64465D01*
X41434Y-64503D01*
X41453Y-64521D01*
X41490Y-64540D01*
X41640Y-64540D01*
X41078Y-64465D02*
X41078Y-64728D01*
X41171Y-64315D02*
X41265Y-64596D01*
X41021Y-64596D01*
X48528Y-69984D02*
X48340Y-69853D01*
X48528Y-69759D02*
X48134Y-69759D01*
X48134Y-69909D01*
X48153Y-69946D01*
X48171Y-69965D01*
X48209Y-69984D01*
X48265Y-69984D01*
X48303Y-69965D01*
X48321Y-69946D01*
X48340Y-69909D01*
X48340Y-69759D01*
X48134Y-70115D02*
X48134Y-70378D01*
X48528Y-70209D01*
X44058Y-67523D02*
X43870Y-67392D01*
X44058Y-67298D02*
X43664Y-67298D01*
X43664Y-67448D01*
X43683Y-67485D01*
X43701Y-67504D01*
X43739Y-67523D01*
X43795Y-67523D01*
X43833Y-67504D01*
X43851Y-67485D01*
X43870Y-67448D01*
X43870Y-67298D01*
X43833Y-67748D02*
X43814Y-67710D01*
X43795Y-67692D01*
X43758Y-67673D01*
X43739Y-67673D01*
X43701Y-67692D01*
X43683Y-67710D01*
X43664Y-67748D01*
X43664Y-67823D01*
X43683Y-67860D01*
X43701Y-67879D01*
X43739Y-67898D01*
X43758Y-67898D01*
X43795Y-67879D01*
X43814Y-67860D01*
X43833Y-67823D01*
X43833Y-67748D01*
X43851Y-67710D01*
X43870Y-67692D01*
X43908Y-67673D01*
X43983Y-67673D01*
X44020Y-67692D01*
X44039Y-67710D01*
X44058Y-67748D01*
X44058Y-67823D01*
X44039Y-67860D01*
X44020Y-67879D01*
X43983Y-67898D01*
X43908Y-67898D01*
X43870Y-67879D01*
X43851Y-67860D01*
X43833Y-67823D01*
X43649Y-63034D02*
X43649Y-63353D01*
X43631Y-63390D01*
X43612Y-63409D01*
X43574Y-63428D01*
X43499Y-63428D01*
X43462Y-63409D01*
X43443Y-63390D01*
X43424Y-63353D01*
X43424Y-63034D01*
X43256Y-63071D02*
X43237Y-63053D01*
X43200Y-63034D01*
X43106Y-63034D01*
X43068Y-63053D01*
X43050Y-63071D01*
X43031Y-63109D01*
X43031Y-63146D01*
X43050Y-63203D01*
X43275Y-63428D01*
X43031Y-63428D01*
G54D11*
X45090Y-60334D02*
X45015Y-60334D01*
X44977Y-60353D01*
X44940Y-60390D01*
X44921Y-60465D01*
X44921Y-60596D01*
X44940Y-60671D01*
X44977Y-60709D01*
X45015Y-60728D01*
X45090Y-60728D01*
X45127Y-60709D01*
X45165Y-60671D01*
X45184Y-60596D01*
X45184Y-60465D01*
X45165Y-60390D01*
X45127Y-60353D01*
X45090Y-60334D01*
X44752Y-60728D02*
X44752Y-60334D01*
X44602Y-60334D01*
X44565Y-60353D01*
X44546Y-60371D01*
X44527Y-60409D01*
X44527Y-60465D01*
X44546Y-60503D01*
X44565Y-60521D01*
X44602Y-60540D01*
X44752Y-60540D01*
X44415Y-60334D02*
X44190Y-60334D01*
X44303Y-60728D02*
X44303Y-60334D01*
X43984Y-60334D02*
X43909Y-60334D01*
X43871Y-60353D01*
X43834Y-60390D01*
X43815Y-60465D01*
X43815Y-60596D01*
X43834Y-60671D01*
X43871Y-60709D01*
X43909Y-60728D01*
X43984Y-60728D01*
X44021Y-60709D01*
X44059Y-60671D01*
X44078Y-60596D01*
X44078Y-60465D01*
X44059Y-60390D01*
X44021Y-60353D01*
X43984Y-60334D01*
X43646Y-60578D02*
X43346Y-60578D01*
X43215Y-60334D02*
X42990Y-60334D01*
X43103Y-60728D02*
X43103Y-60334D01*
X42634Y-60728D02*
X42765Y-60540D01*
X42859Y-60728D02*
X42859Y-60334D01*
X42709Y-60334D01*
X42671Y-60353D01*
X42653Y-60371D01*
X42634Y-60409D01*
X42634Y-60465D01*
X42653Y-60503D01*
X42671Y-60521D01*
X42709Y-60540D01*
X42859Y-60540D01*
X42465Y-60728D02*
X42465Y-60334D01*
X42297Y-60615D02*
X42109Y-60615D01*
X42334Y-60728D02*
X42203Y-60334D01*
X42072Y-60728D01*
X41715Y-60690D02*
X41734Y-60709D01*
X41790Y-60728D01*
X41828Y-60728D01*
X41884Y-60709D01*
X41922Y-60671D01*
X41940Y-60634D01*
X41959Y-60559D01*
X41959Y-60503D01*
X41940Y-60428D01*
X41922Y-60390D01*
X41884Y-60353D01*
X41828Y-60334D01*
X41790Y-60334D01*
X41734Y-60353D01*
X41715Y-60371D01*
M02*
