G04 #@! TF.FileFunction,Soldermask,Top*
%FSLAX46Y46*%
G04 Gerber Fmt 4.6, Leading zero omitted, Abs format (unit mm)*
G04 Created by KiCad (PCBNEW (after 2015-mar-04 BZR unknown)-product) date Wed 10 Jun 2015 04:01:36 PM EDT*
%MOMM*%
G01*
G04 APERTURE LIST*
%ADD10C,0.150000*%
%ADD11R,1.727200X1.727200*%
%ADD12O,1.727200X1.727200*%
%ADD13R,1.300480X1.498600*%
%ADD14R,0.797560X0.797560*%
%ADD15R,0.700000X1.000000*%
%ADD16R,2.540000X2.540000*%
%ADD17C,2.540000*%
%ADD18R,2.000000X3.000000*%
%ADD19C,2.000000*%
%ADD20C,1.500000*%
%ADD21R,1.397000X1.397000*%
%ADD22C,1.397000*%
%ADD23R,0.800100X1.198880*%
%ADD24R,3.657600X2.032000*%
%ADD25R,1.016000X2.032000*%
%ADD26C,1.778000*%
%ADD27R,1.778000X1.778000*%
%ADD28C,1.000760*%
%ADD29R,2.032000X2.032000*%
%ADD30O,2.032000X2.032000*%
%ADD31R,0.250000X0.700000*%
%ADD32R,0.700000X0.250000*%
%ADD33R,1.725000X1.725000*%
%ADD34C,4.064000*%
%ADD35R,0.762000X0.431800*%
%ADD36R,2.550160X2.499360*%
%ADD37R,0.700000X1.300000*%
G04 APERTURE END LIST*
D10*
D11*
X103759000Y-166370000D03*
D12*
X103759000Y-168910000D03*
X103759000Y-171450000D03*
X106299000Y-171450000D03*
X106299000Y-168910000D03*
X106299000Y-166370000D03*
D13*
X99123500Y-166116000D03*
X101028500Y-166116000D03*
D14*
X86220300Y-171196000D03*
X84721700Y-171196000D03*
X86220300Y-173228000D03*
X84721700Y-173228000D03*
D15*
X117750000Y-174085000D03*
X117750000Y-170085000D03*
X123550000Y-174085000D03*
X123550000Y-170085000D03*
D14*
X86220300Y-175133000D03*
X84721700Y-175133000D03*
D16*
X128651000Y-156718000D03*
D17*
X128651000Y-161798000D03*
X128651000Y-166878000D03*
D18*
X87122000Y-159766000D03*
D19*
X92202000Y-157226000D03*
X92202000Y-154686000D03*
X92202000Y-162306000D03*
X92202000Y-164846000D03*
D20*
X84582000Y-154686000D03*
X84582000Y-164846000D03*
X87122000Y-164846000D03*
X87122000Y-154686000D03*
X92202000Y-159766000D03*
D21*
X84963000Y-168656000D03*
D22*
X87503000Y-168656000D03*
X90043000Y-168656000D03*
X92583000Y-168656000D03*
D23*
X102600760Y-180975000D03*
X100599240Y-180975000D03*
D24*
X100711000Y-153289000D03*
D25*
X100711000Y-159893000D03*
X102997000Y-159893000D03*
X98425000Y-159893000D03*
D26*
X120650000Y-156845000D03*
X120650000Y-159385000D03*
D27*
X120650000Y-161925000D03*
D20*
X105156000Y-180594000D03*
X105156000Y-178054000D03*
X115316000Y-178054000D03*
X115316000Y-180594000D03*
D28*
X98945700Y-177800000D03*
X100444300Y-177800000D03*
D29*
X95885000Y-150114000D03*
D30*
X93345000Y-150114000D03*
D31*
X96675000Y-173469000D03*
X97175000Y-173469000D03*
X97675000Y-173469000D03*
X98175000Y-173469000D03*
X98675000Y-173469000D03*
X99175000Y-173469000D03*
X99675000Y-173469000D03*
X100175000Y-173469000D03*
D32*
X100825000Y-172819000D03*
X100825000Y-172319000D03*
X100825000Y-171819000D03*
X100825000Y-171319000D03*
X100825000Y-170819000D03*
X100825000Y-170319000D03*
X100825000Y-169819000D03*
X100825000Y-169319000D03*
D31*
X100175000Y-168669000D03*
X99675000Y-168669000D03*
X99175000Y-168669000D03*
X98675000Y-168669000D03*
X98175000Y-168669000D03*
X97675000Y-168669000D03*
X97175000Y-168669000D03*
X96675000Y-168669000D03*
D32*
X96025000Y-169319000D03*
X96025000Y-169819000D03*
X96025000Y-170319000D03*
X96025000Y-170819000D03*
X96025000Y-171319000D03*
X96025000Y-171819000D03*
X96025000Y-172319000D03*
X96025000Y-172819000D03*
D33*
X99287500Y-170206500D03*
X97562500Y-170206500D03*
X99287500Y-171931500D03*
X97562500Y-171931500D03*
D34*
X87630000Y-148971000D03*
X128270000Y-179070000D03*
X87630000Y-179070000D03*
X127762000Y-148971000D03*
D35*
X89789000Y-173372780D03*
X88265000Y-173372780D03*
X89789000Y-172575220D03*
X88265000Y-172575220D03*
X89789000Y-174172880D03*
X89789000Y-171775120D03*
X88265000Y-171775120D03*
X88265000Y-174172880D03*
D36*
X92344240Y-181356000D03*
X97393760Y-181356000D03*
D37*
X113350000Y-159385000D03*
X115250000Y-159385000D03*
M02*
