M48
INCH,TZ
T1C0.012
T2C0.014
T3C0.024
T4C0.025
T5C0.031
T6C0.032
T7C0.040
T8C0.047
T9C0.060
T10C0.120
%
G90
G05
T1
X38500Y-67100
X38500Y-67550
X39050Y-67100
X39050Y-67550
X39700Y-65950
T2
X33400Y-69450
X35800Y-62450
X36700Y-69150
X36800Y-67300
X36950Y-68500
X38400Y-68750
X38450Y-69550
X38500Y-62150
X38500Y-65400
X38500Y-69100
X38500Y-69950
X39175Y-64675
X39200Y-63750
X40150Y-67650
X41250Y-68400
T3
X38955Y-70000
X39545Y-70000
T4
X36350Y-70300
X44800Y-63250
X45900Y-58100
X46450Y-67500
X49250Y-71500
T5
X41400Y-70100
X41400Y-71100
X45400Y-70100
X45400Y-71100
T6
X33450Y-66400
X34450Y-66400
X35450Y-66400
X36450Y-66400
T7
X36750Y-59100
X37750Y-59100
X40850Y-65500
X40850Y-66500
X40850Y-67500
X41850Y-65500
X41850Y-66500
X41850Y-67500
X47400Y-62800
X47400Y-63800
X47400Y-64800
T8
X34300Y-62900
X36300Y-60900
X36300Y-61900
X36300Y-63900
X36300Y-64900
T9
X50650Y-61700
X50650Y-63700
X50650Y-65700
T10
X34500Y-58650
X34500Y-70500
X50300Y-58650
X50500Y-70500
T0
M30
