G04 #@! TF.FileFunction,Copper,L1,Top,Signal*
%FSLAX46Y46*%
G04 Gerber Fmt 4.6, Leading zero omitted, Abs format (unit mm)*
G04 Created by KiCad (PCBNEW (after 2015-mar-04 BZR unknown)-product) date Wed 10 Jun 2015 04:01:36 PM EDT*
%MOMM*%
G01*
G04 APERTURE LIST*
%ADD10C,0.150000*%
%ADD11R,1.727200X1.727200*%
%ADD12O,1.727200X1.727200*%
%ADD13R,1.300480X1.498600*%
%ADD14R,0.797560X0.797560*%
%ADD15R,0.700000X1.000000*%
%ADD16R,2.540000X2.540000*%
%ADD17C,2.540000*%
%ADD18R,2.000000X3.000000*%
%ADD19C,2.000000*%
%ADD20R,1.397000X1.397000*%
%ADD21C,1.397000*%
%ADD22R,0.800100X1.198880*%
%ADD23R,3.657600X2.032000*%
%ADD24R,1.016000X2.032000*%
%ADD25C,1.778000*%
%ADD26R,1.778000X1.778000*%
%ADD27C,1.500000*%
%ADD28C,1.000760*%
%ADD29R,2.032000X2.032000*%
%ADD30O,2.032000X2.032000*%
%ADD31R,0.250000X0.700000*%
%ADD32R,0.700000X0.250000*%
%ADD33R,1.725000X1.725000*%
%ADD34C,4.064000*%
%ADD35R,0.762000X0.431800*%
%ADD36R,2.550160X2.499360*%
%ADD37R,0.700000X1.300000*%
%ADD38C,0.558800*%
%ADD39C,0.508000*%
%ADD40C,0.889000*%
%ADD41C,0.400000*%
%ADD42C,0.203000*%
%ADD43C,0.254000*%
%ADD44C,2.500000*%
G04 APERTURE END LIST*
D10*
D11*
X103759000Y-166370000D03*
D12*
X103759000Y-168910000D03*
X103759000Y-171450000D03*
X106299000Y-171450000D03*
X106299000Y-168910000D03*
X106299000Y-166370000D03*
D13*
X99123500Y-166116000D03*
X101028500Y-166116000D03*
D14*
X86220300Y-171196000D03*
X84721700Y-171196000D03*
X86220300Y-173228000D03*
X84721700Y-173228000D03*
D15*
X117750000Y-174085000D03*
X117750000Y-170085000D03*
X123550000Y-174085000D03*
X123550000Y-170085000D03*
D14*
X86220300Y-175133000D03*
X84721700Y-175133000D03*
D16*
X128651000Y-156718000D03*
D17*
X128651000Y-161798000D03*
X128651000Y-166878000D03*
D18*
X87122000Y-159766000D03*
D19*
X92202000Y-157226000D03*
X92202000Y-154686000D03*
X92202000Y-162306000D03*
X92202000Y-164846000D03*
D20*
X84963000Y-168656000D03*
D21*
X87503000Y-168656000D03*
X90043000Y-168656000D03*
X92583000Y-168656000D03*
D22*
X102600760Y-180975000D03*
X100599240Y-180975000D03*
D23*
X100711000Y-153289000D03*
D24*
X100711000Y-159893000D03*
X102997000Y-159893000D03*
X98425000Y-159893000D03*
D25*
X120650000Y-156845000D03*
X120650000Y-159385000D03*
D26*
X120650000Y-161925000D03*
D27*
X105156000Y-180594000D03*
X105156000Y-178054000D03*
X115316000Y-178054000D03*
X115316000Y-180594000D03*
D28*
X98945700Y-177800000D03*
X100444300Y-177800000D03*
D29*
X95885000Y-150114000D03*
D30*
X93345000Y-150114000D03*
D31*
X96675000Y-173469000D03*
X97175000Y-173469000D03*
X97675000Y-173469000D03*
X98175000Y-173469000D03*
X98675000Y-173469000D03*
X99175000Y-173469000D03*
X99675000Y-173469000D03*
X100175000Y-173469000D03*
D32*
X100825000Y-172819000D03*
X100825000Y-172319000D03*
X100825000Y-171819000D03*
X100825000Y-171319000D03*
X100825000Y-170819000D03*
X100825000Y-170319000D03*
X100825000Y-169819000D03*
X100825000Y-169319000D03*
D31*
X100175000Y-168669000D03*
X99675000Y-168669000D03*
X99175000Y-168669000D03*
X98675000Y-168669000D03*
X98175000Y-168669000D03*
X97675000Y-168669000D03*
X97175000Y-168669000D03*
X96675000Y-168669000D03*
D32*
X96025000Y-169319000D03*
X96025000Y-169819000D03*
X96025000Y-170319000D03*
X96025000Y-170819000D03*
X96025000Y-171319000D03*
X96025000Y-171819000D03*
X96025000Y-172319000D03*
X96025000Y-172819000D03*
D33*
X99287500Y-170206500D03*
X97562500Y-170206500D03*
X99287500Y-171931500D03*
X97562500Y-171931500D03*
D34*
X87630000Y-148971000D03*
X128270000Y-179070000D03*
X87630000Y-179070000D03*
X127762000Y-148971000D03*
D35*
X89789000Y-173372780D03*
X88265000Y-173372780D03*
X89789000Y-172575220D03*
X88265000Y-172575220D03*
X89789000Y-174172880D03*
X89789000Y-171775120D03*
X88265000Y-171775120D03*
X88265000Y-174172880D03*
D36*
X92344240Y-181356000D03*
X97393760Y-181356000D03*
D37*
X113350000Y-159385000D03*
X115250000Y-159385000D03*
D38*
X97790000Y-166116000D03*
D39*
X97790000Y-171577000D03*
X97790000Y-170434000D03*
X99187000Y-171577000D03*
X99187000Y-170434000D03*
D38*
X84836000Y-176403000D03*
X99568000Y-161925000D03*
X97663000Y-176657000D03*
X97536000Y-174625000D03*
D40*
X92329000Y-178562000D03*
X114300000Y-165735000D03*
X118110000Y-168275000D03*
D38*
X93472000Y-170942000D03*
X93853000Y-173990000D03*
D40*
X114300000Y-156845000D03*
D38*
X101981000Y-171831000D03*
X104775000Y-173736000D03*
D39*
X100838000Y-167513000D03*
D38*
X99504500Y-164274500D03*
X90932000Y-158623000D03*
X97790000Y-157861000D03*
X97790000Y-175514000D03*
X97790000Y-177673000D03*
X93218000Y-175641000D03*
D41*
X124058000Y-178022000D02*
X124047000Y-178022000D01*
X124058000Y-178022000D02*
X124058000Y-177694000D01*
D42*
X99123500Y-166116000D02*
X97790000Y-166116000D01*
X98175000Y-168669000D02*
X98175000Y-167064500D01*
X98175000Y-167064500D02*
X99123500Y-166116000D01*
D43*
X84721700Y-173228000D02*
X84721700Y-175133000D01*
X84721700Y-171196000D02*
X84721700Y-173228000D01*
X84734400Y-176403000D02*
X84836000Y-176403000D01*
X84721700Y-176415700D02*
X84734400Y-176403000D01*
X84721700Y-175133000D02*
X84721700Y-176415700D01*
X98425000Y-160782000D02*
X99568000Y-161925000D01*
X98425000Y-159893000D02*
X98425000Y-160782000D01*
D42*
X97790000Y-176657000D02*
X97663000Y-176657000D01*
X98675000Y-175772000D02*
X97790000Y-176657000D01*
X98675000Y-173469000D02*
X98675000Y-175772000D01*
X97675000Y-174486000D02*
X97536000Y-174625000D01*
X97675000Y-173469000D02*
X97675000Y-174486000D01*
D41*
X92344240Y-178577240D02*
X92329000Y-178562000D01*
X92344240Y-181356000D02*
X92344240Y-178577240D01*
D42*
X98675000Y-168669000D02*
X98675000Y-167644000D01*
X99885500Y-167259000D02*
X101028500Y-166116000D01*
X99060000Y-167259000D02*
X99885500Y-167259000D01*
X98675000Y-167644000D02*
X99060000Y-167259000D01*
X99675000Y-175260000D02*
X99675000Y-175280000D01*
X99675000Y-173469000D02*
X99675000Y-175260000D01*
X98945700Y-177366300D02*
X98945700Y-177800000D01*
X99675000Y-176637000D02*
X98945700Y-177366300D01*
X99675000Y-175260000D02*
X99675000Y-176637000D01*
X100444300Y-173738300D02*
X100175000Y-173469000D01*
D43*
X100444300Y-177800000D02*
X100444300Y-173738300D01*
D44*
X128651000Y-161798000D02*
X127127000Y-161798000D01*
X120650000Y-164465000D02*
X120650000Y-161925000D01*
X124460000Y-164465000D02*
X120650000Y-164465000D01*
X127127000Y-161798000D02*
X124460000Y-164465000D01*
X128651000Y-161798000D02*
X128397000Y-161798000D01*
D43*
X86799420Y-171775120D02*
X86220300Y-171196000D01*
X88265000Y-171775120D02*
X86799420Y-171775120D01*
X86365080Y-173372780D02*
X86220300Y-173228000D01*
X88265000Y-173372780D02*
X86365080Y-173372780D01*
D41*
X117750000Y-174085000D02*
X116300000Y-174085000D01*
X116300000Y-174085000D02*
X114300000Y-172085000D01*
X114300000Y-172085000D02*
X114300000Y-165735000D01*
X118110000Y-168275000D02*
X117750000Y-168635000D01*
X117750000Y-168635000D02*
X117750000Y-170085000D01*
X123550000Y-170085000D02*
X125444000Y-170085000D01*
X125444000Y-170085000D02*
X128651000Y-166878000D01*
X123550000Y-174085000D02*
X122650000Y-174085000D01*
X122650000Y-174085000D02*
X120650000Y-172085000D01*
X120650000Y-172085000D02*
X120650000Y-168275000D01*
X120650000Y-168275000D02*
X115570000Y-163195000D01*
X115570000Y-163195000D02*
X115570000Y-159705000D01*
X115570000Y-159705000D02*
X115250000Y-159385000D01*
X120650000Y-156845000D02*
X117790000Y-156845000D01*
X117790000Y-156845000D02*
X115250000Y-159385000D01*
D44*
X128651000Y-156718000D02*
X120777000Y-156718000D01*
X120777000Y-156718000D02*
X120650000Y-156845000D01*
D43*
X87180420Y-174172880D02*
X86220300Y-175133000D01*
X88265000Y-174172880D02*
X87180420Y-174172880D01*
D42*
X95900000Y-174244000D02*
X96675000Y-173469000D01*
X95250000Y-174244000D02*
X95900000Y-174244000D01*
X94378780Y-173372780D02*
X95250000Y-174244000D01*
X89789000Y-173372780D02*
X94378780Y-173372780D01*
X100175000Y-168669000D02*
X100328298Y-168669000D01*
D43*
X105029000Y-167767000D02*
X103886000Y-168910000D01*
D42*
X105029000Y-164973000D02*
X105029000Y-167767000D01*
X102489000Y-164973000D02*
X105029000Y-164973000D01*
X102235000Y-165227000D02*
X102489000Y-164973000D01*
X102235000Y-167132000D02*
X102235000Y-165227000D01*
X101092000Y-168275000D02*
X102235000Y-167132000D01*
X100722298Y-168275000D02*
X101092000Y-168275000D01*
X100328298Y-168669000D02*
X100722298Y-168275000D01*
X103886000Y-168910000D02*
X103759000Y-168910000D01*
X100175000Y-168351002D02*
X100175000Y-168669000D01*
X91384120Y-171775120D02*
X89789000Y-171775120D01*
X92428000Y-172819000D02*
X91384120Y-171775120D01*
X96025000Y-172819000D02*
X92428000Y-172819000D01*
X84963000Y-169418000D02*
X84963000Y-168656000D01*
D43*
X85471000Y-169926000D02*
X84963000Y-169418000D01*
X86868000Y-169926000D02*
X85471000Y-169926000D01*
D42*
X87884000Y-170942000D02*
X86868000Y-169926000D01*
X91186000Y-170942000D02*
X87884000Y-170942000D01*
X92456000Y-172212000D02*
X91186000Y-170942000D01*
X92710000Y-172212000D02*
X92456000Y-172212000D01*
X92817000Y-172319000D02*
X92710000Y-172212000D01*
X96025000Y-172319000D02*
X92817000Y-172319000D01*
X92825000Y-171819000D02*
X96025000Y-171819000D01*
X91440000Y-170434000D02*
X92825000Y-171819000D01*
X89662000Y-170434000D02*
X91440000Y-170434000D01*
D43*
X87884000Y-168656000D02*
X89662000Y-170434000D01*
D42*
X87503000Y-168656000D02*
X87884000Y-168656000D01*
X93849000Y-171319000D02*
X96025000Y-171319000D01*
X93472000Y-170942000D02*
X93849000Y-171319000D01*
D43*
X93853000Y-174752000D02*
X93853000Y-173990000D01*
X98806000Y-179705000D02*
X93853000Y-174752000D01*
X100584000Y-179705000D02*
X98806000Y-179705000D01*
X103759000Y-176530000D02*
X100584000Y-179705000D01*
X103759000Y-171450000D02*
X103759000Y-176530000D01*
X94234000Y-166878000D02*
X92202000Y-164846000D01*
X94234000Y-170442000D02*
X94234000Y-166878000D01*
D42*
X94611000Y-170819000D02*
X94234000Y-170442000D01*
X96025000Y-170819000D02*
X94611000Y-170819000D01*
X94881000Y-170319000D02*
X94869000Y-170307000D01*
X96025000Y-170319000D02*
X94881000Y-170319000D01*
D43*
X94869000Y-164592000D02*
X94869000Y-170307000D01*
X93853000Y-163576000D02*
X94869000Y-164592000D01*
X93853000Y-156337000D02*
X93853000Y-163576000D01*
X92202000Y-154686000D02*
X93853000Y-156337000D01*
D42*
X106299000Y-168910000D02*
X106045000Y-168910000D01*
D43*
X106045000Y-168910000D02*
X104775000Y-170180000D01*
D42*
X102001000Y-169819000D02*
X100825000Y-169819000D01*
X102362000Y-170180000D02*
X102001000Y-169819000D01*
X104775000Y-170180000D02*
X102362000Y-170180000D01*
X106299000Y-168910000D02*
X106299000Y-169418000D01*
X106299000Y-168910000D02*
X105537000Y-168910000D01*
X103759000Y-166370000D02*
X103759000Y-166385000D01*
X103759000Y-166385000D02*
X100825000Y-169319000D01*
D43*
X102997000Y-158369000D02*
X102997000Y-159893000D01*
X98425000Y-155829000D02*
X102997000Y-158369000D01*
X95885000Y-150114000D02*
X98425000Y-155829000D01*
D41*
X114300000Y-156845000D02*
X113350000Y-157795000D01*
X113350000Y-157795000D02*
X113350000Y-159385000D01*
D42*
X102854760Y-180721000D02*
X102600760Y-180975000D01*
D43*
X105156000Y-180594000D02*
X102854760Y-180721000D01*
D42*
X101969000Y-171819000D02*
X100825000Y-171819000D01*
X101981000Y-171831000D02*
X101969000Y-171819000D01*
D43*
X104775000Y-176530000D02*
X104775000Y-173736000D01*
X103759000Y-177546000D02*
X104775000Y-176530000D01*
X103759000Y-178816000D02*
X103759000Y-177546000D01*
X105156000Y-180213000D02*
X103759000Y-178816000D01*
D42*
X105156000Y-180594000D02*
X105156000Y-180213000D01*
D43*
X106299000Y-166370000D02*
X106299000Y-165227000D01*
X100711000Y-163449000D02*
X100711000Y-159893000D01*
X101346000Y-164084000D02*
X100711000Y-163449000D01*
X105156000Y-164084000D02*
X101346000Y-164084000D01*
X106299000Y-165227000D02*
X105156000Y-164084000D01*
D42*
X99675000Y-168041000D02*
X99675000Y-168669000D01*
X99822000Y-167894000D02*
X99675000Y-168041000D01*
X100457000Y-167894000D02*
X99822000Y-167894000D01*
X100838000Y-167513000D02*
X100457000Y-167894000D01*
D43*
X100330000Y-163449000D02*
X100711000Y-163449000D01*
X99504500Y-164274500D02*
X100330000Y-163449000D01*
X89916000Y-165608000D02*
X89916000Y-159639000D01*
X89916000Y-159639000D02*
X90932000Y-158623000D01*
X92583000Y-168275000D02*
X89916000Y-165608000D01*
D42*
X92583000Y-168656000D02*
X92583000Y-168275000D01*
D43*
X99568000Y-157861000D02*
X97790000Y-157861000D01*
X100711000Y-159004000D02*
X99568000Y-157861000D01*
X100711000Y-159893000D02*
X100711000Y-159004000D01*
X89789000Y-174172880D02*
X92892880Y-174172880D01*
D42*
X98175000Y-175129000D02*
X97790000Y-175514000D01*
X98175000Y-173469000D02*
X98175000Y-175129000D01*
X97862002Y-177600998D02*
X97790000Y-177673000D01*
X97862002Y-177546000D02*
X97862002Y-177600998D01*
X99175000Y-176233002D02*
X97862002Y-177546000D01*
X99175000Y-173469000D02*
X99175000Y-176233002D01*
D43*
X92892880Y-174172880D02*
X93256100Y-174536100D01*
X93256100Y-174536100D02*
X93256100Y-175641000D01*
X93218000Y-175641000D02*
X93256100Y-175641000D01*
X97917000Y-180848000D02*
X97536000Y-181229000D01*
X100599240Y-180975000D02*
X97917000Y-180848000D01*
D41*
X97393760Y-179816760D02*
X93218000Y-175641000D01*
X97393760Y-181356000D02*
X97393760Y-179816760D01*
M02*
