M48
;DRILL file {kicad (after 2015-mar-04 BZR unknown)-product} date Wed 10 Jun 2015 04:01:28 PM EDT
;FORMAT={-:-/ absolute / inch / decimal}
FMAT,2
INCH,TZ
T1C0.012
T2C0.014
T3C0.024
T4C0.025
T5C0.031
T6C0.032
T7C0.040
T8C0.047
T9C0.060
T10C0.120
%
G90
G05
M72
T1
X3.85Y-6.71
X3.85Y-6.755
X3.905Y-6.71
X3.905Y-6.755
X3.97Y-6.595
T2
X3.34Y-6.945
X3.58Y-6.245
X3.67Y-6.915
X3.68Y-6.73
X3.695Y-6.85
X3.84Y-6.875
X3.845Y-6.955
X3.85Y-6.215
X3.85Y-6.54
X3.85Y-6.91
X3.85Y-6.995
X3.9175Y-6.4675
X3.92Y-6.375
X4.015Y-6.765
X4.125Y-6.84
T3
X3.8955Y-7.
X3.9545Y-7.
T4
X3.635Y-7.03
X4.5Y-6.175
X4.5Y-6.525
X4.65Y-6.625
T5
X4.14Y-7.01
X4.14Y-7.11
X4.54Y-7.01
X4.54Y-7.11
T6
X3.345Y-6.64
X3.445Y-6.64
X3.545Y-6.64
X3.645Y-6.64
T7
X3.675Y-5.91
X3.775Y-5.91
X4.085Y-6.55
X4.085Y-6.65
X4.085Y-6.75
X4.185Y-6.55
X4.185Y-6.65
X4.185Y-6.75
X4.75Y-6.175
X4.75Y-6.275
X4.75Y-6.375
T8
X3.43Y-6.29
X3.63Y-6.09
X3.63Y-6.19
X3.63Y-6.39
X3.63Y-6.49
T9
X5.065Y-6.17
X5.065Y-6.37
X5.065Y-6.57
T10
X3.45Y-5.865
X3.45Y-7.05
X5.03Y-5.865
X5.05Y-7.05
T0
M30
