G04 #@! TF.FileFunction,Copper,L2,Bot,Signal*
%FSLAX46Y46*%
G04 Gerber Fmt 4.6, Leading zero omitted, Abs format (unit mm)*
G04 Created by KiCad (PCBNEW (after 2015-mar-04 BZR unknown)-product) date Wed 10 Jun 2015 04:01:36 PM EDT*
%MOMM*%
G01*
G04 APERTURE LIST*
%ADD10C,0.150000*%
%ADD11R,1.727200X1.727200*%
%ADD12O,1.727200X1.727200*%
%ADD13R,1.300480X1.498600*%
%ADD14R,1.498600X1.300480*%
%ADD15R,2.540000X2.540000*%
%ADD16C,2.540000*%
%ADD17R,2.000000X3.000000*%
%ADD18C,2.000000*%
%ADD19R,1.397000X1.397000*%
%ADD20C,1.397000*%
%ADD21R,1.198880X0.800100*%
%ADD22R,0.800100X1.198880*%
%ADD23R,3.200400X1.998980*%
%ADD24R,1.140000X0.910000*%
%ADD25C,1.778000*%
%ADD26R,1.778000X1.778000*%
%ADD27C,1.500000*%
%ADD28C,1.000760*%
%ADD29R,2.032000X2.032000*%
%ADD30O,2.032000X2.032000*%
%ADD31C,4.064000*%
%ADD32C,0.558800*%
%ADD33C,0.508000*%
%ADD34C,0.889000*%
%ADD35C,0.254000*%
%ADD36C,0.203000*%
%ADD37C,0.400000*%
%ADD38C,2.500000*%
G04 APERTURE END LIST*
D10*
D11*
X103759000Y-166370000D03*
D12*
X103759000Y-168910000D03*
X103759000Y-171450000D03*
X106299000Y-171450000D03*
X106299000Y-168910000D03*
X106299000Y-166370000D03*
D13*
X99123500Y-166116000D03*
X101028500Y-166116000D03*
D14*
X96012000Y-173545500D03*
X96012000Y-175450500D03*
X99568000Y-173545500D03*
X99568000Y-175450500D03*
X101727000Y-173545500D03*
X101727000Y-175450500D03*
D15*
X128651000Y-156718000D03*
D16*
X128651000Y-161798000D03*
X128651000Y-166878000D03*
D17*
X87122000Y-159766000D03*
D18*
X92202000Y-157226000D03*
X92202000Y-154686000D03*
X92202000Y-162306000D03*
X92202000Y-164846000D03*
D19*
X84963000Y-168656000D03*
D20*
X87503000Y-168656000D03*
X90043000Y-168656000D03*
X92583000Y-168656000D03*
D21*
X95504000Y-154447240D03*
X95504000Y-156448760D03*
X95504000Y-160289240D03*
X95504000Y-162290760D03*
D22*
X105394760Y-162052000D03*
X103393240Y-162052000D03*
D23*
X120650000Y-172394880D03*
X120650000Y-179395120D03*
X114554000Y-168076880D03*
X114554000Y-175077120D03*
D24*
X107315000Y-155575000D03*
X107315000Y-153035000D03*
X113665000Y-155575000D03*
X113665000Y-153035000D03*
D25*
X120650000Y-156845000D03*
X120650000Y-159385000D03*
D26*
X120650000Y-161925000D03*
D27*
X105156000Y-180594000D03*
X105156000Y-178054000D03*
X115316000Y-178054000D03*
X115316000Y-180594000D03*
D28*
X98945700Y-177800000D03*
X100444300Y-177800000D03*
D29*
X95885000Y-150114000D03*
D30*
X93345000Y-150114000D03*
D31*
X87630000Y-148971000D03*
X128270000Y-179070000D03*
X87630000Y-179070000D03*
X127762000Y-148971000D03*
D32*
X97790000Y-166116000D03*
D33*
X97790000Y-171577000D03*
X97790000Y-170434000D03*
X99187000Y-171577000D03*
X99187000Y-170434000D03*
D32*
X84836000Y-176403000D03*
X99568000Y-161925000D03*
X97663000Y-176657000D03*
X97536000Y-174625000D03*
D34*
X92329000Y-178562000D03*
X114300000Y-165735000D03*
X118110000Y-168275000D03*
D32*
X93472000Y-170942000D03*
X93853000Y-173990000D03*
D34*
X114300000Y-156845000D03*
D32*
X101981000Y-171831000D03*
X104775000Y-173736000D03*
D33*
X100838000Y-167513000D03*
D32*
X99504500Y-164274500D03*
X90932000Y-158623000D03*
X97790000Y-157861000D03*
X97790000Y-175514000D03*
X97790000Y-177673000D03*
X93218000Y-175641000D03*
D35*
X97980500Y-171767500D02*
X97790000Y-171577000D01*
X97980500Y-171767500D02*
X99377500Y-171767500D01*
X99568000Y-171958000D02*
X99377500Y-171767500D01*
X99377500Y-171767500D02*
X99187000Y-171577000D01*
X99568000Y-171958000D02*
X99568000Y-173545500D01*
D36*
X97790000Y-166116000D02*
X99123500Y-166116000D01*
X97790000Y-170434000D02*
X97790000Y-171577000D01*
X99187000Y-170434000D02*
X99187000Y-171577000D01*
D35*
X85217000Y-176022000D02*
X88519000Y-176022000D01*
X84836000Y-176403000D02*
X85217000Y-176022000D01*
X105664000Y-155829000D02*
X107315000Y-153035000D01*
X99568000Y-161925000D02*
X105664000Y-155829000D01*
D36*
X97663000Y-176657000D02*
X97663000Y-176784000D01*
D35*
X98425000Y-173545500D02*
X96012000Y-173545500D01*
X99568000Y-173545500D02*
X98425000Y-173545500D01*
X101727000Y-173545500D02*
X99568000Y-173545500D01*
X104140000Y-177038000D02*
X105156000Y-178054000D01*
X104140000Y-175133000D02*
X104140000Y-177038000D01*
X102552500Y-173545500D02*
X104140000Y-175133000D01*
X101727000Y-173545500D02*
X102552500Y-173545500D01*
D36*
X98425000Y-176022000D02*
X98425000Y-173545500D01*
X97790000Y-176657000D02*
X98425000Y-176022000D01*
X97663000Y-176657000D02*
X97790000Y-176657000D01*
D37*
X92329000Y-178562000D02*
X92329000Y-178181000D01*
D36*
X98945700Y-176072800D02*
X99568000Y-175450500D01*
D35*
X98945700Y-177800000D02*
X98945700Y-176072800D01*
X100444300Y-176733200D02*
X101727000Y-175450500D01*
D36*
X100444300Y-177800000D02*
X100444300Y-176733200D01*
D38*
X128651000Y-161798000D02*
X127127000Y-161798000D01*
X127127000Y-161798000D02*
X124460000Y-164465000D01*
X124460000Y-164465000D02*
X123190000Y-164465000D01*
X123190000Y-164465000D02*
X120650000Y-161925000D01*
X128651000Y-161798000D02*
X125857000Y-161798000D01*
X125857000Y-161798000D02*
X124460000Y-163195000D01*
X124460000Y-163195000D02*
X121920000Y-163195000D01*
X121920000Y-163195000D02*
X120650000Y-161925000D01*
D35*
X129413000Y-161798000D02*
X128651000Y-161798000D01*
D37*
X128651000Y-161798000D02*
X128778000Y-161798000D01*
D38*
X128651000Y-161798000D02*
X128270000Y-161798000D01*
D37*
X114300000Y-165735000D02*
X114554000Y-165989000D01*
X114554000Y-165989000D02*
X114554000Y-168076880D01*
X114554000Y-168529000D02*
X114554000Y-168076880D01*
X120650000Y-172394880D02*
X119634000Y-169799000D01*
X119634000Y-169799000D02*
X118110000Y-168275000D01*
D38*
X128651000Y-156718000D02*
X126873000Y-156718000D01*
X126873000Y-156718000D02*
X125730000Y-155575000D01*
X125730000Y-155575000D02*
X121920000Y-155575000D01*
X121920000Y-155575000D02*
X120650000Y-156845000D01*
X128651000Y-156718000D02*
X120777000Y-156718000D01*
X120777000Y-156718000D02*
X120650000Y-156845000D01*
X120777000Y-156718000D02*
X120650000Y-156845000D01*
D35*
X93472000Y-173609000D02*
X93472000Y-170942000D01*
X93853000Y-173990000D02*
X93472000Y-173609000D01*
X93853000Y-163195000D02*
X92202000Y-164846000D01*
X93853000Y-161798000D02*
X93853000Y-163195000D01*
X95361760Y-160289240D02*
X93853000Y-161798000D01*
X95504000Y-160289240D02*
X95361760Y-160289240D01*
X92440760Y-154447240D02*
X92202000Y-154686000D01*
X95504000Y-154447240D02*
X92440760Y-154447240D01*
X103759000Y-166370000D02*
X103759000Y-162417760D01*
D36*
X103759000Y-162417760D02*
X103393240Y-162052000D01*
D35*
X105394760Y-162052000D02*
X105394760Y-160162240D01*
X105394760Y-160162240D02*
X107315000Y-155575000D01*
D37*
X115316000Y-180594000D02*
X120578880Y-179324000D01*
X120578880Y-179324000D02*
X120650000Y-179395120D01*
X114554000Y-175077120D02*
X114554000Y-177292000D01*
X114554000Y-177292000D02*
X115316000Y-178054000D01*
X113665000Y-155575000D02*
X113665000Y-156210000D01*
X113665000Y-156210000D02*
X114300000Y-156845000D01*
X120650000Y-159385000D02*
X118110000Y-159385000D01*
X118110000Y-159385000D02*
X116840000Y-158115000D01*
X116840000Y-158115000D02*
X116840000Y-154305000D01*
X116840000Y-154305000D02*
X115570000Y-153035000D01*
X115570000Y-153035000D02*
X113665000Y-153035000D01*
D36*
X103632000Y-173482000D02*
X101981000Y-171831000D01*
D35*
X104521000Y-173482000D02*
X103632000Y-173482000D01*
D36*
X104775000Y-173736000D02*
X104521000Y-173482000D01*
X101028500Y-166116000D02*
X101028500Y-167322500D01*
X101028500Y-167322500D02*
X100838000Y-167513000D01*
D35*
X101028500Y-165798500D02*
X101028500Y-166116000D01*
X99504500Y-164274500D02*
X101028500Y-165798500D01*
X97520760Y-162290760D02*
X99504500Y-164274500D01*
X95504000Y-162290760D02*
X97520760Y-162290760D01*
X90932000Y-158623000D02*
X94488000Y-158623000D01*
X95313500Y-157797500D02*
X95504000Y-157607000D01*
X94488000Y-158623000D02*
X95313500Y-157797500D01*
X95504000Y-157607000D02*
X95504000Y-156448760D01*
X97726500Y-157797500D02*
X95313500Y-157797500D01*
X97790000Y-157861000D02*
X97726500Y-157797500D01*
X96012000Y-175450500D02*
X93408500Y-175450500D01*
X97726500Y-164274500D02*
X99504500Y-164274500D01*
X94742000Y-167259000D02*
X97726500Y-164274500D01*
X94742000Y-174752000D02*
X94742000Y-167259000D01*
X95440500Y-175450500D02*
X94742000Y-174752000D01*
X96012000Y-175450500D02*
X95440500Y-175450500D01*
X97726500Y-175450500D02*
X96012000Y-175450500D01*
D36*
X97790000Y-175514000D02*
X97726500Y-175450500D01*
X96520000Y-177419000D02*
X95758000Y-176657000D01*
X97536000Y-177419000D02*
X96520000Y-177419000D01*
X97790000Y-177673000D02*
X97536000Y-177419000D01*
X95758000Y-175704500D02*
X96012000Y-175450500D01*
X95758000Y-176657000D02*
X95758000Y-175704500D01*
D35*
X93408500Y-175450500D02*
X93218000Y-175641000D01*
G36*
X98183700Y-176846381D02*
X97972683Y-176758759D01*
X97847908Y-176758650D01*
X97817846Y-176738563D01*
X97536000Y-176682500D01*
X97031894Y-176682500D01*
X97216227Y-176561413D01*
X97358677Y-176350380D01*
X97363376Y-176326947D01*
X97607317Y-176428241D01*
X97971087Y-176428558D01*
X98183700Y-176340707D01*
X98183700Y-176846381D01*
X98183700Y-176846381D01*
G37*
X98183700Y-176846381D02*
X97972683Y-176758759D01*
X97847908Y-176758650D01*
X97817846Y-176738563D01*
X97536000Y-176682500D01*
X97031894Y-176682500D01*
X97216227Y-176561413D01*
X97358677Y-176350380D01*
X97363376Y-176326947D01*
X97607317Y-176428241D01*
X97971087Y-176428558D01*
X98183700Y-176340707D01*
X98183700Y-176846381D01*
G36*
X102970172Y-170180000D02*
X102699330Y-170360971D01*
X102374474Y-170847152D01*
X102345602Y-170992298D01*
X102163683Y-170916759D01*
X101799913Y-170916442D01*
X101463711Y-171055358D01*
X101206262Y-171312358D01*
X101066759Y-171648317D01*
X101066442Y-172012087D01*
X101168985Y-172260260D01*
X101104009Y-172260260D01*
X100851390Y-172260260D01*
X100647500Y-172344714D01*
X100443610Y-172260260D01*
X100190991Y-172260260D01*
X99853750Y-172260260D01*
X99695000Y-172419010D01*
X99695000Y-173418500D01*
X100501450Y-173418500D01*
X100793550Y-173418500D01*
X101600000Y-173418500D01*
X101600000Y-173398500D01*
X101854000Y-173398500D01*
X101854000Y-173418500D01*
X101874000Y-173418500D01*
X101874000Y-173672500D01*
X101854000Y-173672500D01*
X101854000Y-173692500D01*
X101600000Y-173692500D01*
X101600000Y-173672500D01*
X100793550Y-173672500D01*
X100501450Y-173672500D01*
X99695000Y-173672500D01*
X99695000Y-173692500D01*
X99441000Y-173692500D01*
X99441000Y-173672500D01*
X99441000Y-173418500D01*
X99441000Y-172419010D01*
X99282250Y-172260260D01*
X98996500Y-172260260D01*
X98996500Y-167341550D01*
X98996500Y-166243000D01*
X97997010Y-166243000D01*
X97838260Y-166401750D01*
X97838260Y-166738991D01*
X97838260Y-166991610D01*
X97934933Y-167224999D01*
X98113562Y-167403627D01*
X98346951Y-167500300D01*
X98837750Y-167500300D01*
X98996500Y-167341550D01*
X98996500Y-172260260D01*
X98945009Y-172260260D01*
X98692390Y-172260260D01*
X98459001Y-172356933D01*
X98280373Y-172535562D01*
X98183700Y-172768951D01*
X98183700Y-173259750D01*
X98342450Y-173418500D01*
X99441000Y-173418500D01*
X99441000Y-173672500D01*
X98342450Y-173672500D01*
X98183700Y-173831250D01*
X98183700Y-174322049D01*
X98256680Y-174498239D01*
X98221323Y-174550620D01*
X98193112Y-174691289D01*
X97972683Y-174599759D01*
X97608913Y-174599442D01*
X97393376Y-174688500D01*
X97387056Y-174688500D01*
X97361763Y-174558137D01*
X97322970Y-174499082D01*
X97396300Y-174322049D01*
X97396300Y-173831250D01*
X97396300Y-173259750D01*
X97396300Y-172768951D01*
X97299627Y-172535562D01*
X97120999Y-172356933D01*
X96887610Y-172260260D01*
X96634991Y-172260260D01*
X96297750Y-172260260D01*
X96139000Y-172419010D01*
X96139000Y-173418500D01*
X97237550Y-173418500D01*
X97396300Y-173259750D01*
X97396300Y-173831250D01*
X97237550Y-173672500D01*
X96139000Y-173672500D01*
X96139000Y-173692500D01*
X95885000Y-173692500D01*
X95885000Y-173672500D01*
X95865000Y-173672500D01*
X95865000Y-173418500D01*
X95885000Y-173418500D01*
X95885000Y-172419010D01*
X95726250Y-172260260D01*
X95504000Y-172260260D01*
X95504000Y-167574630D01*
X97838273Y-165240357D01*
X97838260Y-165240390D01*
X97838260Y-165493009D01*
X97838260Y-165830250D01*
X97997010Y-165989000D01*
X98996500Y-165989000D01*
X98996500Y-165969000D01*
X99250500Y-165969000D01*
X99250500Y-165989000D01*
X99270500Y-165989000D01*
X99270500Y-166243000D01*
X99250500Y-166243000D01*
X99250500Y-167341550D01*
X99409250Y-167500300D01*
X99900049Y-167500300D01*
X99949028Y-167480012D01*
X99948846Y-167689057D01*
X100083903Y-168015920D01*
X100333764Y-168266218D01*
X100660391Y-168401846D01*
X101014057Y-168402154D01*
X101340920Y-168267097D01*
X101591218Y-168017236D01*
X101726846Y-167690609D01*
X101727000Y-167513536D01*
X101729102Y-167502968D01*
X101920863Y-167465763D01*
X102133667Y-167325973D01*
X102247960Y-167156653D01*
X102247960Y-167233600D01*
X102294937Y-167475723D01*
X102434727Y-167688527D01*
X102645760Y-167830977D01*
X102687104Y-167839268D01*
X102374474Y-168307152D01*
X102260400Y-168880641D01*
X102260400Y-168939359D01*
X102374474Y-169512848D01*
X102699330Y-169999029D01*
X102970172Y-170180000D01*
X102970172Y-170180000D01*
G37*
X102970172Y-170180000D02*
X102699330Y-170360971D01*
X102374474Y-170847152D01*
X102345602Y-170992298D01*
X102163683Y-170916759D01*
X101799913Y-170916442D01*
X101463711Y-171055358D01*
X101206262Y-171312358D01*
X101066759Y-171648317D01*
X101066442Y-172012087D01*
X101168985Y-172260260D01*
X101104009Y-172260260D01*
X100851390Y-172260260D01*
X100647500Y-172344714D01*
X100443610Y-172260260D01*
X100190991Y-172260260D01*
X99853750Y-172260260D01*
X99695000Y-172419010D01*
X99695000Y-173418500D01*
X100501450Y-173418500D01*
X100793550Y-173418500D01*
X101600000Y-173418500D01*
X101600000Y-173398500D01*
X101854000Y-173398500D01*
X101854000Y-173418500D01*
X101874000Y-173418500D01*
X101874000Y-173672500D01*
X101854000Y-173672500D01*
X101854000Y-173692500D01*
X101600000Y-173692500D01*
X101600000Y-173672500D01*
X100793550Y-173672500D01*
X100501450Y-173672500D01*
X99695000Y-173672500D01*
X99695000Y-173692500D01*
X99441000Y-173692500D01*
X99441000Y-173672500D01*
X99441000Y-173418500D01*
X99441000Y-172419010D01*
X99282250Y-172260260D01*
X98996500Y-172260260D01*
X98996500Y-167341550D01*
X98996500Y-166243000D01*
X97997010Y-166243000D01*
X97838260Y-166401750D01*
X97838260Y-166738991D01*
X97838260Y-166991610D01*
X97934933Y-167224999D01*
X98113562Y-167403627D01*
X98346951Y-167500300D01*
X98837750Y-167500300D01*
X98996500Y-167341550D01*
X98996500Y-172260260D01*
X98945009Y-172260260D01*
X98692390Y-172260260D01*
X98459001Y-172356933D01*
X98280373Y-172535562D01*
X98183700Y-172768951D01*
X98183700Y-173259750D01*
X98342450Y-173418500D01*
X99441000Y-173418500D01*
X99441000Y-173672500D01*
X98342450Y-173672500D01*
X98183700Y-173831250D01*
X98183700Y-174322049D01*
X98256680Y-174498239D01*
X98221323Y-174550620D01*
X98193112Y-174691289D01*
X97972683Y-174599759D01*
X97608913Y-174599442D01*
X97393376Y-174688500D01*
X97387056Y-174688500D01*
X97361763Y-174558137D01*
X97322970Y-174499082D01*
X97396300Y-174322049D01*
X97396300Y-173831250D01*
X97396300Y-173259750D01*
X97396300Y-172768951D01*
X97299627Y-172535562D01*
X97120999Y-172356933D01*
X96887610Y-172260260D01*
X96634991Y-172260260D01*
X96297750Y-172260260D01*
X96139000Y-172419010D01*
X96139000Y-173418500D01*
X97237550Y-173418500D01*
X97396300Y-173259750D01*
X97396300Y-173831250D01*
X97237550Y-173672500D01*
X96139000Y-173672500D01*
X96139000Y-173692500D01*
X95885000Y-173692500D01*
X95885000Y-173672500D01*
X95865000Y-173672500D01*
X95865000Y-173418500D01*
X95885000Y-173418500D01*
X95885000Y-172419010D01*
X95726250Y-172260260D01*
X95504000Y-172260260D01*
X95504000Y-167574630D01*
X97838273Y-165240357D01*
X97838260Y-165240390D01*
X97838260Y-165493009D01*
X97838260Y-165830250D01*
X97997010Y-165989000D01*
X98996500Y-165989000D01*
X98996500Y-165969000D01*
X99250500Y-165969000D01*
X99250500Y-165989000D01*
X99270500Y-165989000D01*
X99270500Y-166243000D01*
X99250500Y-166243000D01*
X99250500Y-167341550D01*
X99409250Y-167500300D01*
X99900049Y-167500300D01*
X99949028Y-167480012D01*
X99948846Y-167689057D01*
X100083903Y-168015920D01*
X100333764Y-168266218D01*
X100660391Y-168401846D01*
X101014057Y-168402154D01*
X101340920Y-168267097D01*
X101591218Y-168017236D01*
X101726846Y-167690609D01*
X101727000Y-167513536D01*
X101729102Y-167502968D01*
X101920863Y-167465763D01*
X102133667Y-167325973D01*
X102247960Y-167156653D01*
X102247960Y-167233600D01*
X102294937Y-167475723D01*
X102434727Y-167688527D01*
X102645760Y-167830977D01*
X102687104Y-167839268D01*
X102374474Y-168307152D01*
X102260400Y-168880641D01*
X102260400Y-168939359D01*
X102374474Y-169512848D01*
X102699330Y-169999029D01*
X102970172Y-170180000D01*
G36*
X107315000Y-176403000D02*
X106045000Y-176403000D01*
X106045000Y-176985392D01*
X105947911Y-177082480D01*
X105879923Y-176841540D01*
X105360829Y-176656799D01*
X104810552Y-176684770D01*
X104432077Y-176841540D01*
X104364088Y-177082483D01*
X105156000Y-177874395D01*
X105170142Y-177860252D01*
X105349747Y-178039857D01*
X105335605Y-178054000D01*
X105349747Y-178068142D01*
X105170142Y-178247747D01*
X105156000Y-178233605D01*
X104976395Y-178413210D01*
X104976395Y-178054000D01*
X104184483Y-177262088D01*
X103943540Y-177330077D01*
X103758799Y-177849171D01*
X103786770Y-178399448D01*
X103943540Y-178777923D01*
X104184483Y-178845912D01*
X104976395Y-178054000D01*
X104976395Y-178413210D01*
X104364088Y-179025517D01*
X104432077Y-179266460D01*
X104598621Y-179325731D01*
X104372485Y-179419169D01*
X103982539Y-179808436D01*
X103771241Y-180317298D01*
X103770760Y-180868285D01*
X103981169Y-181377515D01*
X104370436Y-181767461D01*
X104879298Y-181978759D01*
X105430285Y-181979240D01*
X105939515Y-181768831D01*
X106045000Y-181663529D01*
X106045000Y-182499000D01*
X90797583Y-182499000D01*
X90797583Y-169590188D01*
X90043000Y-168835605D01*
X89288417Y-169590188D01*
X89350071Y-169825800D01*
X89850480Y-170001927D01*
X90380199Y-169973148D01*
X90735929Y-169825800D01*
X90797583Y-169590188D01*
X90797583Y-182499000D01*
X90297462Y-182499000D01*
X90297462Y-178541828D01*
X89892291Y-177561239D01*
X89142707Y-176810345D01*
X88162827Y-176403464D01*
X87101828Y-176402538D01*
X86121239Y-176807709D01*
X85370345Y-177557293D01*
X84963464Y-178537173D01*
X84962538Y-179598172D01*
X85367709Y-180578761D01*
X86117293Y-181329655D01*
X87097173Y-181736536D01*
X88158172Y-181737462D01*
X89138761Y-181332291D01*
X89889655Y-180582707D01*
X90296536Y-179602827D01*
X90297462Y-178541828D01*
X90297462Y-182499000D01*
X84836000Y-182499000D01*
X84836000Y-170001940D01*
X85661500Y-170001940D01*
X85903623Y-169954963D01*
X86116427Y-169815173D01*
X86258877Y-169604140D01*
X86308940Y-169354500D01*
X86308940Y-169258116D01*
X86371854Y-169410380D01*
X86746647Y-169785827D01*
X87236587Y-169989268D01*
X87767086Y-169989731D01*
X88257380Y-169787146D01*
X88632827Y-169412353D01*
X88766313Y-169090881D01*
X88873200Y-169348929D01*
X89108812Y-169410583D01*
X89863395Y-168656000D01*
X89108812Y-167901417D01*
X88873200Y-167963071D01*
X88774916Y-168242311D01*
X88757000Y-168198950D01*
X88757000Y-161392310D01*
X88757000Y-161139691D01*
X88757000Y-160051750D01*
X88757000Y-159480250D01*
X88757000Y-158392309D01*
X88757000Y-158139690D01*
X88660327Y-157906301D01*
X88481698Y-157727673D01*
X88248309Y-157631000D01*
X87407750Y-157631000D01*
X87249000Y-157789750D01*
X87249000Y-159639000D01*
X88598250Y-159639000D01*
X88757000Y-159480250D01*
X88757000Y-160051750D01*
X88598250Y-159893000D01*
X87249000Y-159893000D01*
X87249000Y-161742250D01*
X87407750Y-161901000D01*
X88248309Y-161901000D01*
X88481698Y-161804327D01*
X88660327Y-161625699D01*
X88757000Y-161392310D01*
X88757000Y-168198950D01*
X88634146Y-167901620D01*
X88259353Y-167526173D01*
X87769413Y-167322732D01*
X87238914Y-167322269D01*
X86748620Y-167524854D01*
X86373173Y-167899647D01*
X86308940Y-168054337D01*
X86308940Y-167957500D01*
X86261963Y-167715377D01*
X86122173Y-167502573D01*
X85911140Y-167360123D01*
X85661500Y-167310060D01*
X84836000Y-167310060D01*
X84836000Y-166231222D01*
X84856285Y-166231240D01*
X85365515Y-166020831D01*
X85755461Y-165631564D01*
X85851976Y-165399129D01*
X85947169Y-165629515D01*
X86336436Y-166019461D01*
X86845298Y-166230759D01*
X87396285Y-166231240D01*
X87905515Y-166020831D01*
X88295461Y-165631564D01*
X88506759Y-165122702D01*
X88507240Y-164571715D01*
X88296831Y-164062485D01*
X87907564Y-163672539D01*
X87398702Y-163461241D01*
X86995000Y-163460888D01*
X86995000Y-161742250D01*
X86995000Y-159893000D01*
X86995000Y-159639000D01*
X86995000Y-157789750D01*
X86836250Y-157631000D01*
X85995691Y-157631000D01*
X85762302Y-157727673D01*
X85583673Y-157906301D01*
X85487000Y-158139690D01*
X85487000Y-158392309D01*
X85487000Y-159480250D01*
X85645750Y-159639000D01*
X86995000Y-159639000D01*
X86995000Y-159893000D01*
X85645750Y-159893000D01*
X85487000Y-160051750D01*
X85487000Y-161139691D01*
X85487000Y-161392310D01*
X85583673Y-161625699D01*
X85762302Y-161804327D01*
X85995691Y-161901000D01*
X86836250Y-161901000D01*
X86995000Y-161742250D01*
X86995000Y-163460888D01*
X86847715Y-163460760D01*
X86338485Y-163671169D01*
X85948539Y-164060436D01*
X85852023Y-164292870D01*
X85756831Y-164062485D01*
X85367564Y-163672539D01*
X84858702Y-163461241D01*
X84836000Y-163461221D01*
X84836000Y-156071222D01*
X84856285Y-156071240D01*
X85365515Y-155860831D01*
X85755461Y-155471564D01*
X85851976Y-155239129D01*
X85947169Y-155469515D01*
X86336436Y-155859461D01*
X86845298Y-156070759D01*
X87396285Y-156071240D01*
X87905515Y-155860831D01*
X88295461Y-155471564D01*
X88506759Y-154962702D01*
X88507240Y-154411715D01*
X88296831Y-153902485D01*
X87907564Y-153512539D01*
X87398702Y-153301241D01*
X86847715Y-153300760D01*
X86338485Y-153511169D01*
X85948539Y-153900436D01*
X85852023Y-154132870D01*
X85756831Y-153902485D01*
X85367564Y-153512539D01*
X84858702Y-153301241D01*
X84836000Y-153301221D01*
X84836000Y-146304000D01*
X87100709Y-146304000D01*
X86121239Y-146708709D01*
X85370345Y-147458293D01*
X84963464Y-148438173D01*
X84962538Y-149499172D01*
X85367709Y-150479761D01*
X86117293Y-151230655D01*
X87097173Y-151637536D01*
X88158172Y-151638462D01*
X89138761Y-151233291D01*
X89889655Y-150483707D01*
X90296536Y-149503827D01*
X90297462Y-148442828D01*
X89892291Y-147462239D01*
X89142707Y-146711345D01*
X88162827Y-146304464D01*
X87631181Y-146304000D01*
X107315000Y-146304000D01*
X107315000Y-151945000D01*
X107187998Y-151945000D01*
X107187998Y-152103748D01*
X107029250Y-151945000D01*
X106618691Y-151945000D01*
X106385302Y-152041673D01*
X106206673Y-152220301D01*
X106110000Y-152453690D01*
X106110000Y-152706309D01*
X106110000Y-152749250D01*
X106268750Y-152908000D01*
X107188000Y-152908000D01*
X107188000Y-152888000D01*
X107315000Y-152888000D01*
X107315000Y-153182000D01*
X107188000Y-153182000D01*
X107188000Y-153162000D01*
X106268750Y-153162000D01*
X106110000Y-153320750D01*
X106110000Y-153363691D01*
X106110000Y-153616310D01*
X106206673Y-153849699D01*
X106385302Y-154028327D01*
X106618691Y-154125000D01*
X107029250Y-154125000D01*
X107187998Y-153966252D01*
X107187998Y-154125000D01*
X107188000Y-154125000D01*
X107315000Y-154125000D01*
X107315000Y-154472560D01*
X107188000Y-154472560D01*
X106745000Y-154472560D01*
X106502877Y-154519537D01*
X106290073Y-154659327D01*
X106147623Y-154870360D01*
X106097560Y-155120000D01*
X106097560Y-156030000D01*
X106144537Y-156272123D01*
X106176648Y-156321007D01*
X104691860Y-159868003D01*
X104691571Y-159869426D01*
X104690764Y-159870635D01*
X104662042Y-160015026D01*
X104632765Y-160159389D01*
X104633043Y-160160815D01*
X104632760Y-160162240D01*
X104632760Y-160930810D01*
X104539783Y-160991887D01*
X104397333Y-161202920D01*
X104394772Y-161215689D01*
X104393753Y-161210437D01*
X104253963Y-160997633D01*
X104042930Y-160855183D01*
X103793290Y-160805120D01*
X102993190Y-160805120D01*
X102751067Y-160852097D01*
X102538263Y-160991887D01*
X102395813Y-161202920D01*
X102345750Y-161452560D01*
X102345750Y-162651440D01*
X102392727Y-162893563D01*
X102532517Y-163106367D01*
X102743550Y-163248817D01*
X102993190Y-163298880D01*
X102997000Y-163298880D01*
X102997000Y-164858960D01*
X102895400Y-164858960D01*
X102653277Y-164905937D01*
X102440473Y-165045727D01*
X102303325Y-165248904D01*
X102279203Y-165124577D01*
X102139413Y-164911773D01*
X101928380Y-164769323D01*
X101678740Y-164719260D01*
X101026890Y-164719260D01*
X100419042Y-164111412D01*
X100419058Y-164093413D01*
X100280142Y-163757211D01*
X100023142Y-163499762D01*
X99687183Y-163360259D01*
X99667872Y-163360242D01*
X98059575Y-161751945D01*
X97812365Y-161586764D01*
X97520760Y-161528760D01*
X96625189Y-161528760D01*
X96564113Y-161435783D01*
X96353080Y-161293333D01*
X96340310Y-161290772D01*
X96345563Y-161289753D01*
X96558367Y-161149963D01*
X96700817Y-160938930D01*
X96750880Y-160689290D01*
X96750880Y-159889190D01*
X96703903Y-159647067D01*
X96564113Y-159434263D01*
X96353080Y-159291813D01*
X96103440Y-159241750D01*
X94907184Y-159241750D01*
X95026815Y-159161815D01*
X95629130Y-158559500D01*
X97195252Y-158559500D01*
X97271358Y-158635738D01*
X97607317Y-158775241D01*
X97971087Y-158775558D01*
X98307289Y-158636642D01*
X98564738Y-158379642D01*
X98704241Y-158043683D01*
X98704558Y-157679913D01*
X98565642Y-157343711D01*
X98308642Y-157086262D01*
X97972683Y-156946759D01*
X97608913Y-156946442D01*
X97548440Y-156971428D01*
X97548440Y-151130000D01*
X97548440Y-149098000D01*
X97501463Y-148855877D01*
X97361673Y-148643073D01*
X97150640Y-148500623D01*
X96901000Y-148450560D01*
X94869000Y-148450560D01*
X94626877Y-148497537D01*
X94414073Y-148637327D01*
X94317163Y-148780893D01*
X94313379Y-148776812D01*
X93727946Y-148508017D01*
X93472000Y-148626633D01*
X93472000Y-149987000D01*
X93492000Y-149987000D01*
X93492000Y-150241000D01*
X93472000Y-150241000D01*
X93472000Y-151601367D01*
X93727946Y-151719983D01*
X94313379Y-151451188D01*
X94317532Y-151446708D01*
X94408327Y-151584927D01*
X94619360Y-151727377D01*
X94869000Y-151777440D01*
X96901000Y-151777440D01*
X97143123Y-151730463D01*
X97355927Y-151590673D01*
X97498377Y-151379640D01*
X97548440Y-151130000D01*
X97548440Y-156971428D01*
X97393376Y-157035500D01*
X96713441Y-157035500D01*
X96750880Y-156848810D01*
X96750880Y-156048710D01*
X96703903Y-155806587D01*
X96564113Y-155593783D01*
X96353080Y-155451333D01*
X96340310Y-155448772D01*
X96345563Y-155447753D01*
X96558367Y-155307963D01*
X96700817Y-155096930D01*
X96750880Y-154847290D01*
X96750880Y-154047190D01*
X96703903Y-153805067D01*
X96564113Y-153592263D01*
X96353080Y-153449813D01*
X96103440Y-153399750D01*
X94904560Y-153399750D01*
X94662437Y-153446727D01*
X94449633Y-153586517D01*
X94382993Y-153685240D01*
X93513209Y-153685240D01*
X93218000Y-153389514D01*
X93218000Y-151601367D01*
X93218000Y-150241000D01*
X93218000Y-149987000D01*
X93218000Y-148626633D01*
X92962054Y-148508017D01*
X92376621Y-148776812D01*
X91938615Y-149249182D01*
X91739025Y-149731056D01*
X91858164Y-149987000D01*
X93218000Y-149987000D01*
X93218000Y-150241000D01*
X91858164Y-150241000D01*
X91739025Y-150496944D01*
X91938615Y-150978818D01*
X92376621Y-151451188D01*
X92962054Y-151719983D01*
X93218000Y-151601367D01*
X93218000Y-153389514D01*
X93129363Y-153300722D01*
X92528648Y-153051284D01*
X91878205Y-153050716D01*
X91277057Y-153299106D01*
X90816722Y-153758637D01*
X90567284Y-154359352D01*
X90566716Y-155009795D01*
X90815106Y-155610943D01*
X91159759Y-155956199D01*
X90816722Y-156298637D01*
X90567284Y-156899352D01*
X90566716Y-157549795D01*
X90649569Y-157750316D01*
X90414711Y-157847358D01*
X90157262Y-158104358D01*
X90017759Y-158440317D01*
X90017442Y-158804087D01*
X90156358Y-159140289D01*
X90413358Y-159397738D01*
X90749317Y-159537241D01*
X90817199Y-159537300D01*
X90816760Y-160040285D01*
X91027169Y-160549515D01*
X91361348Y-160884277D01*
X91277057Y-160919106D01*
X90816722Y-161378637D01*
X90567284Y-161979352D01*
X90566716Y-162629795D01*
X90815106Y-163230943D01*
X91159759Y-163576199D01*
X90816722Y-163918637D01*
X90567284Y-164519352D01*
X90566716Y-165169795D01*
X90815106Y-165770943D01*
X91274637Y-166231278D01*
X91875352Y-166480716D01*
X92525795Y-166481284D01*
X93126943Y-166232894D01*
X93587278Y-165773363D01*
X93836716Y-165172648D01*
X93837284Y-164522205D01*
X93768907Y-164356722D01*
X94391815Y-163733815D01*
X94391816Y-163733815D01*
X94556996Y-163486605D01*
X94556997Y-163486604D01*
X94603383Y-163253399D01*
X94654920Y-163288187D01*
X94904560Y-163338250D01*
X96103440Y-163338250D01*
X96345563Y-163291273D01*
X96558367Y-163151483D01*
X96625006Y-163052760D01*
X97205129Y-163052760D01*
X97675095Y-163522725D01*
X97434895Y-163570504D01*
X97187684Y-163735685D01*
X94203185Y-166720185D01*
X94038004Y-166967395D01*
X93980000Y-167259000D01*
X93980000Y-170162843D01*
X93916731Y-170136571D01*
X93916731Y-168391914D01*
X93714146Y-167901620D01*
X93339353Y-167526173D01*
X92849413Y-167322732D01*
X92318914Y-167322269D01*
X91828620Y-167524854D01*
X91453173Y-167899647D01*
X91319686Y-168221118D01*
X91212800Y-167963071D01*
X90977188Y-167901417D01*
X90797583Y-168081022D01*
X90797583Y-167721812D01*
X90735929Y-167486200D01*
X90235520Y-167310073D01*
X89705801Y-167338852D01*
X89350071Y-167486200D01*
X89288417Y-167721812D01*
X90043000Y-168476395D01*
X90797583Y-167721812D01*
X90797583Y-168081022D01*
X90222605Y-168656000D01*
X90977188Y-169410583D01*
X91212800Y-169348929D01*
X91311083Y-169069688D01*
X91451854Y-169410380D01*
X91826647Y-169785827D01*
X92316587Y-169989268D01*
X92847086Y-169989731D01*
X93337380Y-169787146D01*
X93712827Y-169412353D01*
X93916268Y-168922413D01*
X93916731Y-168391914D01*
X93916731Y-170136571D01*
X93654683Y-170027759D01*
X93290913Y-170027442D01*
X92954711Y-170166358D01*
X92697262Y-170423358D01*
X92557759Y-170759317D01*
X92557442Y-171123087D01*
X92696358Y-171459289D01*
X92710000Y-171472954D01*
X92710000Y-173609000D01*
X92768004Y-173900605D01*
X92933185Y-174147815D01*
X92938457Y-174153087D01*
X92938442Y-174171087D01*
X93077358Y-174507289D01*
X93283144Y-174713434D01*
X93216965Y-174726598D01*
X93216964Y-174726598D01*
X93036913Y-174726442D01*
X92700711Y-174865358D01*
X92443262Y-175122358D01*
X92303759Y-175458317D01*
X92303442Y-175822087D01*
X92442358Y-176158289D01*
X92699358Y-176415738D01*
X93035317Y-176555241D01*
X93399087Y-176555558D01*
X93735289Y-176416642D01*
X93939787Y-176212500D01*
X94636943Y-176212500D01*
X94662237Y-176342863D01*
X94802027Y-176555667D01*
X95013060Y-176698117D01*
X95030369Y-176701588D01*
X95077563Y-176938846D01*
X95237216Y-177177784D01*
X95999216Y-177939784D01*
X96238154Y-178099437D01*
X96520000Y-178155500D01*
X96999983Y-178155500D01*
X97014358Y-178190289D01*
X97271358Y-178447738D01*
X97607317Y-178587241D01*
X97971087Y-178587558D01*
X98081905Y-178541768D01*
X98301719Y-178761967D01*
X98718868Y-178935182D01*
X99170550Y-178935576D01*
X99588001Y-178763089D01*
X99694906Y-178656370D01*
X99800319Y-178761967D01*
X100217468Y-178935182D01*
X100669150Y-178935576D01*
X101086601Y-178763089D01*
X101406267Y-178443981D01*
X101579482Y-178026832D01*
X101579876Y-177575150D01*
X101407389Y-177157699D01*
X101252545Y-177002584D01*
X101506950Y-176748180D01*
X102476300Y-176748180D01*
X102718423Y-176701203D01*
X102931227Y-176561413D01*
X103073677Y-176350380D01*
X103123740Y-176100740D01*
X103123740Y-174800260D01*
X103076763Y-174558137D01*
X103037970Y-174499082D01*
X103111300Y-174322049D01*
X103111300Y-174032919D01*
X103340395Y-174185996D01*
X103632000Y-174244000D01*
X103995519Y-174244000D01*
X103999358Y-174253289D01*
X104256358Y-174510738D01*
X104592317Y-174650241D01*
X104956087Y-174650558D01*
X105292289Y-174511642D01*
X105549738Y-174254642D01*
X105689241Y-173918683D01*
X105689558Y-173554913D01*
X105550642Y-173218711D01*
X105293642Y-172961262D01*
X104957683Y-172821759D01*
X104877984Y-172821689D01*
X104812605Y-172778004D01*
X104541673Y-172724112D01*
X104818670Y-172539029D01*
X105034663Y-172215771D01*
X105092179Y-172338490D01*
X105524053Y-172732688D01*
X105939974Y-172904958D01*
X106172000Y-172783817D01*
X106172000Y-171577000D01*
X106152000Y-171577000D01*
X106152000Y-171323000D01*
X106172000Y-171323000D01*
X106172000Y-171303000D01*
X106426000Y-171303000D01*
X106426000Y-171323000D01*
X106446000Y-171323000D01*
X106446000Y-171577000D01*
X106426000Y-171577000D01*
X106426000Y-172783817D01*
X106658026Y-172904958D01*
X107073947Y-172732688D01*
X107315000Y-172512664D01*
X107315000Y-176403000D01*
X107315000Y-176403000D01*
G37*
X107315000Y-176403000D02*
X106045000Y-176403000D01*
X106045000Y-176985392D01*
X105947911Y-177082480D01*
X105879923Y-176841540D01*
X105360829Y-176656799D01*
X104810552Y-176684770D01*
X104432077Y-176841540D01*
X104364088Y-177082483D01*
X105156000Y-177874395D01*
X105170142Y-177860252D01*
X105349747Y-178039857D01*
X105335605Y-178054000D01*
X105349747Y-178068142D01*
X105170142Y-178247747D01*
X105156000Y-178233605D01*
X104976395Y-178413210D01*
X104976395Y-178054000D01*
X104184483Y-177262088D01*
X103943540Y-177330077D01*
X103758799Y-177849171D01*
X103786770Y-178399448D01*
X103943540Y-178777923D01*
X104184483Y-178845912D01*
X104976395Y-178054000D01*
X104976395Y-178413210D01*
X104364088Y-179025517D01*
X104432077Y-179266460D01*
X104598621Y-179325731D01*
X104372485Y-179419169D01*
X103982539Y-179808436D01*
X103771241Y-180317298D01*
X103770760Y-180868285D01*
X103981169Y-181377515D01*
X104370436Y-181767461D01*
X104879298Y-181978759D01*
X105430285Y-181979240D01*
X105939515Y-181768831D01*
X106045000Y-181663529D01*
X106045000Y-182499000D01*
X90797583Y-182499000D01*
X90797583Y-169590188D01*
X90043000Y-168835605D01*
X89288417Y-169590188D01*
X89350071Y-169825800D01*
X89850480Y-170001927D01*
X90380199Y-169973148D01*
X90735929Y-169825800D01*
X90797583Y-169590188D01*
X90797583Y-182499000D01*
X90297462Y-182499000D01*
X90297462Y-178541828D01*
X89892291Y-177561239D01*
X89142707Y-176810345D01*
X88162827Y-176403464D01*
X87101828Y-176402538D01*
X86121239Y-176807709D01*
X85370345Y-177557293D01*
X84963464Y-178537173D01*
X84962538Y-179598172D01*
X85367709Y-180578761D01*
X86117293Y-181329655D01*
X87097173Y-181736536D01*
X88158172Y-181737462D01*
X89138761Y-181332291D01*
X89889655Y-180582707D01*
X90296536Y-179602827D01*
X90297462Y-178541828D01*
X90297462Y-182499000D01*
X84836000Y-182499000D01*
X84836000Y-170001940D01*
X85661500Y-170001940D01*
X85903623Y-169954963D01*
X86116427Y-169815173D01*
X86258877Y-169604140D01*
X86308940Y-169354500D01*
X86308940Y-169258116D01*
X86371854Y-169410380D01*
X86746647Y-169785827D01*
X87236587Y-169989268D01*
X87767086Y-169989731D01*
X88257380Y-169787146D01*
X88632827Y-169412353D01*
X88766313Y-169090881D01*
X88873200Y-169348929D01*
X89108812Y-169410583D01*
X89863395Y-168656000D01*
X89108812Y-167901417D01*
X88873200Y-167963071D01*
X88774916Y-168242311D01*
X88757000Y-168198950D01*
X88757000Y-161392310D01*
X88757000Y-161139691D01*
X88757000Y-160051750D01*
X88757000Y-159480250D01*
X88757000Y-158392309D01*
X88757000Y-158139690D01*
X88660327Y-157906301D01*
X88481698Y-157727673D01*
X88248309Y-157631000D01*
X87407750Y-157631000D01*
X87249000Y-157789750D01*
X87249000Y-159639000D01*
X88598250Y-159639000D01*
X88757000Y-159480250D01*
X88757000Y-160051750D01*
X88598250Y-159893000D01*
X87249000Y-159893000D01*
X87249000Y-161742250D01*
X87407750Y-161901000D01*
X88248309Y-161901000D01*
X88481698Y-161804327D01*
X88660327Y-161625699D01*
X88757000Y-161392310D01*
X88757000Y-168198950D01*
X88634146Y-167901620D01*
X88259353Y-167526173D01*
X87769413Y-167322732D01*
X87238914Y-167322269D01*
X86748620Y-167524854D01*
X86373173Y-167899647D01*
X86308940Y-168054337D01*
X86308940Y-167957500D01*
X86261963Y-167715377D01*
X86122173Y-167502573D01*
X85911140Y-167360123D01*
X85661500Y-167310060D01*
X84836000Y-167310060D01*
X84836000Y-166231222D01*
X84856285Y-166231240D01*
X85365515Y-166020831D01*
X85755461Y-165631564D01*
X85851976Y-165399129D01*
X85947169Y-165629515D01*
X86336436Y-166019461D01*
X86845298Y-166230759D01*
X87396285Y-166231240D01*
X87905515Y-166020831D01*
X88295461Y-165631564D01*
X88506759Y-165122702D01*
X88507240Y-164571715D01*
X88296831Y-164062485D01*
X87907564Y-163672539D01*
X87398702Y-163461241D01*
X86995000Y-163460888D01*
X86995000Y-161742250D01*
X86995000Y-159893000D01*
X86995000Y-159639000D01*
X86995000Y-157789750D01*
X86836250Y-157631000D01*
X85995691Y-157631000D01*
X85762302Y-157727673D01*
X85583673Y-157906301D01*
X85487000Y-158139690D01*
X85487000Y-158392309D01*
X85487000Y-159480250D01*
X85645750Y-159639000D01*
X86995000Y-159639000D01*
X86995000Y-159893000D01*
X85645750Y-159893000D01*
X85487000Y-160051750D01*
X85487000Y-161139691D01*
X85487000Y-161392310D01*
X85583673Y-161625699D01*
X85762302Y-161804327D01*
X85995691Y-161901000D01*
X86836250Y-161901000D01*
X86995000Y-161742250D01*
X86995000Y-163460888D01*
X86847715Y-163460760D01*
X86338485Y-163671169D01*
X85948539Y-164060436D01*
X85852023Y-164292870D01*
X85756831Y-164062485D01*
X85367564Y-163672539D01*
X84858702Y-163461241D01*
X84836000Y-163461221D01*
X84836000Y-156071222D01*
X84856285Y-156071240D01*
X85365515Y-155860831D01*
X85755461Y-155471564D01*
X85851976Y-155239129D01*
X85947169Y-155469515D01*
X86336436Y-155859461D01*
X86845298Y-156070759D01*
X87396285Y-156071240D01*
X87905515Y-155860831D01*
X88295461Y-155471564D01*
X88506759Y-154962702D01*
X88507240Y-154411715D01*
X88296831Y-153902485D01*
X87907564Y-153512539D01*
X87398702Y-153301241D01*
X86847715Y-153300760D01*
X86338485Y-153511169D01*
X85948539Y-153900436D01*
X85852023Y-154132870D01*
X85756831Y-153902485D01*
X85367564Y-153512539D01*
X84858702Y-153301241D01*
X84836000Y-153301221D01*
X84836000Y-146304000D01*
X87100709Y-146304000D01*
X86121239Y-146708709D01*
X85370345Y-147458293D01*
X84963464Y-148438173D01*
X84962538Y-149499172D01*
X85367709Y-150479761D01*
X86117293Y-151230655D01*
X87097173Y-151637536D01*
X88158172Y-151638462D01*
X89138761Y-151233291D01*
X89889655Y-150483707D01*
X90296536Y-149503827D01*
X90297462Y-148442828D01*
X89892291Y-147462239D01*
X89142707Y-146711345D01*
X88162827Y-146304464D01*
X87631181Y-146304000D01*
X107315000Y-146304000D01*
X107315000Y-151945000D01*
X107187998Y-151945000D01*
X107187998Y-152103748D01*
X107029250Y-151945000D01*
X106618691Y-151945000D01*
X106385302Y-152041673D01*
X106206673Y-152220301D01*
X106110000Y-152453690D01*
X106110000Y-152706309D01*
X106110000Y-152749250D01*
X106268750Y-152908000D01*
X107188000Y-152908000D01*
X107188000Y-152888000D01*
X107315000Y-152888000D01*
X107315000Y-153182000D01*
X107188000Y-153182000D01*
X107188000Y-153162000D01*
X106268750Y-153162000D01*
X106110000Y-153320750D01*
X106110000Y-153363691D01*
X106110000Y-153616310D01*
X106206673Y-153849699D01*
X106385302Y-154028327D01*
X106618691Y-154125000D01*
X107029250Y-154125000D01*
X107187998Y-153966252D01*
X107187998Y-154125000D01*
X107188000Y-154125000D01*
X107315000Y-154125000D01*
X107315000Y-154472560D01*
X107188000Y-154472560D01*
X106745000Y-154472560D01*
X106502877Y-154519537D01*
X106290073Y-154659327D01*
X106147623Y-154870360D01*
X106097560Y-155120000D01*
X106097560Y-156030000D01*
X106144537Y-156272123D01*
X106176648Y-156321007D01*
X104691860Y-159868003D01*
X104691571Y-159869426D01*
X104690764Y-159870635D01*
X104662042Y-160015026D01*
X104632765Y-160159389D01*
X104633043Y-160160815D01*
X104632760Y-160162240D01*
X104632760Y-160930810D01*
X104539783Y-160991887D01*
X104397333Y-161202920D01*
X104394772Y-161215689D01*
X104393753Y-161210437D01*
X104253963Y-160997633D01*
X104042930Y-160855183D01*
X103793290Y-160805120D01*
X102993190Y-160805120D01*
X102751067Y-160852097D01*
X102538263Y-160991887D01*
X102395813Y-161202920D01*
X102345750Y-161452560D01*
X102345750Y-162651440D01*
X102392727Y-162893563D01*
X102532517Y-163106367D01*
X102743550Y-163248817D01*
X102993190Y-163298880D01*
X102997000Y-163298880D01*
X102997000Y-164858960D01*
X102895400Y-164858960D01*
X102653277Y-164905937D01*
X102440473Y-165045727D01*
X102303325Y-165248904D01*
X102279203Y-165124577D01*
X102139413Y-164911773D01*
X101928380Y-164769323D01*
X101678740Y-164719260D01*
X101026890Y-164719260D01*
X100419042Y-164111412D01*
X100419058Y-164093413D01*
X100280142Y-163757211D01*
X100023142Y-163499762D01*
X99687183Y-163360259D01*
X99667872Y-163360242D01*
X98059575Y-161751945D01*
X97812365Y-161586764D01*
X97520760Y-161528760D01*
X96625189Y-161528760D01*
X96564113Y-161435783D01*
X96353080Y-161293333D01*
X96340310Y-161290772D01*
X96345563Y-161289753D01*
X96558367Y-161149963D01*
X96700817Y-160938930D01*
X96750880Y-160689290D01*
X96750880Y-159889190D01*
X96703903Y-159647067D01*
X96564113Y-159434263D01*
X96353080Y-159291813D01*
X96103440Y-159241750D01*
X94907184Y-159241750D01*
X95026815Y-159161815D01*
X95629130Y-158559500D01*
X97195252Y-158559500D01*
X97271358Y-158635738D01*
X97607317Y-158775241D01*
X97971087Y-158775558D01*
X98307289Y-158636642D01*
X98564738Y-158379642D01*
X98704241Y-158043683D01*
X98704558Y-157679913D01*
X98565642Y-157343711D01*
X98308642Y-157086262D01*
X97972683Y-156946759D01*
X97608913Y-156946442D01*
X97548440Y-156971428D01*
X97548440Y-151130000D01*
X97548440Y-149098000D01*
X97501463Y-148855877D01*
X97361673Y-148643073D01*
X97150640Y-148500623D01*
X96901000Y-148450560D01*
X94869000Y-148450560D01*
X94626877Y-148497537D01*
X94414073Y-148637327D01*
X94317163Y-148780893D01*
X94313379Y-148776812D01*
X93727946Y-148508017D01*
X93472000Y-148626633D01*
X93472000Y-149987000D01*
X93492000Y-149987000D01*
X93492000Y-150241000D01*
X93472000Y-150241000D01*
X93472000Y-151601367D01*
X93727946Y-151719983D01*
X94313379Y-151451188D01*
X94317532Y-151446708D01*
X94408327Y-151584927D01*
X94619360Y-151727377D01*
X94869000Y-151777440D01*
X96901000Y-151777440D01*
X97143123Y-151730463D01*
X97355927Y-151590673D01*
X97498377Y-151379640D01*
X97548440Y-151130000D01*
X97548440Y-156971428D01*
X97393376Y-157035500D01*
X96713441Y-157035500D01*
X96750880Y-156848810D01*
X96750880Y-156048710D01*
X96703903Y-155806587D01*
X96564113Y-155593783D01*
X96353080Y-155451333D01*
X96340310Y-155448772D01*
X96345563Y-155447753D01*
X96558367Y-155307963D01*
X96700817Y-155096930D01*
X96750880Y-154847290D01*
X96750880Y-154047190D01*
X96703903Y-153805067D01*
X96564113Y-153592263D01*
X96353080Y-153449813D01*
X96103440Y-153399750D01*
X94904560Y-153399750D01*
X94662437Y-153446727D01*
X94449633Y-153586517D01*
X94382993Y-153685240D01*
X93513209Y-153685240D01*
X93218000Y-153389514D01*
X93218000Y-151601367D01*
X93218000Y-150241000D01*
X93218000Y-149987000D01*
X93218000Y-148626633D01*
X92962054Y-148508017D01*
X92376621Y-148776812D01*
X91938615Y-149249182D01*
X91739025Y-149731056D01*
X91858164Y-149987000D01*
X93218000Y-149987000D01*
X93218000Y-150241000D01*
X91858164Y-150241000D01*
X91739025Y-150496944D01*
X91938615Y-150978818D01*
X92376621Y-151451188D01*
X92962054Y-151719983D01*
X93218000Y-151601367D01*
X93218000Y-153389514D01*
X93129363Y-153300722D01*
X92528648Y-153051284D01*
X91878205Y-153050716D01*
X91277057Y-153299106D01*
X90816722Y-153758637D01*
X90567284Y-154359352D01*
X90566716Y-155009795D01*
X90815106Y-155610943D01*
X91159759Y-155956199D01*
X90816722Y-156298637D01*
X90567284Y-156899352D01*
X90566716Y-157549795D01*
X90649569Y-157750316D01*
X90414711Y-157847358D01*
X90157262Y-158104358D01*
X90017759Y-158440317D01*
X90017442Y-158804087D01*
X90156358Y-159140289D01*
X90413358Y-159397738D01*
X90749317Y-159537241D01*
X90817199Y-159537300D01*
X90816760Y-160040285D01*
X91027169Y-160549515D01*
X91361348Y-160884277D01*
X91277057Y-160919106D01*
X90816722Y-161378637D01*
X90567284Y-161979352D01*
X90566716Y-162629795D01*
X90815106Y-163230943D01*
X91159759Y-163576199D01*
X90816722Y-163918637D01*
X90567284Y-164519352D01*
X90566716Y-165169795D01*
X90815106Y-165770943D01*
X91274637Y-166231278D01*
X91875352Y-166480716D01*
X92525795Y-166481284D01*
X93126943Y-166232894D01*
X93587278Y-165773363D01*
X93836716Y-165172648D01*
X93837284Y-164522205D01*
X93768907Y-164356722D01*
X94391815Y-163733815D01*
X94391816Y-163733815D01*
X94556996Y-163486605D01*
X94556997Y-163486604D01*
X94603383Y-163253399D01*
X94654920Y-163288187D01*
X94904560Y-163338250D01*
X96103440Y-163338250D01*
X96345563Y-163291273D01*
X96558367Y-163151483D01*
X96625006Y-163052760D01*
X97205129Y-163052760D01*
X97675095Y-163522725D01*
X97434895Y-163570504D01*
X97187684Y-163735685D01*
X94203185Y-166720185D01*
X94038004Y-166967395D01*
X93980000Y-167259000D01*
X93980000Y-170162843D01*
X93916731Y-170136571D01*
X93916731Y-168391914D01*
X93714146Y-167901620D01*
X93339353Y-167526173D01*
X92849413Y-167322732D01*
X92318914Y-167322269D01*
X91828620Y-167524854D01*
X91453173Y-167899647D01*
X91319686Y-168221118D01*
X91212800Y-167963071D01*
X90977188Y-167901417D01*
X90797583Y-168081022D01*
X90797583Y-167721812D01*
X90735929Y-167486200D01*
X90235520Y-167310073D01*
X89705801Y-167338852D01*
X89350071Y-167486200D01*
X89288417Y-167721812D01*
X90043000Y-168476395D01*
X90797583Y-167721812D01*
X90797583Y-168081022D01*
X90222605Y-168656000D01*
X90977188Y-169410583D01*
X91212800Y-169348929D01*
X91311083Y-169069688D01*
X91451854Y-169410380D01*
X91826647Y-169785827D01*
X92316587Y-169989268D01*
X92847086Y-169989731D01*
X93337380Y-169787146D01*
X93712827Y-169412353D01*
X93916268Y-168922413D01*
X93916731Y-168391914D01*
X93916731Y-170136571D01*
X93654683Y-170027759D01*
X93290913Y-170027442D01*
X92954711Y-170166358D01*
X92697262Y-170423358D01*
X92557759Y-170759317D01*
X92557442Y-171123087D01*
X92696358Y-171459289D01*
X92710000Y-171472954D01*
X92710000Y-173609000D01*
X92768004Y-173900605D01*
X92933185Y-174147815D01*
X92938457Y-174153087D01*
X92938442Y-174171087D01*
X93077358Y-174507289D01*
X93283144Y-174713434D01*
X93216965Y-174726598D01*
X93216964Y-174726598D01*
X93036913Y-174726442D01*
X92700711Y-174865358D01*
X92443262Y-175122358D01*
X92303759Y-175458317D01*
X92303442Y-175822087D01*
X92442358Y-176158289D01*
X92699358Y-176415738D01*
X93035317Y-176555241D01*
X93399087Y-176555558D01*
X93735289Y-176416642D01*
X93939787Y-176212500D01*
X94636943Y-176212500D01*
X94662237Y-176342863D01*
X94802027Y-176555667D01*
X95013060Y-176698117D01*
X95030369Y-176701588D01*
X95077563Y-176938846D01*
X95237216Y-177177784D01*
X95999216Y-177939784D01*
X96238154Y-178099437D01*
X96520000Y-178155500D01*
X96999983Y-178155500D01*
X97014358Y-178190289D01*
X97271358Y-178447738D01*
X97607317Y-178587241D01*
X97971087Y-178587558D01*
X98081905Y-178541768D01*
X98301719Y-178761967D01*
X98718868Y-178935182D01*
X99170550Y-178935576D01*
X99588001Y-178763089D01*
X99694906Y-178656370D01*
X99800319Y-178761967D01*
X100217468Y-178935182D01*
X100669150Y-178935576D01*
X101086601Y-178763089D01*
X101406267Y-178443981D01*
X101579482Y-178026832D01*
X101579876Y-177575150D01*
X101407389Y-177157699D01*
X101252545Y-177002584D01*
X101506950Y-176748180D01*
X102476300Y-176748180D01*
X102718423Y-176701203D01*
X102931227Y-176561413D01*
X103073677Y-176350380D01*
X103123740Y-176100740D01*
X103123740Y-174800260D01*
X103076763Y-174558137D01*
X103037970Y-174499082D01*
X103111300Y-174322049D01*
X103111300Y-174032919D01*
X103340395Y-174185996D01*
X103632000Y-174244000D01*
X103995519Y-174244000D01*
X103999358Y-174253289D01*
X104256358Y-174510738D01*
X104592317Y-174650241D01*
X104956087Y-174650558D01*
X105292289Y-174511642D01*
X105549738Y-174254642D01*
X105689241Y-173918683D01*
X105689558Y-173554913D01*
X105550642Y-173218711D01*
X105293642Y-172961262D01*
X104957683Y-172821759D01*
X104877984Y-172821689D01*
X104812605Y-172778004D01*
X104541673Y-172724112D01*
X104818670Y-172539029D01*
X105034663Y-172215771D01*
X105092179Y-172338490D01*
X105524053Y-172732688D01*
X105939974Y-172904958D01*
X106172000Y-172783817D01*
X106172000Y-171577000D01*
X106152000Y-171577000D01*
X106152000Y-171323000D01*
X106172000Y-171323000D01*
X106172000Y-171303000D01*
X106426000Y-171303000D01*
X106426000Y-171323000D01*
X106446000Y-171323000D01*
X106446000Y-171577000D01*
X106426000Y-171577000D01*
X106426000Y-172783817D01*
X106658026Y-172904958D01*
X107073947Y-172732688D01*
X107315000Y-172512664D01*
X107315000Y-176403000D01*
M02*
