%FSLAX34Y34*%
G04 Gerber Fmt 3.4, Leading zero omitted, Abs format*
G04 (created by PCBNEW (2014-jan-25)-product) date Thu 28 May 2015 05:52:09 PM EDT*
%MOIN*%
G01*
G70*
G90*
G04 APERTURE LIST*
%ADD10C,0.005906*%
%ADD11R,0.059000X0.051200*%
%ADD12R,0.059100X0.076800*%
%ADD13R,0.070900X0.145700*%
%ADD14R,0.100000X0.100000*%
%ADD15C,0.100000*%
%ADD16R,0.078740X0.118110*%
%ADD17C,0.078740*%
%ADD18C,0.059055*%
%ADD19R,0.055000X0.055000*%
%ADD20C,0.055000*%
%ADD21R,0.068000X0.068000*%
%ADD22O,0.068000X0.068000*%
%ADD23R,0.047200X0.031500*%
%ADD24R,0.078700X0.126000*%
%ADD25R,0.080000X0.144000*%
%ADD26R,0.080000X0.040000*%
%ADD27C,0.070000*%
%ADD28R,0.070000X0.070000*%
%ADD29C,0.039400*%
%ADD30R,0.080000X0.080000*%
%ADD31O,0.080000X0.080000*%
%ADD32C,0.160000*%
G04 APERTURE END LIST*
G54D10*
G54D11*
X38250Y-57875D03*
X38250Y-57125D03*
G54D12*
X39500Y-57285D03*
X39500Y-56215D03*
G54D13*
X49807Y-62500D03*
X48193Y-62500D03*
X50057Y-59750D03*
X48443Y-59750D03*
G54D14*
X54750Y-56250D03*
G54D15*
X54750Y-58250D03*
X54750Y-60250D03*
G54D16*
X34250Y-56000D03*
G54D17*
X36250Y-55000D03*
X36250Y-54000D03*
X36250Y-57000D03*
X36250Y-58000D03*
G54D18*
X33250Y-54000D03*
X33250Y-58000D03*
X34250Y-58000D03*
X34250Y-54000D03*
X36250Y-56000D03*
G54D19*
X40750Y-54000D03*
G54D20*
X41750Y-54000D03*
X42750Y-54000D03*
X43750Y-54000D03*
G54D21*
X42000Y-62750D03*
G54D22*
X43000Y-62750D03*
X44000Y-62750D03*
X44000Y-61750D03*
X43000Y-61750D03*
X42000Y-61750D03*
G54D23*
X38250Y-54644D03*
X38250Y-53856D03*
G54D24*
X53128Y-54250D03*
X50372Y-54250D03*
X50878Y-57000D03*
X48122Y-57000D03*
G54D25*
X33950Y-62000D03*
G54D26*
X36550Y-62000D03*
X36550Y-62900D03*
X36550Y-61100D03*
G54D27*
X52000Y-60250D03*
X52000Y-61250D03*
G54D28*
X52000Y-62250D03*
G54D18*
X48750Y-53750D03*
X48750Y-54750D03*
X44750Y-54750D03*
X44750Y-53750D03*
G54D29*
X39750Y-59705D03*
X39750Y-60295D03*
G54D30*
X38250Y-62500D03*
G54D31*
X38250Y-61500D03*
G54D32*
X34500Y-59750D03*
X54750Y-62500D03*
X54750Y-54250D03*
M02*
