%FSLAX34Y34*%
G04 Gerber Fmt 3.4, Leading zero omitted, Abs format*
G04 (created by PCBNEW (2014-jan-25)-product) date Fri 29 May 2015 11:50:56 AM EDT*
%MOIN*%
G01*
G70*
G90*
G04 APERTURE LIST*
%ADD10C,0.005906*%
%ADD11C,0.005000*%
%ADD12C,0.015000*%
%ADD13C,0.002600*%
%ADD14C,0.004000*%
%ADD15C,0.012000*%
%ADD16C,0.010000*%
%ADD17C,0.002400*%
%ADD18C,0.008000*%
G04 APERTURE END LIST*
G54D10*
G54D11*
X38500Y-62400D02*
X39000Y-62400D01*
X38500Y-62900D02*
X38990Y-62900D01*
X38500Y-63050D02*
X38500Y-62250D01*
X38500Y-62250D02*
X39000Y-62250D01*
X39000Y-62250D02*
X39000Y-63050D01*
X39000Y-63050D02*
X38500Y-63050D01*
G54D12*
X37378Y-62070D02*
X37378Y-61755D01*
X37378Y-63330D02*
X37378Y-63645D01*
X38322Y-63330D02*
X38322Y-63645D01*
X38322Y-62070D02*
X38322Y-61755D01*
X36984Y-63999D02*
X37417Y-63999D01*
X37181Y-64235D02*
X37181Y-63763D01*
X37378Y-63802D02*
X38322Y-63802D01*
X37378Y-62070D02*
X37378Y-63330D01*
X38322Y-62070D02*
X38322Y-63330D01*
G54D11*
X42700Y-64400D02*
X43200Y-64400D01*
X42700Y-64900D02*
X43190Y-64900D01*
X42700Y-65050D02*
X42700Y-64250D01*
X42700Y-64250D02*
X43200Y-64250D01*
X43200Y-64250D02*
X43200Y-65050D01*
X43200Y-65050D02*
X42700Y-65050D01*
X44000Y-64400D02*
X43500Y-64400D01*
X44000Y-63900D02*
X43510Y-63900D01*
X44000Y-63750D02*
X44000Y-64550D01*
X44000Y-64550D02*
X43500Y-64550D01*
X43500Y-64550D02*
X43500Y-63750D01*
X43500Y-63750D02*
X44000Y-63750D01*
X38050Y-64950D02*
X37550Y-64950D01*
X38050Y-64450D02*
X37560Y-64450D01*
X38050Y-64300D02*
X38050Y-65100D01*
X38050Y-65100D02*
X37550Y-65100D01*
X37550Y-65100D02*
X37550Y-64300D01*
X37550Y-64300D02*
X38050Y-64300D01*
X39100Y-66250D02*
X39100Y-66750D01*
X38600Y-66250D02*
X38600Y-66740D01*
X38450Y-66250D02*
X39250Y-66250D01*
X39250Y-66250D02*
X39250Y-66750D01*
X39250Y-66750D02*
X38450Y-66750D01*
X38450Y-66750D02*
X38450Y-66250D01*
G54D13*
X33423Y-66627D02*
X33423Y-66273D01*
X33423Y-66273D02*
X33266Y-66273D01*
X33266Y-66627D02*
X33266Y-66273D01*
X33423Y-66627D02*
X33266Y-66627D01*
X33934Y-66627D02*
X33934Y-66273D01*
X33934Y-66273D02*
X33777Y-66273D01*
X33777Y-66627D02*
X33777Y-66273D01*
X33934Y-66627D02*
X33777Y-66627D01*
X33600Y-66627D02*
X33600Y-66568D01*
X33600Y-66568D02*
X33482Y-66568D01*
X33482Y-66627D02*
X33482Y-66568D01*
X33600Y-66627D02*
X33482Y-66627D01*
X33600Y-66332D02*
X33600Y-66273D01*
X33600Y-66273D02*
X33482Y-66273D01*
X33482Y-66332D02*
X33482Y-66273D01*
X33600Y-66332D02*
X33482Y-66332D01*
X33600Y-66509D02*
X33600Y-66391D01*
X33600Y-66391D02*
X33482Y-66391D01*
X33482Y-66509D02*
X33482Y-66391D01*
X33600Y-66509D02*
X33482Y-66509D01*
G54D14*
X33423Y-66607D02*
X33777Y-66607D01*
X33423Y-66293D02*
X33777Y-66293D01*
G54D13*
X33423Y-67427D02*
X33423Y-67073D01*
X33423Y-67073D02*
X33266Y-67073D01*
X33266Y-67427D02*
X33266Y-67073D01*
X33423Y-67427D02*
X33266Y-67427D01*
X33934Y-67427D02*
X33934Y-67073D01*
X33934Y-67073D02*
X33777Y-67073D01*
X33777Y-67427D02*
X33777Y-67073D01*
X33934Y-67427D02*
X33777Y-67427D01*
X33600Y-67427D02*
X33600Y-67368D01*
X33600Y-67368D02*
X33482Y-67368D01*
X33482Y-67427D02*
X33482Y-67368D01*
X33600Y-67427D02*
X33482Y-67427D01*
X33600Y-67132D02*
X33600Y-67073D01*
X33600Y-67073D02*
X33482Y-67073D01*
X33482Y-67132D02*
X33482Y-67073D01*
X33600Y-67132D02*
X33482Y-67132D01*
X33600Y-67309D02*
X33600Y-67191D01*
X33600Y-67191D02*
X33482Y-67191D01*
X33482Y-67309D02*
X33482Y-67191D01*
X33600Y-67309D02*
X33482Y-67309D01*
G54D14*
X33423Y-67407D02*
X33777Y-67407D01*
X33423Y-67093D02*
X33777Y-67093D01*
G54D10*
X47076Y-56894D02*
X49123Y-56894D01*
X49123Y-56894D02*
X49123Y-58705D01*
X49123Y-58705D02*
X47076Y-58705D01*
X47076Y-58705D02*
X47076Y-56894D01*
G54D13*
X33423Y-68177D02*
X33423Y-67823D01*
X33423Y-67823D02*
X33266Y-67823D01*
X33266Y-68177D02*
X33266Y-67823D01*
X33423Y-68177D02*
X33266Y-68177D01*
X33934Y-68177D02*
X33934Y-67823D01*
X33934Y-67823D02*
X33777Y-67823D01*
X33777Y-68177D02*
X33777Y-67823D01*
X33934Y-68177D02*
X33777Y-68177D01*
X33600Y-68177D02*
X33600Y-68118D01*
X33600Y-68118D02*
X33482Y-68118D01*
X33482Y-68177D02*
X33482Y-68118D01*
X33600Y-68177D02*
X33482Y-68177D01*
X33600Y-67882D02*
X33600Y-67823D01*
X33600Y-67823D02*
X33482Y-67823D01*
X33482Y-67882D02*
X33482Y-67823D01*
X33600Y-67882D02*
X33482Y-67882D01*
X33600Y-68059D02*
X33600Y-67941D01*
X33600Y-67941D02*
X33482Y-67941D01*
X33482Y-68059D02*
X33482Y-67941D01*
X33600Y-68059D02*
X33482Y-68059D01*
G54D14*
X33423Y-68157D02*
X33777Y-68157D01*
X33423Y-67843D02*
X33777Y-67843D01*
G54D15*
X49200Y-59750D02*
X52200Y-59750D01*
X49200Y-65750D02*
X52200Y-65750D01*
X49700Y-59750D02*
X49700Y-65750D01*
X52200Y-59750D02*
X52200Y-65750D01*
X49200Y-59750D02*
X49200Y-65750D01*
G54D10*
X33150Y-55800D02*
X37950Y-55800D01*
X37950Y-55800D02*
X37950Y-60200D01*
X37950Y-60200D02*
X33150Y-60200D01*
G54D15*
X33700Y-64850D02*
X33700Y-64850D01*
X34700Y-64850D02*
X33700Y-64850D01*
X33700Y-64850D02*
X33700Y-64850D01*
X33700Y-64850D02*
X33700Y-60850D01*
X33700Y-60850D02*
X34700Y-60850D01*
X34700Y-60850D02*
X34700Y-64850D01*
X34700Y-63850D02*
X33700Y-63850D01*
G54D16*
X37150Y-71800D02*
X37150Y-70800D01*
X37150Y-70800D02*
X38150Y-70800D01*
X38150Y-71800D02*
X38150Y-68800D01*
X38150Y-68800D02*
X36150Y-68800D01*
X36150Y-68800D02*
X36150Y-70800D01*
X38150Y-71800D02*
X37150Y-71800D01*
X36150Y-71800D02*
X37150Y-71800D01*
X36150Y-70800D02*
X36150Y-71800D01*
G54D12*
X41803Y-57852D02*
X41567Y-57852D01*
X41567Y-57852D02*
X41567Y-59348D01*
X41567Y-59348D02*
X41803Y-59348D01*
X42197Y-59348D02*
X42433Y-59348D01*
X42433Y-59348D02*
X42433Y-57852D01*
X42433Y-57852D02*
X42197Y-57852D01*
X38603Y-55952D02*
X38367Y-55952D01*
X38367Y-55952D02*
X38367Y-57448D01*
X38367Y-57448D02*
X38603Y-57448D01*
X38997Y-57448D02*
X39233Y-57448D01*
X39233Y-57448D02*
X39233Y-55952D01*
X39233Y-55952D02*
X38997Y-55952D01*
X38997Y-59798D02*
X39233Y-59798D01*
X39233Y-59798D02*
X39233Y-58302D01*
X39233Y-58302D02*
X38997Y-58302D01*
X38603Y-58302D02*
X38367Y-58302D01*
X38367Y-58302D02*
X38367Y-59798D01*
X38367Y-59798D02*
X38603Y-59798D01*
X43648Y-66503D02*
X43648Y-66267D01*
X43648Y-66267D02*
X42152Y-66267D01*
X42152Y-66267D02*
X42152Y-66503D01*
X42152Y-66897D02*
X42152Y-67133D01*
X42152Y-67133D02*
X43648Y-67133D01*
X43648Y-67133D02*
X43648Y-66897D01*
X34302Y-65797D02*
X34302Y-66033D01*
X34302Y-66033D02*
X35798Y-66033D01*
X35798Y-66033D02*
X35798Y-65797D01*
X35798Y-65403D02*
X35798Y-65167D01*
X35798Y-65167D02*
X34302Y-65167D01*
X34302Y-65167D02*
X34302Y-65403D01*
X34302Y-66947D02*
X34302Y-67183D01*
X34302Y-67183D02*
X35798Y-67183D01*
X35798Y-67183D02*
X35798Y-66947D01*
X35798Y-66553D02*
X35798Y-66317D01*
X35798Y-66317D02*
X34302Y-66317D01*
X34302Y-66317D02*
X34302Y-66553D01*
X47850Y-62550D02*
X48250Y-62550D01*
X47850Y-62550D02*
X47450Y-62550D01*
X47850Y-61650D02*
X48250Y-61650D01*
X47850Y-61650D02*
X47450Y-61650D01*
X47300Y-64800D02*
X47300Y-65200D01*
X47300Y-64800D02*
X47300Y-64400D01*
X48200Y-64800D02*
X48200Y-65200D01*
X48200Y-64800D02*
X48200Y-64400D01*
X46952Y-70597D02*
X46952Y-70833D01*
X46952Y-70833D02*
X48448Y-70833D01*
X48448Y-70833D02*
X48448Y-70597D01*
X48448Y-70203D02*
X48448Y-69967D01*
X48448Y-69967D02*
X46952Y-69967D01*
X46952Y-69967D02*
X46952Y-70203D01*
X35748Y-67803D02*
X35748Y-67567D01*
X35748Y-67567D02*
X34252Y-67567D01*
X34252Y-67567D02*
X34252Y-67803D01*
X34252Y-68197D02*
X34252Y-68433D01*
X34252Y-68433D02*
X35748Y-68433D01*
X35748Y-68433D02*
X35748Y-68197D01*
G54D10*
X46800Y-68200D02*
X45350Y-68200D01*
X45350Y-68200D02*
X46800Y-68200D01*
X46800Y-66200D02*
X46800Y-68200D01*
X45350Y-66200D02*
X45350Y-68200D01*
X45100Y-66200D02*
X46900Y-66200D01*
X46900Y-66200D02*
X46900Y-68200D01*
X46900Y-68200D02*
X45100Y-68200D01*
X45100Y-68200D02*
X45100Y-66200D01*
G54D12*
X48050Y-66900D02*
X48050Y-66650D01*
X48050Y-66650D02*
X52050Y-66650D01*
X52050Y-66650D02*
X52050Y-66900D01*
X48050Y-68400D02*
X48050Y-66900D01*
X48050Y-66900D02*
X52050Y-66900D01*
X52050Y-66900D02*
X52050Y-68400D01*
X52050Y-68400D02*
X48050Y-68400D01*
G54D10*
X42500Y-53200D02*
X45500Y-53200D01*
X45500Y-53200D02*
X45500Y-55000D01*
X45500Y-55000D02*
X42500Y-55000D01*
X42500Y-55000D02*
X42500Y-53200D01*
G54D12*
X38596Y-65812D02*
X38497Y-65713D01*
X38497Y-65713D02*
X38399Y-65576D01*
X38399Y-65576D02*
X38340Y-65359D01*
X38340Y-65359D02*
X38340Y-65202D01*
X38340Y-65202D02*
X38419Y-65005D01*
X38419Y-65005D02*
X38556Y-64847D01*
X39285Y-65812D02*
X39363Y-65753D01*
X39363Y-65753D02*
X39462Y-65635D01*
X39462Y-65635D02*
X39541Y-65457D01*
X39541Y-65457D02*
X39560Y-65280D01*
X39560Y-65280D02*
X39521Y-65083D01*
X39521Y-65083D02*
X39442Y-64946D01*
X39442Y-64946D02*
X39304Y-64808D01*
G54D16*
X40750Y-71750D02*
X40750Y-70750D01*
X41750Y-71750D02*
X41750Y-70750D01*
X41750Y-70750D02*
X40750Y-70750D01*
X40750Y-70750D02*
X39750Y-70750D01*
X39750Y-70750D02*
X39750Y-71750D01*
X39750Y-71750D02*
X41750Y-71750D01*
G54D10*
X42033Y-62716D02*
X42033Y-62923D01*
X39966Y-64783D02*
X39966Y-64576D01*
X42033Y-64783D02*
X42033Y-64576D01*
X39966Y-62716D02*
X40173Y-62716D01*
X39966Y-64783D02*
X40173Y-64783D01*
X42033Y-64783D02*
X41826Y-64783D01*
X42033Y-62716D02*
X41826Y-62716D01*
G54D12*
X35400Y-54250D02*
G75*
G03X35400Y-54250I-900J0D01*
G74*
G01*
X51400Y-70500D02*
G75*
G03X51400Y-70500I-900J0D01*
G74*
G01*
X35400Y-70500D02*
G75*
G03X35400Y-70500I-900J0D01*
G74*
G01*
X51500Y-54350D02*
G75*
G03X51500Y-54350I-900J0D01*
G74*
G01*
G54D17*
X38402Y-62669D02*
X38407Y-62675D01*
X38413Y-62692D01*
X38413Y-62703D01*
X38407Y-62720D01*
X38396Y-62731D01*
X38385Y-62737D01*
X38362Y-62742D01*
X38345Y-62742D01*
X38323Y-62737D01*
X38312Y-62731D01*
X38301Y-62720D01*
X38295Y-62703D01*
X38295Y-62692D01*
X38301Y-62675D01*
X38306Y-62669D01*
X38413Y-62557D02*
X38413Y-62624D01*
X38413Y-62591D02*
X38295Y-62591D01*
X38312Y-62602D01*
X38323Y-62613D01*
X38329Y-62624D01*
G54D10*
X38990Y-63015D02*
X39009Y-63034D01*
X39028Y-63090D01*
X39028Y-63128D01*
X39009Y-63184D01*
X38971Y-63221D01*
X38934Y-63240D01*
X38859Y-63259D01*
X38803Y-63259D01*
X38728Y-63240D01*
X38690Y-63221D01*
X38653Y-63184D01*
X38634Y-63128D01*
X38634Y-63090D01*
X38653Y-63034D01*
X38671Y-63015D01*
X38671Y-62865D02*
X38653Y-62846D01*
X38634Y-62809D01*
X38634Y-62715D01*
X38653Y-62678D01*
X38671Y-62659D01*
X38709Y-62640D01*
X38746Y-62640D01*
X38803Y-62659D01*
X39028Y-62884D01*
X39028Y-62640D01*
G54D15*
X37642Y-62928D02*
X37642Y-62471D01*
X37871Y-62699D02*
X37414Y-62699D01*
G54D17*
X42602Y-64669D02*
X42607Y-64675D01*
X42613Y-64692D01*
X42613Y-64703D01*
X42607Y-64720D01*
X42596Y-64731D01*
X42585Y-64737D01*
X42562Y-64742D01*
X42545Y-64742D01*
X42523Y-64737D01*
X42512Y-64731D01*
X42501Y-64720D01*
X42495Y-64703D01*
X42495Y-64692D01*
X42501Y-64675D01*
X42506Y-64669D01*
X42495Y-64630D02*
X42495Y-64557D01*
X42540Y-64596D01*
X42540Y-64579D01*
X42545Y-64568D01*
X42551Y-64562D01*
X42562Y-64557D01*
X42590Y-64557D01*
X42602Y-64562D01*
X42607Y-64568D01*
X42613Y-64579D01*
X42613Y-64613D01*
X42607Y-64624D01*
X42602Y-64630D01*
X44182Y-64169D02*
X44187Y-64175D01*
X44193Y-64192D01*
X44193Y-64203D01*
X44187Y-64220D01*
X44176Y-64231D01*
X44165Y-64237D01*
X44142Y-64242D01*
X44125Y-64242D01*
X44103Y-64237D01*
X44092Y-64231D01*
X44081Y-64220D01*
X44075Y-64203D01*
X44075Y-64192D01*
X44081Y-64175D01*
X44086Y-64169D01*
X44114Y-64068D02*
X44193Y-64068D01*
X44069Y-64096D02*
X44154Y-64124D01*
X44154Y-64051D01*
X38232Y-64719D02*
X38237Y-64725D01*
X38243Y-64742D01*
X38243Y-64753D01*
X38237Y-64770D01*
X38226Y-64781D01*
X38215Y-64787D01*
X38192Y-64792D01*
X38175Y-64792D01*
X38153Y-64787D01*
X38142Y-64781D01*
X38131Y-64770D01*
X38125Y-64753D01*
X38125Y-64742D01*
X38131Y-64725D01*
X38136Y-64719D01*
X38125Y-64612D02*
X38125Y-64669D01*
X38181Y-64674D01*
X38175Y-64669D01*
X38170Y-64657D01*
X38170Y-64629D01*
X38175Y-64618D01*
X38181Y-64612D01*
X38192Y-64607D01*
X38220Y-64607D01*
X38232Y-64612D01*
X38237Y-64618D01*
X38243Y-64629D01*
X38243Y-64657D01*
X38237Y-64669D01*
X38232Y-64674D01*
X38830Y-66152D02*
X38824Y-66157D01*
X38807Y-66163D01*
X38796Y-66163D01*
X38779Y-66157D01*
X38768Y-66146D01*
X38762Y-66135D01*
X38757Y-66112D01*
X38757Y-66095D01*
X38762Y-66073D01*
X38768Y-66062D01*
X38779Y-66051D01*
X38796Y-66045D01*
X38807Y-66045D01*
X38824Y-66051D01*
X38830Y-66056D01*
X38931Y-66045D02*
X38909Y-66045D01*
X38897Y-66051D01*
X38892Y-66056D01*
X38880Y-66073D01*
X38875Y-66095D01*
X38875Y-66140D01*
X38880Y-66152D01*
X38886Y-66157D01*
X38897Y-66163D01*
X38920Y-66163D01*
X38931Y-66157D01*
X38937Y-66152D01*
X38942Y-66140D01*
X38942Y-66112D01*
X38937Y-66101D01*
X38931Y-66095D01*
X38920Y-66090D01*
X38897Y-66090D01*
X38886Y-66095D01*
X38880Y-66101D01*
X38875Y-66112D01*
G54D11*
X33452Y-66940D02*
X33452Y-66740D01*
X33500Y-66740D01*
X33528Y-66750D01*
X33547Y-66769D01*
X33557Y-66788D01*
X33566Y-66826D01*
X33566Y-66854D01*
X33557Y-66892D01*
X33547Y-66911D01*
X33528Y-66930D01*
X33500Y-66940D01*
X33452Y-66940D01*
X33757Y-66940D02*
X33642Y-66940D01*
X33700Y-66940D02*
X33700Y-66740D01*
X33680Y-66769D01*
X33661Y-66788D01*
X33642Y-66797D01*
X33471Y-66040D02*
X33376Y-66040D01*
X33376Y-65840D01*
X33538Y-65935D02*
X33604Y-65935D01*
X33633Y-66040D02*
X33538Y-66040D01*
X33538Y-65840D01*
X33633Y-65840D01*
X33719Y-66040D02*
X33719Y-65840D01*
X33766Y-65840D01*
X33795Y-65850D01*
X33814Y-65869D01*
X33823Y-65888D01*
X33833Y-65926D01*
X33833Y-65954D01*
X33823Y-65992D01*
X33814Y-66011D01*
X33795Y-66030D01*
X33766Y-66040D01*
X33719Y-66040D01*
X33452Y-67740D02*
X33452Y-67540D01*
X33500Y-67540D01*
X33528Y-67550D01*
X33547Y-67569D01*
X33557Y-67588D01*
X33566Y-67626D01*
X33566Y-67654D01*
X33557Y-67692D01*
X33547Y-67711D01*
X33528Y-67730D01*
X33500Y-67740D01*
X33452Y-67740D01*
X33642Y-67559D02*
X33652Y-67550D01*
X33671Y-67540D01*
X33719Y-67540D01*
X33738Y-67550D01*
X33747Y-67559D01*
X33757Y-67578D01*
X33757Y-67597D01*
X33747Y-67626D01*
X33633Y-67740D01*
X33757Y-67740D01*
X32940Y-67378D02*
X32940Y-67473D01*
X32740Y-67473D01*
X32835Y-67311D02*
X32835Y-67245D01*
X32940Y-67216D02*
X32940Y-67311D01*
X32740Y-67311D01*
X32740Y-67216D01*
X32940Y-67130D02*
X32740Y-67130D01*
X32740Y-67083D01*
X32750Y-67054D01*
X32769Y-67035D01*
X32788Y-67026D01*
X32826Y-67016D01*
X32854Y-67016D01*
X32892Y-67026D01*
X32911Y-67035D01*
X32930Y-67054D01*
X32940Y-67083D01*
X32940Y-67130D01*
G54D10*
X47809Y-55978D02*
X47809Y-55584D01*
X47903Y-55584D01*
X47959Y-55603D01*
X47996Y-55640D01*
X48015Y-55678D01*
X48034Y-55753D01*
X48034Y-55809D01*
X48015Y-55884D01*
X47996Y-55921D01*
X47959Y-55959D01*
X47903Y-55978D01*
X47809Y-55978D01*
X48165Y-55584D02*
X48409Y-55584D01*
X48278Y-55734D01*
X48334Y-55734D01*
X48371Y-55753D01*
X48390Y-55771D01*
X48409Y-55809D01*
X48409Y-55903D01*
X48390Y-55940D01*
X48371Y-55959D01*
X48334Y-55978D01*
X48221Y-55978D01*
X48184Y-55959D01*
X48165Y-55940D01*
X49671Y-58634D02*
X49690Y-58578D01*
X49709Y-58559D01*
X49746Y-58540D01*
X49803Y-58540D01*
X49840Y-58559D01*
X49859Y-58578D01*
X49878Y-58615D01*
X49878Y-58765D01*
X49484Y-58765D01*
X49484Y-58634D01*
X49503Y-58596D01*
X49521Y-58578D01*
X49559Y-58559D01*
X49596Y-58559D01*
X49634Y-58578D01*
X49653Y-58596D01*
X49671Y-58634D01*
X49671Y-58765D01*
X49878Y-58146D02*
X49690Y-58278D01*
X49878Y-58371D02*
X49484Y-58371D01*
X49484Y-58221D01*
X49503Y-58184D01*
X49521Y-58165D01*
X49559Y-58146D01*
X49615Y-58146D01*
X49653Y-58165D01*
X49671Y-58184D01*
X49690Y-58221D01*
X49690Y-58371D01*
X49878Y-57978D02*
X49484Y-57978D01*
X49878Y-57790D02*
X49484Y-57790D01*
X49484Y-57696D01*
X49503Y-57640D01*
X49540Y-57603D01*
X49578Y-57584D01*
X49653Y-57565D01*
X49709Y-57565D01*
X49784Y-57584D01*
X49821Y-57603D01*
X49859Y-57640D01*
X49878Y-57696D01*
X49878Y-57790D01*
X49503Y-57190D02*
X49484Y-57228D01*
X49484Y-57284D01*
X49503Y-57340D01*
X49540Y-57378D01*
X49578Y-57396D01*
X49653Y-57415D01*
X49709Y-57415D01*
X49784Y-57396D01*
X49821Y-57378D01*
X49859Y-57340D01*
X49878Y-57284D01*
X49878Y-57246D01*
X49859Y-57190D01*
X49840Y-57171D01*
X49709Y-57171D01*
X49709Y-57246D01*
X49671Y-57003D02*
X49671Y-56871D01*
X49878Y-56815D02*
X49878Y-57003D01*
X49484Y-57003D01*
X49484Y-56815D01*
X46729Y-56686D02*
X47029Y-56686D01*
X49170Y-56686D02*
X49470Y-56686D01*
X49320Y-56836D02*
X49320Y-56536D01*
G54D11*
X33452Y-68490D02*
X33452Y-68290D01*
X33500Y-68290D01*
X33528Y-68300D01*
X33547Y-68319D01*
X33557Y-68338D01*
X33566Y-68376D01*
X33566Y-68404D01*
X33557Y-68442D01*
X33547Y-68461D01*
X33528Y-68480D01*
X33500Y-68490D01*
X33452Y-68490D01*
X33738Y-68357D02*
X33738Y-68490D01*
X33690Y-68280D02*
X33642Y-68423D01*
X33766Y-68423D01*
X32940Y-68128D02*
X32940Y-68223D01*
X32740Y-68223D01*
X32835Y-68061D02*
X32835Y-67995D01*
X32940Y-67966D02*
X32940Y-68061D01*
X32740Y-68061D01*
X32740Y-67966D01*
X32940Y-67880D02*
X32740Y-67880D01*
X32740Y-67833D01*
X32750Y-67804D01*
X32769Y-67785D01*
X32788Y-67776D01*
X32826Y-67766D01*
X32854Y-67766D01*
X32892Y-67776D01*
X32911Y-67785D01*
X32930Y-67804D01*
X32940Y-67833D01*
X32940Y-67880D01*
G54D10*
X51878Y-63790D02*
X51484Y-63790D01*
X51878Y-63565D02*
X51653Y-63734D01*
X51484Y-63565D02*
X51709Y-63790D01*
X51878Y-63190D02*
X51878Y-63415D01*
X51878Y-63303D02*
X51484Y-63303D01*
X51540Y-63340D01*
X51578Y-63378D01*
X51596Y-63415D01*
X48840Y-63584D02*
X48859Y-63603D01*
X48878Y-63659D01*
X48878Y-63696D01*
X48859Y-63752D01*
X48821Y-63790D01*
X48784Y-63809D01*
X48709Y-63827D01*
X48653Y-63827D01*
X48578Y-63809D01*
X48540Y-63790D01*
X48503Y-63752D01*
X48484Y-63696D01*
X48484Y-63659D01*
X48503Y-63603D01*
X48521Y-63584D01*
X48484Y-63340D02*
X48484Y-63265D01*
X48503Y-63228D01*
X48540Y-63190D01*
X48615Y-63171D01*
X48746Y-63171D01*
X48821Y-63190D01*
X48859Y-63228D01*
X48878Y-63265D01*
X48878Y-63340D01*
X48859Y-63378D01*
X48821Y-63415D01*
X48746Y-63434D01*
X48615Y-63434D01*
X48540Y-63415D01*
X48503Y-63378D01*
X48484Y-63340D01*
X48878Y-63003D02*
X48484Y-63003D01*
X48878Y-62778D01*
X48484Y-62778D01*
X48878Y-62590D02*
X48484Y-62590D01*
X48878Y-62365D01*
X48484Y-62365D01*
X48915Y-62271D02*
X48915Y-61971D01*
X48484Y-61915D02*
X48484Y-61672D01*
X48634Y-61803D01*
X48634Y-61747D01*
X48653Y-61709D01*
X48671Y-61690D01*
X48709Y-61672D01*
X48803Y-61672D01*
X48840Y-61690D01*
X48859Y-61709D01*
X48878Y-61747D01*
X48878Y-61859D01*
X48859Y-61896D01*
X48840Y-61915D01*
X35259Y-56678D02*
X35259Y-56284D01*
X35409Y-56284D01*
X35446Y-56303D01*
X35465Y-56321D01*
X35484Y-56359D01*
X35484Y-56415D01*
X35465Y-56453D01*
X35446Y-56471D01*
X35409Y-56490D01*
X35259Y-56490D01*
X35634Y-56321D02*
X35653Y-56303D01*
X35690Y-56284D01*
X35784Y-56284D01*
X35821Y-56303D01*
X35840Y-56321D01*
X35859Y-56359D01*
X35859Y-56396D01*
X35840Y-56453D01*
X35615Y-56678D01*
X35859Y-56678D01*
X33715Y-60890D02*
X33696Y-60909D01*
X33640Y-60928D01*
X33603Y-60928D01*
X33547Y-60909D01*
X33509Y-60871D01*
X33490Y-60834D01*
X33472Y-60759D01*
X33472Y-60703D01*
X33490Y-60628D01*
X33509Y-60590D01*
X33547Y-60553D01*
X33603Y-60534D01*
X33640Y-60534D01*
X33696Y-60553D01*
X33715Y-60571D01*
X33959Y-60534D02*
X34034Y-60534D01*
X34071Y-60553D01*
X34109Y-60590D01*
X34128Y-60665D01*
X34128Y-60796D01*
X34109Y-60871D01*
X34071Y-60909D01*
X34034Y-60928D01*
X33959Y-60928D01*
X33921Y-60909D01*
X33884Y-60871D01*
X33865Y-60796D01*
X33865Y-60665D01*
X33884Y-60590D01*
X33921Y-60553D01*
X33959Y-60534D01*
X34296Y-60928D02*
X34296Y-60534D01*
X34521Y-60928D01*
X34521Y-60534D01*
X34709Y-60928D02*
X34709Y-60534D01*
X34934Y-60928D01*
X34934Y-60534D01*
X35028Y-60965D02*
X35328Y-60965D01*
X35609Y-60534D02*
X35421Y-60534D01*
X35403Y-60721D01*
X35421Y-60703D01*
X35459Y-60684D01*
X35553Y-60684D01*
X35590Y-60703D01*
X35609Y-60721D01*
X35627Y-60759D01*
X35627Y-60853D01*
X35609Y-60890D01*
X35590Y-60909D01*
X35553Y-60928D01*
X35459Y-60928D01*
X35421Y-60909D01*
X35403Y-60890D01*
X35378Y-63640D02*
X34984Y-63640D01*
X34984Y-63490D01*
X35003Y-63453D01*
X35021Y-63434D01*
X35059Y-63415D01*
X35115Y-63415D01*
X35153Y-63434D01*
X35171Y-63453D01*
X35190Y-63490D01*
X35190Y-63640D01*
X34984Y-63284D02*
X34984Y-63040D01*
X35134Y-63171D01*
X35134Y-63115D01*
X35153Y-63078D01*
X35171Y-63059D01*
X35209Y-63040D01*
X35303Y-63040D01*
X35340Y-63059D01*
X35359Y-63078D01*
X35378Y-63115D01*
X35378Y-63228D01*
X35359Y-63265D01*
X35340Y-63284D01*
G54D18*
X35876Y-70669D02*
X35376Y-70669D01*
X35376Y-70478D01*
X35400Y-70430D01*
X35423Y-70407D01*
X35471Y-70383D01*
X35542Y-70383D01*
X35590Y-70407D01*
X35614Y-70430D01*
X35638Y-70478D01*
X35638Y-70669D01*
X35542Y-69954D02*
X35876Y-69954D01*
X35352Y-70073D02*
X35709Y-70192D01*
X35709Y-69883D01*
G54D10*
X43084Y-58704D02*
X42896Y-58835D01*
X43084Y-58929D02*
X42690Y-58929D01*
X42690Y-58779D01*
X42709Y-58742D01*
X42727Y-58723D01*
X42765Y-58704D01*
X42821Y-58704D01*
X42859Y-58723D01*
X42877Y-58742D01*
X42896Y-58779D01*
X42896Y-58929D01*
X43084Y-58329D02*
X43084Y-58554D01*
X43084Y-58442D02*
X42690Y-58442D01*
X42746Y-58479D01*
X42784Y-58517D01*
X42802Y-58554D01*
X39878Y-56765D02*
X39690Y-56896D01*
X39878Y-56990D02*
X39484Y-56990D01*
X39484Y-56840D01*
X39503Y-56803D01*
X39521Y-56784D01*
X39559Y-56765D01*
X39615Y-56765D01*
X39653Y-56784D01*
X39671Y-56803D01*
X39690Y-56840D01*
X39690Y-56990D01*
X39521Y-56615D02*
X39503Y-56596D01*
X39484Y-56559D01*
X39484Y-56465D01*
X39503Y-56428D01*
X39521Y-56409D01*
X39559Y-56390D01*
X39596Y-56390D01*
X39653Y-56409D01*
X39878Y-56634D01*
X39878Y-56390D01*
X39878Y-59015D02*
X39690Y-59146D01*
X39878Y-59240D02*
X39484Y-59240D01*
X39484Y-59090D01*
X39503Y-59053D01*
X39521Y-59034D01*
X39559Y-59015D01*
X39615Y-59015D01*
X39653Y-59034D01*
X39671Y-59053D01*
X39690Y-59090D01*
X39690Y-59240D01*
X39484Y-58884D02*
X39484Y-58640D01*
X39634Y-58771D01*
X39634Y-58715D01*
X39653Y-58678D01*
X39671Y-58659D01*
X39709Y-58640D01*
X39803Y-58640D01*
X39840Y-58659D01*
X39859Y-58678D01*
X39878Y-58715D01*
X39878Y-58828D01*
X39859Y-58865D01*
X39840Y-58884D01*
X43084Y-66128D02*
X42953Y-65940D01*
X42859Y-66128D02*
X42859Y-65734D01*
X43009Y-65734D01*
X43046Y-65753D01*
X43065Y-65771D01*
X43084Y-65809D01*
X43084Y-65865D01*
X43065Y-65903D01*
X43046Y-65921D01*
X43009Y-65940D01*
X42859Y-65940D01*
X43421Y-65865D02*
X43421Y-66128D01*
X43328Y-65715D02*
X43234Y-65996D01*
X43478Y-65996D01*
X36184Y-65778D02*
X36053Y-65590D01*
X35959Y-65778D02*
X35959Y-65384D01*
X36109Y-65384D01*
X36146Y-65403D01*
X36165Y-65421D01*
X36184Y-65459D01*
X36184Y-65515D01*
X36165Y-65553D01*
X36146Y-65571D01*
X36109Y-65590D01*
X35959Y-65590D01*
X36540Y-65384D02*
X36353Y-65384D01*
X36334Y-65571D01*
X36353Y-65553D01*
X36390Y-65534D01*
X36484Y-65534D01*
X36521Y-65553D01*
X36540Y-65571D01*
X36559Y-65609D01*
X36559Y-65703D01*
X36540Y-65740D01*
X36521Y-65759D01*
X36484Y-65778D01*
X36390Y-65778D01*
X36353Y-65759D01*
X36334Y-65740D01*
X36184Y-67228D02*
X36053Y-67040D01*
X35959Y-67228D02*
X35959Y-66834D01*
X36109Y-66834D01*
X36146Y-66853D01*
X36165Y-66871D01*
X36184Y-66909D01*
X36184Y-66965D01*
X36165Y-67003D01*
X36146Y-67021D01*
X36109Y-67040D01*
X35959Y-67040D01*
X36521Y-66834D02*
X36446Y-66834D01*
X36409Y-66853D01*
X36390Y-66871D01*
X36353Y-66928D01*
X36334Y-67003D01*
X36334Y-67153D01*
X36353Y-67190D01*
X36371Y-67209D01*
X36409Y-67228D01*
X36484Y-67228D01*
X36521Y-67209D01*
X36540Y-67190D01*
X36559Y-67153D01*
X36559Y-67059D01*
X36540Y-67021D01*
X36521Y-67003D01*
X36484Y-66984D01*
X36409Y-66984D01*
X36371Y-67003D01*
X36353Y-67021D01*
X36334Y-67059D01*
X47745Y-63184D02*
X47614Y-62996D01*
X47520Y-63184D02*
X47520Y-62790D01*
X47670Y-62790D01*
X47707Y-62809D01*
X47726Y-62827D01*
X47745Y-62865D01*
X47745Y-62921D01*
X47726Y-62959D01*
X47707Y-62977D01*
X47670Y-62996D01*
X47520Y-62996D01*
X47932Y-63184D02*
X48007Y-63184D01*
X48045Y-63165D01*
X48064Y-63146D01*
X48101Y-63090D01*
X48120Y-63015D01*
X48120Y-62865D01*
X48101Y-62827D01*
X48082Y-62809D01*
X48045Y-62790D01*
X47970Y-62790D01*
X47932Y-62809D01*
X47914Y-62827D01*
X47895Y-62865D01*
X47895Y-62959D01*
X47914Y-62996D01*
X47932Y-63015D01*
X47970Y-63034D01*
X48045Y-63034D01*
X48082Y-63015D01*
X48101Y-62996D01*
X48120Y-62959D01*
X48778Y-65103D02*
X48590Y-65234D01*
X48778Y-65328D02*
X48384Y-65328D01*
X48384Y-65178D01*
X48403Y-65140D01*
X48421Y-65121D01*
X48459Y-65103D01*
X48515Y-65103D01*
X48553Y-65121D01*
X48571Y-65140D01*
X48590Y-65178D01*
X48590Y-65328D01*
X48778Y-64728D02*
X48778Y-64953D01*
X48778Y-64840D02*
X48384Y-64840D01*
X48440Y-64878D01*
X48478Y-64915D01*
X48496Y-64953D01*
X48384Y-64484D02*
X48384Y-64446D01*
X48403Y-64409D01*
X48421Y-64390D01*
X48459Y-64371D01*
X48534Y-64353D01*
X48628Y-64353D01*
X48703Y-64371D01*
X48740Y-64390D01*
X48759Y-64409D01*
X48778Y-64446D01*
X48778Y-64484D01*
X48759Y-64521D01*
X48740Y-64540D01*
X48703Y-64559D01*
X48628Y-64578D01*
X48534Y-64578D01*
X48459Y-64559D01*
X48421Y-64540D01*
X48403Y-64521D01*
X48384Y-64484D01*
X46196Y-70078D02*
X46065Y-69890D01*
X45971Y-70078D02*
X45971Y-69684D01*
X46121Y-69684D01*
X46159Y-69703D01*
X46178Y-69721D01*
X46196Y-69759D01*
X46196Y-69815D01*
X46178Y-69853D01*
X46159Y-69871D01*
X46121Y-69890D01*
X45971Y-69890D01*
X46571Y-70078D02*
X46346Y-70078D01*
X46459Y-70078D02*
X46459Y-69684D01*
X46421Y-69740D01*
X46384Y-69778D01*
X46346Y-69796D01*
X46946Y-70078D02*
X46721Y-70078D01*
X46834Y-70078D02*
X46834Y-69684D01*
X46796Y-69740D01*
X46759Y-69778D01*
X46721Y-69796D01*
X34896Y-68978D02*
X34765Y-68790D01*
X34671Y-68978D02*
X34671Y-68584D01*
X34821Y-68584D01*
X34859Y-68603D01*
X34878Y-68621D01*
X34896Y-68659D01*
X34896Y-68715D01*
X34878Y-68753D01*
X34859Y-68771D01*
X34821Y-68790D01*
X34671Y-68790D01*
X35271Y-68978D02*
X35046Y-68978D01*
X35159Y-68978D02*
X35159Y-68584D01*
X35121Y-68640D01*
X35084Y-68678D01*
X35046Y-68696D01*
X35421Y-68621D02*
X35440Y-68603D01*
X35478Y-68584D01*
X35571Y-68584D01*
X35609Y-68603D01*
X35628Y-68621D01*
X35646Y-68659D01*
X35646Y-68696D01*
X35628Y-68753D01*
X35403Y-68978D01*
X35646Y-68978D01*
X45600Y-65584D02*
X45600Y-65903D01*
X45618Y-65940D01*
X45637Y-65959D01*
X45675Y-65978D01*
X45750Y-65978D01*
X45787Y-65959D01*
X45806Y-65940D01*
X45825Y-65903D01*
X45825Y-65584D01*
X45993Y-65621D02*
X46012Y-65603D01*
X46049Y-65584D01*
X46143Y-65584D01*
X46181Y-65603D01*
X46199Y-65621D01*
X46218Y-65659D01*
X46218Y-65696D01*
X46199Y-65753D01*
X45974Y-65978D01*
X46218Y-65978D01*
X44359Y-68284D02*
X44434Y-68284D01*
X44472Y-68303D01*
X44509Y-68340D01*
X44528Y-68415D01*
X44528Y-68546D01*
X44509Y-68621D01*
X44472Y-68659D01*
X44434Y-68678D01*
X44359Y-68678D01*
X44322Y-68659D01*
X44284Y-68621D01*
X44265Y-68546D01*
X44265Y-68415D01*
X44284Y-68340D01*
X44322Y-68303D01*
X44359Y-68284D01*
X44697Y-68678D02*
X44697Y-68284D01*
X44847Y-68284D01*
X44884Y-68303D01*
X44903Y-68321D01*
X44922Y-68359D01*
X44922Y-68415D01*
X44903Y-68453D01*
X44884Y-68471D01*
X44847Y-68490D01*
X44697Y-68490D01*
X45034Y-68284D02*
X45259Y-68284D01*
X45146Y-68678D02*
X45146Y-68284D01*
X45465Y-68284D02*
X45540Y-68284D01*
X45578Y-68303D01*
X45615Y-68340D01*
X45634Y-68415D01*
X45634Y-68546D01*
X45615Y-68621D01*
X45578Y-68659D01*
X45540Y-68678D01*
X45465Y-68678D01*
X45428Y-68659D01*
X45390Y-68621D01*
X45371Y-68546D01*
X45371Y-68415D01*
X45390Y-68340D01*
X45428Y-68303D01*
X45465Y-68284D01*
X45803Y-68528D02*
X46103Y-68528D01*
X46234Y-68284D02*
X46459Y-68284D01*
X46346Y-68678D02*
X46346Y-68284D01*
X46815Y-68678D02*
X46684Y-68490D01*
X46590Y-68678D02*
X46590Y-68284D01*
X46740Y-68284D01*
X46778Y-68303D01*
X46796Y-68321D01*
X46815Y-68359D01*
X46815Y-68415D01*
X46796Y-68453D01*
X46778Y-68471D01*
X46740Y-68490D01*
X46590Y-68490D01*
X46984Y-68678D02*
X46984Y-68284D01*
X47152Y-68565D02*
X47340Y-68565D01*
X47115Y-68678D02*
X47246Y-68284D01*
X47377Y-68678D01*
X47734Y-68640D02*
X47715Y-68659D01*
X47659Y-68678D01*
X47621Y-68678D01*
X47565Y-68659D01*
X47527Y-68621D01*
X47509Y-68584D01*
X47490Y-68509D01*
X47490Y-68453D01*
X47509Y-68378D01*
X47527Y-68340D01*
X47565Y-68303D01*
X47621Y-68284D01*
X47659Y-68284D01*
X47715Y-68303D01*
X47734Y-68321D01*
X49750Y-68684D02*
X49750Y-69003D01*
X49768Y-69040D01*
X49787Y-69059D01*
X49825Y-69078D01*
X49900Y-69078D01*
X49937Y-69059D01*
X49956Y-69040D01*
X49975Y-69003D01*
X49975Y-68684D01*
X50124Y-68684D02*
X50368Y-68684D01*
X50237Y-68834D01*
X50293Y-68834D01*
X50331Y-68853D01*
X50349Y-68871D01*
X50368Y-68909D01*
X50368Y-69003D01*
X50349Y-69040D01*
X50331Y-69059D01*
X50293Y-69078D01*
X50181Y-69078D01*
X50143Y-69059D01*
X50124Y-69040D01*
X47775Y-66121D02*
X47831Y-66140D01*
X47850Y-66159D01*
X47868Y-66196D01*
X47868Y-66253D01*
X47850Y-66290D01*
X47831Y-66309D01*
X47794Y-66328D01*
X47644Y-66328D01*
X47644Y-65934D01*
X47775Y-65934D01*
X47812Y-65953D01*
X47831Y-65971D01*
X47850Y-66009D01*
X47850Y-66046D01*
X47831Y-66084D01*
X47812Y-66103D01*
X47775Y-66121D01*
X47644Y-66121D01*
X47981Y-65934D02*
X48206Y-65934D01*
X48093Y-66328D02*
X48093Y-65934D01*
X48318Y-66215D02*
X48506Y-66215D01*
X48281Y-66328D02*
X48412Y-65934D01*
X48543Y-66328D01*
X48637Y-65934D02*
X48881Y-65934D01*
X48750Y-66084D01*
X48806Y-66084D01*
X48843Y-66103D01*
X48862Y-66121D01*
X48881Y-66159D01*
X48881Y-66253D01*
X48862Y-66290D01*
X48843Y-66309D01*
X48806Y-66328D01*
X48693Y-66328D01*
X48656Y-66309D01*
X48637Y-66290D01*
X49256Y-66328D02*
X49031Y-66328D01*
X49143Y-66328D02*
X49143Y-65934D01*
X49106Y-65990D01*
X49068Y-66028D01*
X49031Y-66046D01*
X49406Y-65971D02*
X49425Y-65953D01*
X49462Y-65934D01*
X49556Y-65934D01*
X49593Y-65953D01*
X49612Y-65971D01*
X49631Y-66009D01*
X49631Y-66046D01*
X49612Y-66103D01*
X49387Y-66328D01*
X49631Y-66328D01*
X49874Y-66140D02*
X49874Y-66328D01*
X49743Y-65934D02*
X49874Y-66140D01*
X50006Y-65934D01*
X50137Y-66178D02*
X50437Y-66178D01*
X50793Y-65934D02*
X50718Y-65934D01*
X50681Y-65953D01*
X50662Y-65971D01*
X50624Y-66028D01*
X50606Y-66103D01*
X50606Y-66253D01*
X50624Y-66290D01*
X50643Y-66309D01*
X50681Y-66328D01*
X50756Y-66328D01*
X50793Y-66309D01*
X50812Y-66290D01*
X50831Y-66253D01*
X50831Y-66159D01*
X50812Y-66121D01*
X50793Y-66103D01*
X50756Y-66084D01*
X50681Y-66084D01*
X50643Y-66103D01*
X50624Y-66121D01*
X50606Y-66159D01*
X51074Y-65934D02*
X51112Y-65934D01*
X51149Y-65953D01*
X51168Y-65971D01*
X51187Y-66009D01*
X51206Y-66084D01*
X51206Y-66178D01*
X51187Y-66253D01*
X51168Y-66290D01*
X51149Y-66309D01*
X51112Y-66328D01*
X51074Y-66328D01*
X51037Y-66309D01*
X51018Y-66290D01*
X50999Y-66253D01*
X50981Y-66178D01*
X50981Y-66084D01*
X50999Y-66009D01*
X51018Y-65971D01*
X51037Y-65953D01*
X51074Y-65934D01*
X51449Y-65934D02*
X51487Y-65934D01*
X51524Y-65953D01*
X51543Y-65971D01*
X51562Y-66009D01*
X51581Y-66084D01*
X51581Y-66178D01*
X51562Y-66253D01*
X51543Y-66290D01*
X51524Y-66309D01*
X51487Y-66328D01*
X51449Y-66328D01*
X51412Y-66309D01*
X51393Y-66290D01*
X51374Y-66253D01*
X51356Y-66178D01*
X51356Y-66084D01*
X51374Y-66009D01*
X51393Y-65971D01*
X51412Y-65953D01*
X51449Y-65934D01*
X51974Y-66290D02*
X51955Y-66309D01*
X51899Y-66328D01*
X51862Y-66328D01*
X51805Y-66309D01*
X51768Y-66271D01*
X51749Y-66234D01*
X51731Y-66159D01*
X51731Y-66103D01*
X51749Y-66028D01*
X51768Y-65990D01*
X51805Y-65953D01*
X51862Y-65934D01*
X51899Y-65934D01*
X51955Y-65953D01*
X51974Y-65971D01*
X43600Y-53884D02*
X43600Y-54203D01*
X43618Y-54240D01*
X43637Y-54259D01*
X43675Y-54278D01*
X43750Y-54278D01*
X43787Y-54259D01*
X43806Y-54240D01*
X43825Y-54203D01*
X43825Y-53884D01*
X44181Y-54015D02*
X44181Y-54278D01*
X44087Y-53865D02*
X43993Y-54146D01*
X44237Y-54146D01*
X42256Y-55184D02*
X42331Y-55184D01*
X42368Y-55203D01*
X42406Y-55240D01*
X42425Y-55315D01*
X42425Y-55446D01*
X42406Y-55521D01*
X42368Y-55559D01*
X42331Y-55578D01*
X42256Y-55578D01*
X42218Y-55559D01*
X42181Y-55521D01*
X42162Y-55446D01*
X42162Y-55315D01*
X42181Y-55240D01*
X42218Y-55203D01*
X42256Y-55184D01*
X42593Y-55578D02*
X42593Y-55184D01*
X42743Y-55184D01*
X42781Y-55203D01*
X42800Y-55221D01*
X42818Y-55259D01*
X42818Y-55315D01*
X42800Y-55353D01*
X42781Y-55371D01*
X42743Y-55390D01*
X42593Y-55390D01*
X42931Y-55184D02*
X43156Y-55184D01*
X43043Y-55578D02*
X43043Y-55184D01*
X43362Y-55184D02*
X43437Y-55184D01*
X43475Y-55203D01*
X43512Y-55240D01*
X43531Y-55315D01*
X43531Y-55446D01*
X43512Y-55521D01*
X43475Y-55559D01*
X43437Y-55578D01*
X43362Y-55578D01*
X43325Y-55559D01*
X43287Y-55521D01*
X43268Y-55446D01*
X43268Y-55315D01*
X43287Y-55240D01*
X43325Y-55203D01*
X43362Y-55184D01*
X43700Y-55428D02*
X44000Y-55428D01*
X44131Y-55184D02*
X44356Y-55184D01*
X44243Y-55578D02*
X44243Y-55184D01*
X44712Y-55578D02*
X44581Y-55390D01*
X44487Y-55578D02*
X44487Y-55184D01*
X44637Y-55184D01*
X44674Y-55203D01*
X44693Y-55221D01*
X44712Y-55259D01*
X44712Y-55315D01*
X44693Y-55353D01*
X44674Y-55371D01*
X44637Y-55390D01*
X44487Y-55390D01*
X44862Y-55465D02*
X45049Y-55465D01*
X44824Y-55578D02*
X44956Y-55184D01*
X45087Y-55578D01*
X45218Y-55578D02*
X45218Y-55184D01*
X45443Y-55578D01*
X45443Y-55184D01*
X45612Y-55559D02*
X45668Y-55578D01*
X45762Y-55578D01*
X45799Y-55559D01*
X45818Y-55540D01*
X45837Y-55503D01*
X45837Y-55465D01*
X45818Y-55428D01*
X45799Y-55409D01*
X45762Y-55390D01*
X45687Y-55371D01*
X45649Y-55353D01*
X45631Y-55334D01*
X45612Y-55296D01*
X45612Y-55259D01*
X45631Y-55221D01*
X45649Y-55203D01*
X45687Y-55184D01*
X45781Y-55184D01*
X45837Y-55203D01*
X37734Y-65868D02*
X38128Y-65606D01*
X37734Y-65606D02*
X38128Y-65868D01*
X38128Y-65250D02*
X38128Y-65475D01*
X38128Y-65362D02*
X37734Y-65362D01*
X37790Y-65400D01*
X37828Y-65437D01*
X37846Y-65475D01*
G54D18*
X40380Y-72376D02*
X40380Y-71876D01*
X40571Y-71876D01*
X40619Y-71900D01*
X40642Y-71923D01*
X40666Y-71971D01*
X40666Y-72042D01*
X40642Y-72090D01*
X40619Y-72114D01*
X40571Y-72138D01*
X40380Y-72138D01*
X41142Y-72376D02*
X40857Y-72376D01*
X41000Y-72376D02*
X41000Y-71876D01*
X40952Y-71947D01*
X40904Y-71995D01*
X40857Y-72019D01*
G54D10*
X40615Y-62451D02*
X40615Y-62058D01*
X41028Y-62414D02*
X41009Y-62432D01*
X40953Y-62451D01*
X40915Y-62451D01*
X40859Y-62432D01*
X40821Y-62395D01*
X40803Y-62357D01*
X40784Y-62282D01*
X40784Y-62226D01*
X40803Y-62151D01*
X40821Y-62114D01*
X40859Y-62076D01*
X40915Y-62058D01*
X40953Y-62058D01*
X41009Y-62076D01*
X41028Y-62095D01*
X41403Y-62451D02*
X41178Y-62451D01*
X41290Y-62451D02*
X41290Y-62058D01*
X41253Y-62114D01*
X41215Y-62151D01*
X41178Y-62170D01*
M02*
