%FSLAX34Y34*%
G04 Gerber Fmt 3.4, Leading zero omitted, Abs format*
G04 (created by PCBNEW (2014-jan-25)-product) date Thu 28 May 2015 05:52:09 PM EDT*
%MOIN*%
G01*
G70*
G90*
G04 APERTURE LIST*
%ADD10C,0.005906*%
%ADD11R,0.059000X0.051200*%
%ADD12R,0.051200X0.059000*%
%ADD13R,0.031400X0.031400*%
%ADD14R,0.027559X0.039370*%
%ADD15R,0.100000X0.100000*%
%ADD16C,0.100000*%
%ADD17R,0.078740X0.118110*%
%ADD18C,0.078740*%
%ADD19C,0.059055*%
%ADD20R,0.055000X0.055000*%
%ADD21C,0.055000*%
%ADD22R,0.068000X0.068000*%
%ADD23O,0.068000X0.068000*%
%ADD24R,0.047200X0.031500*%
%ADD25R,0.031500X0.047200*%
%ADD26R,0.047200X0.059100*%
%ADD27R,0.059100X0.047200*%
%ADD28R,0.044882X0.035827*%
%ADD29C,0.070000*%
%ADD30R,0.070000X0.070000*%
%ADD31C,0.039400*%
%ADD32R,0.080000X0.080000*%
%ADD33O,0.080000X0.080000*%
%ADD34R,0.027559X0.009843*%
%ADD35R,0.009843X0.027559*%
%ADD36R,0.067913X0.067913*%
%ADD37C,0.160000*%
G04 APERTURE END LIST*
G54D10*
G54D11*
X44250Y-59125D03*
X44250Y-58375D03*
X44250Y-56875D03*
X44250Y-57625D03*
G54D12*
X37625Y-59250D03*
X38375Y-59250D03*
G54D11*
X39750Y-62125D03*
X39750Y-61375D03*
G54D13*
X34045Y-61500D03*
X33455Y-61500D03*
X34045Y-62250D03*
X33455Y-62250D03*
G54D14*
X49858Y-57537D03*
X49858Y-55962D03*
X52141Y-57537D03*
X52141Y-55962D03*
G54D13*
X34045Y-63000D03*
X33455Y-63000D03*
G54D15*
X54750Y-56250D03*
G54D16*
X54750Y-58250D03*
X54750Y-60250D03*
G54D17*
X34250Y-56000D03*
G54D18*
X36250Y-55000D03*
X36250Y-54000D03*
X36250Y-57000D03*
X36250Y-58000D03*
G54D19*
X33250Y-54000D03*
X33250Y-58000D03*
X34250Y-58000D03*
X34250Y-54000D03*
X36250Y-56000D03*
G54D20*
X40750Y-54000D03*
G54D21*
X41750Y-54000D03*
X42750Y-54000D03*
X43750Y-54000D03*
G54D22*
X42000Y-62750D03*
G54D23*
X43000Y-62750D03*
X44000Y-62750D03*
X44000Y-61750D03*
X43000Y-61750D03*
X42000Y-61750D03*
G54D24*
X43000Y-55356D03*
X43000Y-56144D03*
X38250Y-56894D03*
X38250Y-56106D03*
G54D25*
X44394Y-60250D03*
X43606Y-60250D03*
G54D24*
X36250Y-60144D03*
X36250Y-59356D03*
G54D25*
X34856Y-61500D03*
X35644Y-61500D03*
G54D26*
X50500Y-60512D03*
X50500Y-59488D03*
G54D27*
X47988Y-59750D03*
X49012Y-59750D03*
G54D25*
X49106Y-62000D03*
X49894Y-62000D03*
X35644Y-63000D03*
X34856Y-63000D03*
G54D28*
X45250Y-61750D03*
X45250Y-62750D03*
X47750Y-61750D03*
X47750Y-62750D03*
G54D29*
X52000Y-60250D03*
X52000Y-61250D03*
G54D30*
X52000Y-62250D03*
G54D19*
X48750Y-53750D03*
X48750Y-54750D03*
X44750Y-54750D03*
X44750Y-53750D03*
G54D31*
X39750Y-59705D03*
X39750Y-60295D03*
G54D32*
X38250Y-62500D03*
G54D33*
X38250Y-61500D03*
G54D34*
X40805Y-57561D03*
X40805Y-57757D03*
X40805Y-57954D03*
X40805Y-58151D03*
X40805Y-58348D03*
X40805Y-58545D03*
X40805Y-58742D03*
X40805Y-58938D03*
G54D35*
X41061Y-59194D03*
X41257Y-59194D03*
X41454Y-59194D03*
X41651Y-59194D03*
X41848Y-59194D03*
X42045Y-59194D03*
X42242Y-59194D03*
X42438Y-59194D03*
G54D34*
X42694Y-58938D03*
X42694Y-58742D03*
X42694Y-58545D03*
X42694Y-58348D03*
X42694Y-58151D03*
X42694Y-57954D03*
X42694Y-57757D03*
X42694Y-57561D03*
G54D35*
X42438Y-57305D03*
X42242Y-57305D03*
X42045Y-57305D03*
X41848Y-57305D03*
X41651Y-57305D03*
X41454Y-57305D03*
X41257Y-57305D03*
X41061Y-57305D03*
G54D36*
X42089Y-58589D03*
X42089Y-57910D03*
X41410Y-58589D03*
X41410Y-57910D03*
G54D37*
X34500Y-59750D03*
X54750Y-62500D03*
X54750Y-54250D03*
M02*
