M48
INCH,TZ
T1C0.014
T2C0.024
T3C0.025
T4C0.031
T5C0.032
T6C0.040
T7C0.047
T8C0.060
T9C0.120
%
G90
G05
T1
X33500Y-59000
X33750Y-58750
X35750Y-62250
X37000Y-59000
X37250Y-60250
X38250Y-60000
X38750Y-55250
X39250Y-54000
X39250Y-58750
X39500Y-55250
X40000Y-58000
X40000Y-58750
X40250Y-55250
X40750Y-56000
X41000Y-62250
X41250Y-60000
X41750Y-55500
X41750Y-56000
X42500Y-54750
X43000Y-59750
X43250Y-58742
X44000Y-56000
X45000Y-59250
T2
X39750Y-59705
X39750Y-60295
T3
X48500Y-61000
X49250Y-61000
X50500Y-58250
X52750Y-55250
T4
X44750Y-53750
X44750Y-54750
X48750Y-53750
X48750Y-54750
T5
X40750Y-54000
X41750Y-54000
X42750Y-54000
X43750Y-54000
T6
X38250Y-61500
X38250Y-62500
X42000Y-61750
X42000Y-62750
X43000Y-61750
X43000Y-62750
X44000Y-61750
X44000Y-62750
X52000Y-60250
X52000Y-61250
X52000Y-62250
T7
X34250Y-56000
X36250Y-54000
X36250Y-55000
X36250Y-57000
X36250Y-58000
T8
X54750Y-56250
X54750Y-58250
X54750Y-60250
T9
X34500Y-59750
X54750Y-54250
X54750Y-62500
T0
M30
