M48
INCH,TZ
T1C0.014
T2C0.024
T3C0.025
T4C0.031
T5C0.032
T6C0.040
T7C0.047
T8C0.060
T9C0.120
%
G90
G05
T1
X35450Y-64450
X36000Y-63400
X39400Y-68700
X39650Y-67200
X41200Y-65700
X42000Y-65700
T2
X38950Y-65005
X38950Y-65595
T3
X36300Y-67450
X37000Y-64300
X37100Y-66500
X37600Y-65850
X38450Y-68700
X39100Y-70250
X39300Y-63850
X39400Y-62800
X39900Y-65350
X41350Y-68050
X42650Y-63400
X42750Y-65750
X43700Y-65250
X44050Y-67700
X45650Y-59600
X47650Y-63650
X47900Y-69000
X48350Y-66650
X48550Y-67250
X48950Y-66650
X49500Y-63200
X49550Y-62200
X51550Y-58300
T4
X42000Y-53600
X42000Y-54600
X46000Y-53600
X46000Y-54600
T5
X34200Y-61350
X34200Y-62350
X34200Y-63350
X34200Y-64350
T6
X36650Y-69300
X36650Y-70300
X36650Y-71300
X37650Y-69300
X37650Y-70300
X37650Y-71300
X40250Y-71250
X41250Y-71250
X49050Y-67650
X50050Y-67650
X51050Y-67650
T7
X34550Y-58000
X36550Y-56000
X36550Y-57000
X36550Y-59000
X36550Y-60000
T8
X50700Y-60750
X50700Y-62750
X50700Y-64750
T9
X34500Y-54250
X34500Y-70500
X50500Y-70500
X50600Y-54350
T0
M30
