%FSLAX34Y34*%
G04 Gerber Fmt 3.4, Leading zero omitted, Abs format*
G04 (created by PCBNEW (2014-jan-25)-product) date Thu 28 May 2015 05:52:09 PM EDT*
%MOIN*%
G01*
G70*
G90*
G04 APERTURE LIST*
%ADD10C,0.005906*%
%ADD11C,0.007874*%
%ADD12C,0.005000*%
%ADD13C,0.002600*%
%ADD14C,0.004000*%
%ADD15C,0.012000*%
%ADD16C,0.010000*%
%ADD17C,0.015000*%
%ADD18C,0.002400*%
%ADD19C,0.008000*%
G04 APERTURE END LIST*
G54D10*
G54D11*
X47500Y-53500D02*
X47500Y-63462D01*
X45500Y-53500D02*
X45500Y-63462D01*
G54D12*
X44500Y-59000D02*
X44000Y-59000D01*
X44500Y-58500D02*
X44010Y-58500D01*
X44500Y-58350D02*
X44500Y-59150D01*
X44500Y-59150D02*
X44000Y-59150D01*
X44000Y-59150D02*
X44000Y-58350D01*
X44000Y-58350D02*
X44500Y-58350D01*
X44000Y-57000D02*
X44500Y-57000D01*
X44000Y-57500D02*
X44490Y-57500D01*
X44000Y-57650D02*
X44000Y-56850D01*
X44000Y-56850D02*
X44500Y-56850D01*
X44500Y-56850D02*
X44500Y-57650D01*
X44500Y-57650D02*
X44000Y-57650D01*
X37750Y-59500D02*
X37750Y-59000D01*
X38250Y-59500D02*
X38250Y-59010D01*
X38400Y-59500D02*
X37600Y-59500D01*
X37600Y-59500D02*
X37600Y-59000D01*
X37600Y-59000D02*
X38400Y-59000D01*
X38400Y-59000D02*
X38400Y-59500D01*
X40000Y-62000D02*
X39500Y-62000D01*
X40000Y-61500D02*
X39510Y-61500D01*
X40000Y-61350D02*
X40000Y-62150D01*
X40000Y-62150D02*
X39500Y-62150D01*
X39500Y-62150D02*
X39500Y-61350D01*
X39500Y-61350D02*
X40000Y-61350D01*
G54D13*
X33573Y-61677D02*
X33573Y-61323D01*
X33573Y-61323D02*
X33416Y-61323D01*
X33416Y-61677D02*
X33416Y-61323D01*
X33573Y-61677D02*
X33416Y-61677D01*
X34084Y-61677D02*
X34084Y-61323D01*
X34084Y-61323D02*
X33927Y-61323D01*
X33927Y-61677D02*
X33927Y-61323D01*
X34084Y-61677D02*
X33927Y-61677D01*
X33750Y-61677D02*
X33750Y-61618D01*
X33750Y-61618D02*
X33632Y-61618D01*
X33632Y-61677D02*
X33632Y-61618D01*
X33750Y-61677D02*
X33632Y-61677D01*
X33750Y-61382D02*
X33750Y-61323D01*
X33750Y-61323D02*
X33632Y-61323D01*
X33632Y-61382D02*
X33632Y-61323D01*
X33750Y-61382D02*
X33632Y-61382D01*
X33750Y-61559D02*
X33750Y-61441D01*
X33750Y-61441D02*
X33632Y-61441D01*
X33632Y-61559D02*
X33632Y-61441D01*
X33750Y-61559D02*
X33632Y-61559D01*
G54D14*
X33573Y-61657D02*
X33927Y-61657D01*
X33573Y-61343D02*
X33927Y-61343D01*
G54D13*
X33573Y-62427D02*
X33573Y-62073D01*
X33573Y-62073D02*
X33416Y-62073D01*
X33416Y-62427D02*
X33416Y-62073D01*
X33573Y-62427D02*
X33416Y-62427D01*
X34084Y-62427D02*
X34084Y-62073D01*
X34084Y-62073D02*
X33927Y-62073D01*
X33927Y-62427D02*
X33927Y-62073D01*
X34084Y-62427D02*
X33927Y-62427D01*
X33750Y-62427D02*
X33750Y-62368D01*
X33750Y-62368D02*
X33632Y-62368D01*
X33632Y-62427D02*
X33632Y-62368D01*
X33750Y-62427D02*
X33632Y-62427D01*
X33750Y-62132D02*
X33750Y-62073D01*
X33750Y-62073D02*
X33632Y-62073D01*
X33632Y-62132D02*
X33632Y-62073D01*
X33750Y-62132D02*
X33632Y-62132D01*
X33750Y-62309D02*
X33750Y-62191D01*
X33750Y-62191D02*
X33632Y-62191D01*
X33632Y-62309D02*
X33632Y-62191D01*
X33750Y-62309D02*
X33632Y-62309D01*
G54D14*
X33573Y-62407D02*
X33927Y-62407D01*
X33573Y-62093D02*
X33927Y-62093D01*
G54D10*
X50094Y-57773D02*
X50094Y-55726D01*
X50094Y-55726D02*
X51905Y-55726D01*
X51905Y-55726D02*
X51905Y-57773D01*
X51905Y-57773D02*
X50094Y-57773D01*
G54D13*
X33573Y-63177D02*
X33573Y-62823D01*
X33573Y-62823D02*
X33416Y-62823D01*
X33416Y-63177D02*
X33416Y-62823D01*
X33573Y-63177D02*
X33416Y-63177D01*
X34084Y-63177D02*
X34084Y-62823D01*
X34084Y-62823D02*
X33927Y-62823D01*
X33927Y-63177D02*
X33927Y-62823D01*
X34084Y-63177D02*
X33927Y-63177D01*
X33750Y-63177D02*
X33750Y-63118D01*
X33750Y-63118D02*
X33632Y-63118D01*
X33632Y-63177D02*
X33632Y-63118D01*
X33750Y-63177D02*
X33632Y-63177D01*
X33750Y-62882D02*
X33750Y-62823D01*
X33750Y-62823D02*
X33632Y-62823D01*
X33632Y-62882D02*
X33632Y-62823D01*
X33750Y-62882D02*
X33632Y-62882D01*
X33750Y-63059D02*
X33750Y-62941D01*
X33750Y-62941D02*
X33632Y-62941D01*
X33632Y-63059D02*
X33632Y-62941D01*
X33750Y-63059D02*
X33632Y-63059D01*
G54D14*
X33573Y-63157D02*
X33927Y-63157D01*
X33573Y-62843D02*
X33927Y-62843D01*
G54D15*
X53250Y-55250D02*
X56250Y-55250D01*
X53250Y-61250D02*
X56250Y-61250D01*
X53750Y-55250D02*
X53750Y-61250D01*
X56250Y-55250D02*
X56250Y-61250D01*
X53250Y-55250D02*
X53250Y-61250D01*
G54D10*
X32850Y-53800D02*
X37650Y-53800D01*
X37650Y-53800D02*
X37650Y-58200D01*
X37650Y-58200D02*
X32850Y-58200D01*
G54D15*
X40250Y-53500D02*
X40250Y-53500D01*
X40250Y-54500D02*
X40250Y-53500D01*
X40250Y-53500D02*
X40250Y-53500D01*
X40250Y-53500D02*
X44250Y-53500D01*
X44250Y-53500D02*
X44250Y-54500D01*
X44250Y-54500D02*
X40250Y-54500D01*
X41250Y-54500D02*
X41250Y-53500D01*
G54D16*
X41500Y-62250D02*
X42500Y-62250D01*
X42500Y-62250D02*
X42500Y-63250D01*
X41500Y-63250D02*
X44500Y-63250D01*
X44500Y-63250D02*
X44500Y-61250D01*
X44500Y-61250D02*
X42500Y-61250D01*
X41500Y-63250D02*
X41500Y-62250D01*
X41500Y-61250D02*
X41500Y-62250D01*
X42500Y-61250D02*
X41500Y-61250D01*
G54D17*
X42803Y-55002D02*
X42567Y-55002D01*
X42567Y-55002D02*
X42567Y-56498D01*
X42567Y-56498D02*
X42803Y-56498D01*
X43197Y-56498D02*
X43433Y-56498D01*
X43433Y-56498D02*
X43433Y-55002D01*
X43433Y-55002D02*
X43197Y-55002D01*
X38447Y-57248D02*
X38683Y-57248D01*
X38683Y-57248D02*
X38683Y-55752D01*
X38683Y-55752D02*
X38447Y-55752D01*
X38053Y-55752D02*
X37817Y-55752D01*
X37817Y-55752D02*
X37817Y-57248D01*
X37817Y-57248D02*
X38053Y-57248D01*
X44748Y-60053D02*
X44748Y-59817D01*
X44748Y-59817D02*
X43252Y-59817D01*
X43252Y-59817D02*
X43252Y-60053D01*
X43252Y-60447D02*
X43252Y-60683D01*
X43252Y-60683D02*
X44748Y-60683D01*
X44748Y-60683D02*
X44748Y-60447D01*
X36447Y-60498D02*
X36683Y-60498D01*
X36683Y-60498D02*
X36683Y-59002D01*
X36683Y-59002D02*
X36447Y-59002D01*
X36053Y-59002D02*
X35817Y-59002D01*
X35817Y-59002D02*
X35817Y-60498D01*
X35817Y-60498D02*
X36053Y-60498D01*
X34502Y-61697D02*
X34502Y-61933D01*
X34502Y-61933D02*
X35998Y-61933D01*
X35998Y-61933D02*
X35998Y-61697D01*
X35998Y-61303D02*
X35998Y-61067D01*
X35998Y-61067D02*
X34502Y-61067D01*
X34502Y-61067D02*
X34502Y-61303D01*
X50050Y-60000D02*
X50050Y-60400D01*
X50050Y-60000D02*
X50050Y-59600D01*
X50950Y-60000D02*
X50950Y-60400D01*
X50950Y-60000D02*
X50950Y-59600D01*
X48500Y-59300D02*
X48100Y-59300D01*
X48500Y-59300D02*
X48900Y-59300D01*
X48500Y-60200D02*
X48100Y-60200D01*
X48500Y-60200D02*
X48900Y-60200D01*
X48752Y-62197D02*
X48752Y-62433D01*
X48752Y-62433D02*
X50248Y-62433D01*
X50248Y-62433D02*
X50248Y-62197D01*
X50248Y-61803D02*
X50248Y-61567D01*
X50248Y-61567D02*
X48752Y-61567D01*
X48752Y-61567D02*
X48752Y-61803D01*
X35998Y-62803D02*
X35998Y-62567D01*
X35998Y-62567D02*
X34502Y-62567D01*
X34502Y-62567D02*
X34502Y-62803D01*
X34502Y-63197D02*
X34502Y-63433D01*
X34502Y-63433D02*
X35998Y-63433D01*
X35998Y-63433D02*
X35998Y-63197D01*
G54D10*
X47300Y-63250D02*
X45850Y-63250D01*
X45850Y-63250D02*
X47300Y-63250D01*
X47300Y-61250D02*
X47300Y-63250D01*
X45850Y-61250D02*
X45850Y-63250D01*
X45600Y-61250D02*
X47400Y-61250D01*
X47400Y-61250D02*
X47400Y-63250D01*
X47400Y-63250D02*
X45600Y-63250D01*
X45600Y-63250D02*
X45600Y-61250D01*
G54D17*
X52750Y-59250D02*
X53000Y-59250D01*
X53000Y-59250D02*
X53000Y-63250D01*
X53000Y-63250D02*
X52750Y-63250D01*
X51250Y-59250D02*
X52750Y-59250D01*
X52750Y-59250D02*
X52750Y-63250D01*
X52750Y-63250D02*
X51250Y-63250D01*
X51250Y-63250D02*
X51250Y-59250D01*
G54D10*
X45250Y-53350D02*
X48250Y-53350D01*
X48250Y-53350D02*
X48250Y-55150D01*
X48250Y-55150D02*
X45250Y-55150D01*
X45250Y-55150D02*
X45250Y-53350D01*
G54D17*
X39396Y-60512D02*
X39297Y-60413D01*
X39297Y-60413D02*
X39199Y-60276D01*
X39199Y-60276D02*
X39140Y-60059D01*
X39140Y-60059D02*
X39140Y-59902D01*
X39140Y-59902D02*
X39219Y-59705D01*
X39219Y-59705D02*
X39356Y-59547D01*
X40085Y-60512D02*
X40163Y-60453D01*
X40163Y-60453D02*
X40262Y-60335D01*
X40262Y-60335D02*
X40341Y-60157D01*
X40341Y-60157D02*
X40360Y-59980D01*
X40360Y-59980D02*
X40321Y-59783D01*
X40321Y-59783D02*
X40242Y-59646D01*
X40242Y-59646D02*
X40104Y-59508D01*
G54D16*
X37750Y-62000D02*
X38750Y-62000D01*
X37750Y-63000D02*
X38750Y-63000D01*
X38750Y-63000D02*
X38750Y-62000D01*
X38750Y-62000D02*
X38750Y-61000D01*
X38750Y-61000D02*
X37750Y-61000D01*
X37750Y-61000D02*
X37750Y-63000D01*
G54D10*
X42783Y-57216D02*
X42783Y-57423D01*
X40716Y-59283D02*
X40716Y-59076D01*
X42783Y-59283D02*
X42783Y-59076D01*
X40716Y-57216D02*
X40923Y-57216D01*
X40716Y-59283D02*
X40923Y-59283D01*
X42783Y-59283D02*
X42576Y-59283D01*
X42783Y-57216D02*
X42576Y-57216D01*
G54D17*
X35400Y-59750D02*
G75*
G03X35400Y-59750I-900J0D01*
G74*
G01*
X55650Y-62500D02*
G75*
G03X55650Y-62500I-900J0D01*
G74*
G01*
X55650Y-54250D02*
G75*
G03X55650Y-54250I-900J0D01*
G74*
G01*
G54D18*
X44682Y-58769D02*
X44687Y-58775D01*
X44693Y-58792D01*
X44693Y-58803D01*
X44687Y-58820D01*
X44676Y-58831D01*
X44665Y-58837D01*
X44642Y-58842D01*
X44625Y-58842D01*
X44603Y-58837D01*
X44592Y-58831D01*
X44581Y-58820D01*
X44575Y-58803D01*
X44575Y-58792D01*
X44581Y-58775D01*
X44586Y-58769D01*
X44575Y-58730D02*
X44575Y-58657D01*
X44620Y-58696D01*
X44620Y-58679D01*
X44625Y-58668D01*
X44631Y-58662D01*
X44642Y-58657D01*
X44670Y-58657D01*
X44682Y-58662D01*
X44687Y-58668D01*
X44693Y-58679D01*
X44693Y-58713D01*
X44687Y-58724D01*
X44682Y-58730D01*
X43902Y-57269D02*
X43907Y-57275D01*
X43913Y-57292D01*
X43913Y-57303D01*
X43907Y-57320D01*
X43896Y-57331D01*
X43885Y-57337D01*
X43862Y-57342D01*
X43845Y-57342D01*
X43823Y-57337D01*
X43812Y-57331D01*
X43801Y-57320D01*
X43795Y-57303D01*
X43795Y-57292D01*
X43801Y-57275D01*
X43806Y-57269D01*
X43834Y-57168D02*
X43913Y-57168D01*
X43789Y-57196D02*
X43874Y-57224D01*
X43874Y-57151D01*
X37980Y-59682D02*
X37974Y-59687D01*
X37957Y-59693D01*
X37946Y-59693D01*
X37929Y-59687D01*
X37918Y-59676D01*
X37912Y-59665D01*
X37907Y-59642D01*
X37907Y-59625D01*
X37912Y-59603D01*
X37918Y-59592D01*
X37929Y-59581D01*
X37946Y-59575D01*
X37957Y-59575D01*
X37974Y-59581D01*
X37980Y-59586D01*
X38087Y-59575D02*
X38030Y-59575D01*
X38025Y-59631D01*
X38030Y-59625D01*
X38042Y-59620D01*
X38070Y-59620D01*
X38081Y-59625D01*
X38087Y-59631D01*
X38092Y-59642D01*
X38092Y-59670D01*
X38087Y-59682D01*
X38081Y-59687D01*
X38070Y-59693D01*
X38042Y-59693D01*
X38030Y-59687D01*
X38025Y-59682D01*
X40182Y-61769D02*
X40187Y-61775D01*
X40193Y-61792D01*
X40193Y-61803D01*
X40187Y-61820D01*
X40176Y-61831D01*
X40165Y-61837D01*
X40142Y-61842D01*
X40125Y-61842D01*
X40103Y-61837D01*
X40092Y-61831D01*
X40081Y-61820D01*
X40075Y-61803D01*
X40075Y-61792D01*
X40081Y-61775D01*
X40086Y-61769D01*
X40075Y-61668D02*
X40075Y-61691D01*
X40081Y-61702D01*
X40086Y-61707D01*
X40103Y-61719D01*
X40125Y-61724D01*
X40170Y-61724D01*
X40182Y-61719D01*
X40187Y-61713D01*
X40193Y-61702D01*
X40193Y-61679D01*
X40187Y-61668D01*
X40182Y-61662D01*
X40170Y-61657D01*
X40142Y-61657D01*
X40131Y-61662D01*
X40125Y-61668D01*
X40120Y-61679D01*
X40120Y-61702D01*
X40125Y-61713D01*
X40131Y-61719D01*
X40142Y-61724D01*
G54D12*
X33602Y-61990D02*
X33602Y-61790D01*
X33650Y-61790D01*
X33678Y-61800D01*
X33697Y-61819D01*
X33707Y-61838D01*
X33716Y-61876D01*
X33716Y-61904D01*
X33707Y-61942D01*
X33697Y-61961D01*
X33678Y-61980D01*
X33650Y-61990D01*
X33602Y-61990D01*
X33907Y-61990D02*
X33792Y-61990D01*
X33850Y-61990D02*
X33850Y-61790D01*
X33830Y-61819D01*
X33811Y-61838D01*
X33792Y-61847D01*
X33621Y-61090D02*
X33526Y-61090D01*
X33526Y-60890D01*
X33688Y-60985D02*
X33754Y-60985D01*
X33783Y-61090D02*
X33688Y-61090D01*
X33688Y-60890D01*
X33783Y-60890D01*
X33869Y-61090D02*
X33869Y-60890D01*
X33916Y-60890D01*
X33945Y-60900D01*
X33964Y-60919D01*
X33973Y-60938D01*
X33983Y-60976D01*
X33983Y-61004D01*
X33973Y-61042D01*
X33964Y-61061D01*
X33945Y-61080D01*
X33916Y-61090D01*
X33869Y-61090D01*
X33602Y-62740D02*
X33602Y-62540D01*
X33650Y-62540D01*
X33678Y-62550D01*
X33697Y-62569D01*
X33707Y-62588D01*
X33716Y-62626D01*
X33716Y-62654D01*
X33707Y-62692D01*
X33697Y-62711D01*
X33678Y-62730D01*
X33650Y-62740D01*
X33602Y-62740D01*
X33792Y-62559D02*
X33802Y-62550D01*
X33821Y-62540D01*
X33869Y-62540D01*
X33888Y-62550D01*
X33897Y-62559D01*
X33907Y-62578D01*
X33907Y-62597D01*
X33897Y-62626D01*
X33783Y-62740D01*
X33907Y-62740D01*
X33090Y-62378D02*
X33090Y-62473D01*
X32890Y-62473D01*
X32985Y-62311D02*
X32985Y-62245D01*
X33090Y-62216D02*
X33090Y-62311D01*
X32890Y-62311D01*
X32890Y-62216D01*
X33090Y-62130D02*
X32890Y-62130D01*
X32890Y-62083D01*
X32900Y-62054D01*
X32919Y-62035D01*
X32938Y-62026D01*
X32976Y-62016D01*
X33004Y-62016D01*
X33042Y-62026D01*
X33061Y-62035D01*
X33080Y-62054D01*
X33090Y-62083D01*
X33090Y-62130D01*
G54D10*
X49178Y-57040D02*
X48784Y-57040D01*
X48784Y-56946D01*
X48803Y-56890D01*
X48840Y-56853D01*
X48878Y-56834D01*
X48953Y-56815D01*
X49009Y-56815D01*
X49084Y-56834D01*
X49121Y-56853D01*
X49159Y-56890D01*
X49178Y-56946D01*
X49178Y-57040D01*
X48784Y-56684D02*
X48784Y-56440D01*
X48934Y-56571D01*
X48934Y-56515D01*
X48953Y-56478D01*
X48971Y-56459D01*
X49009Y-56440D01*
X49103Y-56440D01*
X49140Y-56459D01*
X49159Y-56478D01*
X49178Y-56515D01*
X49178Y-56628D01*
X49159Y-56665D01*
X49140Y-56684D01*
X52971Y-57584D02*
X52990Y-57528D01*
X53009Y-57509D01*
X53046Y-57490D01*
X53103Y-57490D01*
X53140Y-57509D01*
X53159Y-57528D01*
X53178Y-57565D01*
X53178Y-57715D01*
X52784Y-57715D01*
X52784Y-57584D01*
X52803Y-57546D01*
X52821Y-57528D01*
X52859Y-57509D01*
X52896Y-57509D01*
X52934Y-57528D01*
X52953Y-57546D01*
X52971Y-57584D01*
X52971Y-57715D01*
X53178Y-57096D02*
X52990Y-57228D01*
X53178Y-57321D02*
X52784Y-57321D01*
X52784Y-57171D01*
X52803Y-57134D01*
X52821Y-57115D01*
X52859Y-57096D01*
X52915Y-57096D01*
X52953Y-57115D01*
X52971Y-57134D01*
X52990Y-57171D01*
X52990Y-57321D01*
X53178Y-56928D02*
X52784Y-56928D01*
X53178Y-56740D02*
X52784Y-56740D01*
X52784Y-56646D01*
X52803Y-56590D01*
X52840Y-56553D01*
X52878Y-56534D01*
X52953Y-56515D01*
X53009Y-56515D01*
X53084Y-56534D01*
X53121Y-56553D01*
X53159Y-56590D01*
X53178Y-56646D01*
X53178Y-56740D01*
X52803Y-56140D02*
X52784Y-56178D01*
X52784Y-56234D01*
X52803Y-56290D01*
X52840Y-56328D01*
X52878Y-56346D01*
X52953Y-56365D01*
X53009Y-56365D01*
X53084Y-56346D01*
X53121Y-56328D01*
X53159Y-56290D01*
X53178Y-56234D01*
X53178Y-56196D01*
X53159Y-56140D01*
X53140Y-56121D01*
X53009Y-56121D01*
X53009Y-56196D01*
X52971Y-55953D02*
X52971Y-55821D01*
X53178Y-55765D02*
X53178Y-55953D01*
X52784Y-55953D01*
X52784Y-55765D01*
X49886Y-58120D02*
X49886Y-57820D01*
X49886Y-55679D02*
X49886Y-55379D01*
X50036Y-55529D02*
X49736Y-55529D01*
G54D12*
X33602Y-63490D02*
X33602Y-63290D01*
X33650Y-63290D01*
X33678Y-63300D01*
X33697Y-63319D01*
X33707Y-63338D01*
X33716Y-63376D01*
X33716Y-63404D01*
X33707Y-63442D01*
X33697Y-63461D01*
X33678Y-63480D01*
X33650Y-63490D01*
X33602Y-63490D01*
X33888Y-63357D02*
X33888Y-63490D01*
X33840Y-63280D02*
X33792Y-63423D01*
X33916Y-63423D01*
X33090Y-63128D02*
X33090Y-63223D01*
X32890Y-63223D01*
X32985Y-63061D02*
X32985Y-62995D01*
X33090Y-62966D02*
X33090Y-63061D01*
X32890Y-63061D01*
X32890Y-62966D01*
X33090Y-62880D02*
X32890Y-62880D01*
X32890Y-62833D01*
X32900Y-62804D01*
X32919Y-62785D01*
X32938Y-62776D01*
X32976Y-62766D01*
X33004Y-62766D01*
X33042Y-62776D01*
X33061Y-62785D01*
X33080Y-62804D01*
X33090Y-62833D01*
X33090Y-62880D01*
G54D10*
X55928Y-59290D02*
X55534Y-59290D01*
X55928Y-59065D02*
X55703Y-59234D01*
X55534Y-59065D02*
X55759Y-59290D01*
X55928Y-58690D02*
X55928Y-58915D01*
X55928Y-58803D02*
X55534Y-58803D01*
X55590Y-58840D01*
X55628Y-58878D01*
X55646Y-58915D01*
X52890Y-59084D02*
X52909Y-59103D01*
X52928Y-59159D01*
X52928Y-59196D01*
X52909Y-59252D01*
X52871Y-59290D01*
X52834Y-59309D01*
X52759Y-59327D01*
X52703Y-59327D01*
X52628Y-59309D01*
X52590Y-59290D01*
X52553Y-59252D01*
X52534Y-59196D01*
X52534Y-59159D01*
X52553Y-59103D01*
X52571Y-59084D01*
X52534Y-58840D02*
X52534Y-58765D01*
X52553Y-58728D01*
X52590Y-58690D01*
X52665Y-58671D01*
X52796Y-58671D01*
X52871Y-58690D01*
X52909Y-58728D01*
X52928Y-58765D01*
X52928Y-58840D01*
X52909Y-58878D01*
X52871Y-58915D01*
X52796Y-58934D01*
X52665Y-58934D01*
X52590Y-58915D01*
X52553Y-58878D01*
X52534Y-58840D01*
X52928Y-58503D02*
X52534Y-58503D01*
X52928Y-58278D01*
X52534Y-58278D01*
X52928Y-58090D02*
X52534Y-58090D01*
X52928Y-57865D01*
X52534Y-57865D01*
X52965Y-57771D02*
X52965Y-57471D01*
X52534Y-57415D02*
X52534Y-57172D01*
X52684Y-57303D01*
X52684Y-57247D01*
X52703Y-57209D01*
X52721Y-57190D01*
X52759Y-57172D01*
X52853Y-57172D01*
X52890Y-57190D01*
X52909Y-57209D01*
X52928Y-57247D01*
X52928Y-57359D01*
X52909Y-57396D01*
X52890Y-57415D01*
X34959Y-54678D02*
X34959Y-54284D01*
X35109Y-54284D01*
X35146Y-54303D01*
X35165Y-54321D01*
X35184Y-54359D01*
X35184Y-54415D01*
X35165Y-54453D01*
X35146Y-54471D01*
X35109Y-54490D01*
X34959Y-54490D01*
X35334Y-54321D02*
X35353Y-54303D01*
X35390Y-54284D01*
X35484Y-54284D01*
X35521Y-54303D01*
X35540Y-54321D01*
X35559Y-54359D01*
X35559Y-54396D01*
X35540Y-54453D01*
X35315Y-54678D01*
X35559Y-54678D01*
X33415Y-58890D02*
X33396Y-58909D01*
X33340Y-58928D01*
X33303Y-58928D01*
X33247Y-58909D01*
X33209Y-58871D01*
X33190Y-58834D01*
X33172Y-58759D01*
X33172Y-58703D01*
X33190Y-58628D01*
X33209Y-58590D01*
X33247Y-58553D01*
X33303Y-58534D01*
X33340Y-58534D01*
X33396Y-58553D01*
X33415Y-58571D01*
X33659Y-58534D02*
X33734Y-58534D01*
X33771Y-58553D01*
X33809Y-58590D01*
X33828Y-58665D01*
X33828Y-58796D01*
X33809Y-58871D01*
X33771Y-58909D01*
X33734Y-58928D01*
X33659Y-58928D01*
X33621Y-58909D01*
X33584Y-58871D01*
X33565Y-58796D01*
X33565Y-58665D01*
X33584Y-58590D01*
X33621Y-58553D01*
X33659Y-58534D01*
X33996Y-58928D02*
X33996Y-58534D01*
X34221Y-58928D01*
X34221Y-58534D01*
X34409Y-58928D02*
X34409Y-58534D01*
X34634Y-58928D01*
X34634Y-58534D01*
X34728Y-58965D02*
X35028Y-58965D01*
X35309Y-58534D02*
X35121Y-58534D01*
X35103Y-58721D01*
X35121Y-58703D01*
X35159Y-58684D01*
X35253Y-58684D01*
X35290Y-58703D01*
X35309Y-58721D01*
X35327Y-58759D01*
X35327Y-58853D01*
X35309Y-58890D01*
X35290Y-58909D01*
X35253Y-58928D01*
X35159Y-58928D01*
X35121Y-58909D01*
X35103Y-58890D01*
X41459Y-55178D02*
X41459Y-54784D01*
X41609Y-54784D01*
X41646Y-54803D01*
X41665Y-54821D01*
X41684Y-54859D01*
X41684Y-54915D01*
X41665Y-54953D01*
X41646Y-54971D01*
X41609Y-54990D01*
X41459Y-54990D01*
X41815Y-54784D02*
X42059Y-54784D01*
X41928Y-54934D01*
X41984Y-54934D01*
X42021Y-54953D01*
X42040Y-54971D01*
X42059Y-55009D01*
X42059Y-55103D01*
X42040Y-55140D01*
X42021Y-55159D01*
X41984Y-55178D01*
X41871Y-55178D01*
X41834Y-55159D01*
X41815Y-55140D01*
G54D19*
X42630Y-60976D02*
X42630Y-60476D01*
X42821Y-60476D01*
X42869Y-60500D01*
X42892Y-60523D01*
X42916Y-60571D01*
X42916Y-60642D01*
X42892Y-60690D01*
X42869Y-60714D01*
X42821Y-60738D01*
X42630Y-60738D01*
X43345Y-60642D02*
X43345Y-60976D01*
X43226Y-60452D02*
X43107Y-60809D01*
X43416Y-60809D01*
G54D10*
X44084Y-55854D02*
X43896Y-55985D01*
X44084Y-56079D02*
X43690Y-56079D01*
X43690Y-55929D01*
X43709Y-55892D01*
X43727Y-55873D01*
X43765Y-55854D01*
X43821Y-55854D01*
X43859Y-55873D01*
X43877Y-55892D01*
X43896Y-55929D01*
X43896Y-56079D01*
X44084Y-55479D02*
X44084Y-55704D01*
X44084Y-55592D02*
X43690Y-55592D01*
X43746Y-55629D01*
X43784Y-55667D01*
X43802Y-55704D01*
X36428Y-56565D02*
X36240Y-56696D01*
X36428Y-56790D02*
X36034Y-56790D01*
X36034Y-56640D01*
X36053Y-56603D01*
X36071Y-56584D01*
X36109Y-56565D01*
X36165Y-56565D01*
X36203Y-56584D01*
X36221Y-56603D01*
X36240Y-56640D01*
X36240Y-56790D01*
X36034Y-56434D02*
X36034Y-56190D01*
X36184Y-56321D01*
X36184Y-56265D01*
X36203Y-56228D01*
X36221Y-56209D01*
X36259Y-56190D01*
X36353Y-56190D01*
X36390Y-56209D01*
X36409Y-56228D01*
X36428Y-56265D01*
X36428Y-56378D01*
X36409Y-56415D01*
X36390Y-56434D01*
X44184Y-59678D02*
X44053Y-59490D01*
X43959Y-59678D02*
X43959Y-59284D01*
X44109Y-59284D01*
X44146Y-59303D01*
X44165Y-59321D01*
X44184Y-59359D01*
X44184Y-59415D01*
X44165Y-59453D01*
X44146Y-59471D01*
X44109Y-59490D01*
X43959Y-59490D01*
X44521Y-59415D02*
X44521Y-59678D01*
X44428Y-59265D02*
X44334Y-59546D01*
X44578Y-59546D01*
X35678Y-59065D02*
X35490Y-59196D01*
X35678Y-59290D02*
X35284Y-59290D01*
X35284Y-59140D01*
X35303Y-59103D01*
X35321Y-59084D01*
X35359Y-59065D01*
X35415Y-59065D01*
X35453Y-59084D01*
X35471Y-59103D01*
X35490Y-59140D01*
X35490Y-59290D01*
X35284Y-58709D02*
X35284Y-58896D01*
X35471Y-58915D01*
X35453Y-58896D01*
X35434Y-58859D01*
X35434Y-58765D01*
X35453Y-58728D01*
X35471Y-58709D01*
X35509Y-58690D01*
X35603Y-58690D01*
X35640Y-58709D01*
X35659Y-58728D01*
X35678Y-58765D01*
X35678Y-58859D01*
X35659Y-58896D01*
X35640Y-58915D01*
X36434Y-61428D02*
X36303Y-61240D01*
X36209Y-61428D02*
X36209Y-61034D01*
X36359Y-61034D01*
X36396Y-61053D01*
X36415Y-61071D01*
X36434Y-61109D01*
X36434Y-61165D01*
X36415Y-61203D01*
X36396Y-61221D01*
X36359Y-61240D01*
X36209Y-61240D01*
X36771Y-61034D02*
X36696Y-61034D01*
X36659Y-61053D01*
X36640Y-61071D01*
X36603Y-61128D01*
X36584Y-61203D01*
X36584Y-61353D01*
X36603Y-61390D01*
X36621Y-61409D01*
X36659Y-61428D01*
X36734Y-61428D01*
X36771Y-61409D01*
X36790Y-61390D01*
X36809Y-61353D01*
X36809Y-61259D01*
X36790Y-61221D01*
X36771Y-61203D01*
X36734Y-61184D01*
X36659Y-61184D01*
X36621Y-61203D01*
X36603Y-61221D01*
X36584Y-61259D01*
X49772Y-60026D02*
X49584Y-60157D01*
X49772Y-60251D02*
X49378Y-60251D01*
X49378Y-60101D01*
X49397Y-60064D01*
X49415Y-60045D01*
X49453Y-60026D01*
X49509Y-60026D01*
X49547Y-60045D01*
X49565Y-60064D01*
X49584Y-60101D01*
X49584Y-60251D01*
X49772Y-59839D02*
X49772Y-59764D01*
X49753Y-59726D01*
X49734Y-59707D01*
X49678Y-59670D01*
X49603Y-59651D01*
X49453Y-59651D01*
X49415Y-59670D01*
X49397Y-59689D01*
X49378Y-59726D01*
X49378Y-59801D01*
X49397Y-59839D01*
X49415Y-59857D01*
X49453Y-59876D01*
X49547Y-59876D01*
X49584Y-59857D01*
X49603Y-59839D01*
X49622Y-59801D01*
X49622Y-59726D01*
X49603Y-59689D01*
X49584Y-59670D01*
X49547Y-59651D01*
X48285Y-59022D02*
X48154Y-58834D01*
X48060Y-59022D02*
X48060Y-58628D01*
X48210Y-58628D01*
X48248Y-58647D01*
X48267Y-58665D01*
X48285Y-58703D01*
X48285Y-58759D01*
X48267Y-58797D01*
X48248Y-58815D01*
X48210Y-58834D01*
X48060Y-58834D01*
X48660Y-59022D02*
X48435Y-59022D01*
X48548Y-59022D02*
X48548Y-58628D01*
X48510Y-58684D01*
X48473Y-58722D01*
X48435Y-58740D01*
X48904Y-58628D02*
X48942Y-58628D01*
X48979Y-58647D01*
X48998Y-58665D01*
X49017Y-58703D01*
X49035Y-58778D01*
X49035Y-58872D01*
X49017Y-58947D01*
X48998Y-58984D01*
X48979Y-59003D01*
X48942Y-59022D01*
X48904Y-59022D01*
X48867Y-59003D01*
X48848Y-58984D01*
X48829Y-58947D01*
X48810Y-58872D01*
X48810Y-58778D01*
X48829Y-58703D01*
X48848Y-58665D01*
X48867Y-58647D01*
X48904Y-58628D01*
X47996Y-61678D02*
X47865Y-61490D01*
X47771Y-61678D02*
X47771Y-61284D01*
X47921Y-61284D01*
X47959Y-61303D01*
X47978Y-61321D01*
X47996Y-61359D01*
X47996Y-61415D01*
X47978Y-61453D01*
X47959Y-61471D01*
X47921Y-61490D01*
X47771Y-61490D01*
X48371Y-61678D02*
X48146Y-61678D01*
X48259Y-61678D02*
X48259Y-61284D01*
X48221Y-61340D01*
X48184Y-61378D01*
X48146Y-61396D01*
X48746Y-61678D02*
X48521Y-61678D01*
X48634Y-61678D02*
X48634Y-61284D01*
X48596Y-61340D01*
X48559Y-61378D01*
X48521Y-61396D01*
X36496Y-63428D02*
X36365Y-63240D01*
X36271Y-63428D02*
X36271Y-63034D01*
X36421Y-63034D01*
X36459Y-63053D01*
X36478Y-63071D01*
X36496Y-63109D01*
X36496Y-63165D01*
X36478Y-63203D01*
X36459Y-63221D01*
X36421Y-63240D01*
X36271Y-63240D01*
X36871Y-63428D02*
X36646Y-63428D01*
X36759Y-63428D02*
X36759Y-63034D01*
X36721Y-63090D01*
X36684Y-63128D01*
X36646Y-63146D01*
X37021Y-63071D02*
X37040Y-63053D01*
X37078Y-63034D01*
X37171Y-63034D01*
X37209Y-63053D01*
X37228Y-63071D01*
X37246Y-63109D01*
X37246Y-63146D01*
X37228Y-63203D01*
X37003Y-63428D01*
X37246Y-63428D01*
X46100Y-60634D02*
X46100Y-60953D01*
X46118Y-60990D01*
X46137Y-61009D01*
X46175Y-61028D01*
X46250Y-61028D01*
X46287Y-61009D01*
X46306Y-60990D01*
X46325Y-60953D01*
X46325Y-60634D01*
X46493Y-60671D02*
X46512Y-60653D01*
X46549Y-60634D01*
X46643Y-60634D01*
X46681Y-60653D01*
X46699Y-60671D01*
X46718Y-60709D01*
X46718Y-60746D01*
X46699Y-60803D01*
X46474Y-61028D01*
X46718Y-61028D01*
X44859Y-63334D02*
X44934Y-63334D01*
X44972Y-63353D01*
X45009Y-63390D01*
X45028Y-63465D01*
X45028Y-63596D01*
X45009Y-63671D01*
X44972Y-63709D01*
X44934Y-63728D01*
X44859Y-63728D01*
X44822Y-63709D01*
X44784Y-63671D01*
X44765Y-63596D01*
X44765Y-63465D01*
X44784Y-63390D01*
X44822Y-63353D01*
X44859Y-63334D01*
X45197Y-63728D02*
X45197Y-63334D01*
X45347Y-63334D01*
X45384Y-63353D01*
X45403Y-63371D01*
X45422Y-63409D01*
X45422Y-63465D01*
X45403Y-63503D01*
X45384Y-63521D01*
X45347Y-63540D01*
X45197Y-63540D01*
X45534Y-63334D02*
X45759Y-63334D01*
X45646Y-63728D02*
X45646Y-63334D01*
X45965Y-63334D02*
X46040Y-63334D01*
X46078Y-63353D01*
X46115Y-63390D01*
X46134Y-63465D01*
X46134Y-63596D01*
X46115Y-63671D01*
X46078Y-63709D01*
X46040Y-63728D01*
X45965Y-63728D01*
X45928Y-63709D01*
X45890Y-63671D01*
X45871Y-63596D01*
X45871Y-63465D01*
X45890Y-63390D01*
X45928Y-63353D01*
X45965Y-63334D01*
X46303Y-63578D02*
X46603Y-63578D01*
X46734Y-63334D02*
X46959Y-63334D01*
X46846Y-63728D02*
X46846Y-63334D01*
X47315Y-63728D02*
X47184Y-63540D01*
X47090Y-63728D02*
X47090Y-63334D01*
X47240Y-63334D01*
X47278Y-63353D01*
X47296Y-63371D01*
X47315Y-63409D01*
X47315Y-63465D01*
X47296Y-63503D01*
X47278Y-63521D01*
X47240Y-63540D01*
X47090Y-63540D01*
X47484Y-63728D02*
X47484Y-63334D01*
X47652Y-63615D02*
X47840Y-63615D01*
X47615Y-63728D02*
X47746Y-63334D01*
X47877Y-63728D01*
X48234Y-63690D02*
X48215Y-63709D01*
X48159Y-63728D01*
X48121Y-63728D01*
X48065Y-63709D01*
X48027Y-63671D01*
X48009Y-63634D01*
X47990Y-63559D01*
X47990Y-63503D01*
X48009Y-63428D01*
X48027Y-63390D01*
X48065Y-63353D01*
X48121Y-63334D01*
X48159Y-63334D01*
X48215Y-63353D01*
X48234Y-63371D01*
X50534Y-61549D02*
X50853Y-61549D01*
X50890Y-61531D01*
X50909Y-61512D01*
X50928Y-61474D01*
X50928Y-61399D01*
X50909Y-61362D01*
X50890Y-61343D01*
X50853Y-61324D01*
X50534Y-61324D01*
X50534Y-61175D02*
X50534Y-60931D01*
X50684Y-61062D01*
X50684Y-61006D01*
X50703Y-60968D01*
X50721Y-60950D01*
X50759Y-60931D01*
X50853Y-60931D01*
X50890Y-60950D01*
X50909Y-60968D01*
X50928Y-61006D01*
X50928Y-61118D01*
X50909Y-61156D01*
X50890Y-61175D01*
X53471Y-63024D02*
X53490Y-62968D01*
X53509Y-62949D01*
X53546Y-62931D01*
X53603Y-62931D01*
X53640Y-62949D01*
X53659Y-62968D01*
X53678Y-63005D01*
X53678Y-63155D01*
X53284Y-63155D01*
X53284Y-63024D01*
X53303Y-62987D01*
X53321Y-62968D01*
X53359Y-62949D01*
X53396Y-62949D01*
X53434Y-62968D01*
X53453Y-62987D01*
X53471Y-63024D01*
X53471Y-63155D01*
X53284Y-62818D02*
X53284Y-62593D01*
X53678Y-62706D02*
X53284Y-62706D01*
X53565Y-62481D02*
X53565Y-62293D01*
X53678Y-62518D02*
X53284Y-62387D01*
X53678Y-62256D01*
X53284Y-62162D02*
X53284Y-61918D01*
X53434Y-62049D01*
X53434Y-61993D01*
X53453Y-61956D01*
X53471Y-61937D01*
X53509Y-61918D01*
X53603Y-61918D01*
X53640Y-61937D01*
X53659Y-61956D01*
X53678Y-61993D01*
X53678Y-62106D01*
X53659Y-62143D01*
X53640Y-62162D01*
X53678Y-61543D02*
X53678Y-61768D01*
X53678Y-61656D02*
X53284Y-61656D01*
X53340Y-61693D01*
X53378Y-61731D01*
X53396Y-61768D01*
X53321Y-61393D02*
X53303Y-61374D01*
X53284Y-61337D01*
X53284Y-61243D01*
X53303Y-61206D01*
X53321Y-61187D01*
X53359Y-61168D01*
X53396Y-61168D01*
X53453Y-61187D01*
X53678Y-61412D01*
X53678Y-61168D01*
X53490Y-60925D02*
X53678Y-60925D01*
X53284Y-61056D02*
X53490Y-60925D01*
X53284Y-60793D01*
X53528Y-60662D02*
X53528Y-60362D01*
X53284Y-60006D02*
X53284Y-60081D01*
X53303Y-60118D01*
X53321Y-60137D01*
X53378Y-60175D01*
X53453Y-60193D01*
X53603Y-60193D01*
X53640Y-60175D01*
X53659Y-60156D01*
X53678Y-60118D01*
X53678Y-60043D01*
X53659Y-60006D01*
X53640Y-59987D01*
X53603Y-59968D01*
X53509Y-59968D01*
X53471Y-59987D01*
X53453Y-60006D01*
X53434Y-60043D01*
X53434Y-60118D01*
X53453Y-60156D01*
X53471Y-60175D01*
X53509Y-60193D01*
X53284Y-59725D02*
X53284Y-59687D01*
X53303Y-59650D01*
X53321Y-59631D01*
X53359Y-59612D01*
X53434Y-59593D01*
X53528Y-59593D01*
X53603Y-59612D01*
X53640Y-59631D01*
X53659Y-59650D01*
X53678Y-59687D01*
X53678Y-59725D01*
X53659Y-59762D01*
X53640Y-59781D01*
X53603Y-59800D01*
X53528Y-59818D01*
X53434Y-59818D01*
X53359Y-59800D01*
X53321Y-59781D01*
X53303Y-59762D01*
X53284Y-59725D01*
X53284Y-59350D02*
X53284Y-59312D01*
X53303Y-59275D01*
X53321Y-59256D01*
X53359Y-59237D01*
X53434Y-59218D01*
X53528Y-59218D01*
X53603Y-59237D01*
X53640Y-59256D01*
X53659Y-59275D01*
X53678Y-59312D01*
X53678Y-59350D01*
X53659Y-59387D01*
X53640Y-59406D01*
X53603Y-59425D01*
X53528Y-59443D01*
X53434Y-59443D01*
X53359Y-59425D01*
X53321Y-59406D01*
X53303Y-59387D01*
X53284Y-59350D01*
X53640Y-58825D02*
X53659Y-58844D01*
X53678Y-58900D01*
X53678Y-58937D01*
X53659Y-58994D01*
X53621Y-59031D01*
X53584Y-59050D01*
X53509Y-59068D01*
X53453Y-59068D01*
X53378Y-59050D01*
X53340Y-59031D01*
X53303Y-58994D01*
X53284Y-58937D01*
X53284Y-58900D01*
X53303Y-58844D01*
X53321Y-58825D01*
X46350Y-54034D02*
X46350Y-54353D01*
X46368Y-54390D01*
X46387Y-54409D01*
X46425Y-54428D01*
X46500Y-54428D01*
X46537Y-54409D01*
X46556Y-54390D01*
X46575Y-54353D01*
X46575Y-54034D01*
X46931Y-54165D02*
X46931Y-54428D01*
X46837Y-54015D02*
X46743Y-54296D01*
X46987Y-54296D01*
X45006Y-55334D02*
X45081Y-55334D01*
X45118Y-55353D01*
X45156Y-55390D01*
X45175Y-55465D01*
X45175Y-55596D01*
X45156Y-55671D01*
X45118Y-55709D01*
X45081Y-55728D01*
X45006Y-55728D01*
X44968Y-55709D01*
X44931Y-55671D01*
X44912Y-55596D01*
X44912Y-55465D01*
X44931Y-55390D01*
X44968Y-55353D01*
X45006Y-55334D01*
X45343Y-55728D02*
X45343Y-55334D01*
X45493Y-55334D01*
X45531Y-55353D01*
X45550Y-55371D01*
X45568Y-55409D01*
X45568Y-55465D01*
X45550Y-55503D01*
X45531Y-55521D01*
X45493Y-55540D01*
X45343Y-55540D01*
X45681Y-55334D02*
X45906Y-55334D01*
X45793Y-55728D02*
X45793Y-55334D01*
X46112Y-55334D02*
X46187Y-55334D01*
X46225Y-55353D01*
X46262Y-55390D01*
X46281Y-55465D01*
X46281Y-55596D01*
X46262Y-55671D01*
X46225Y-55709D01*
X46187Y-55728D01*
X46112Y-55728D01*
X46075Y-55709D01*
X46037Y-55671D01*
X46018Y-55596D01*
X46018Y-55465D01*
X46037Y-55390D01*
X46075Y-55353D01*
X46112Y-55334D01*
X46450Y-55578D02*
X46750Y-55578D01*
X46881Y-55334D02*
X47106Y-55334D01*
X46993Y-55728D02*
X46993Y-55334D01*
X47462Y-55728D02*
X47331Y-55540D01*
X47237Y-55728D02*
X47237Y-55334D01*
X47387Y-55334D01*
X47424Y-55353D01*
X47443Y-55371D01*
X47462Y-55409D01*
X47462Y-55465D01*
X47443Y-55503D01*
X47424Y-55521D01*
X47387Y-55540D01*
X47237Y-55540D01*
X47612Y-55615D02*
X47799Y-55615D01*
X47574Y-55728D02*
X47706Y-55334D01*
X47837Y-55728D01*
X47968Y-55728D02*
X47968Y-55334D01*
X48193Y-55728D01*
X48193Y-55334D01*
X48362Y-55709D02*
X48418Y-55728D01*
X48512Y-55728D01*
X48549Y-55709D01*
X48568Y-55690D01*
X48587Y-55653D01*
X48587Y-55615D01*
X48568Y-55578D01*
X48549Y-55559D01*
X48512Y-55540D01*
X48437Y-55521D01*
X48399Y-55503D01*
X48381Y-55484D01*
X48362Y-55446D01*
X48362Y-55409D01*
X48381Y-55371D01*
X48399Y-55353D01*
X48437Y-55334D01*
X48531Y-55334D01*
X48587Y-55353D01*
X38534Y-60568D02*
X38928Y-60306D01*
X38534Y-60306D02*
X38928Y-60568D01*
X38928Y-59950D02*
X38928Y-60175D01*
X38928Y-60062D02*
X38534Y-60062D01*
X38590Y-60100D01*
X38628Y-60137D01*
X38646Y-60175D01*
G54D19*
X37576Y-62369D02*
X37076Y-62369D01*
X37076Y-62178D01*
X37100Y-62130D01*
X37123Y-62107D01*
X37171Y-62083D01*
X37242Y-62083D01*
X37290Y-62107D01*
X37314Y-62130D01*
X37338Y-62178D01*
X37338Y-62369D01*
X37576Y-61607D02*
X37576Y-61892D01*
X37576Y-61750D02*
X37076Y-61750D01*
X37147Y-61797D01*
X37195Y-61845D01*
X37219Y-61892D01*
G54D10*
X41365Y-56951D02*
X41365Y-56558D01*
X41778Y-56914D02*
X41759Y-56932D01*
X41703Y-56951D01*
X41665Y-56951D01*
X41609Y-56932D01*
X41571Y-56895D01*
X41553Y-56857D01*
X41534Y-56782D01*
X41534Y-56726D01*
X41553Y-56651D01*
X41571Y-56614D01*
X41609Y-56576D01*
X41665Y-56558D01*
X41703Y-56558D01*
X41759Y-56576D01*
X41778Y-56595D01*
X42153Y-56951D02*
X41928Y-56951D01*
X42040Y-56951D02*
X42040Y-56558D01*
X42003Y-56614D01*
X41965Y-56651D01*
X41928Y-56670D01*
M02*
